<svg xmlns="http://www.w3.org/2000/svg" width="600" height="450" viewBox="0 0 600 450" role="img" aria-labelledby="title"><title id="title">Cylinder with massless support and offset pivot</title><defs><marker id="arrow" viewBox="0 0 10 10" refX="9" refY="5" markerWidth="7" markerHeight="7" orient="auto-start-reverse"><path d="M0 0 10 5 0 10Z" fill="context-stroke"/></marker></defs><rect width="600" height="450" fill="white"/><g font-family="Arial, sans-serif"><path d="M65 225L105 225" stroke="#7d8790" stroke-width="5" fill="none"/><rect x="105" y="202" width="370" height="46" rx="12" fill="#e7edf2" stroke="#243b53" stroke-width="3"/><circle cx="65" cy="225" r="7" fill="white" stroke="#243b53" stroke-width="3"/><text x="53" y="265" fill="#243b53" font-size="24">O</text><circle cx="290" cy="225" r="7" fill="white" stroke="#243b53" stroke-width="3"/><text x="282" y="267" fill="#243b53" font-size="24">G</text><path d="M290 225L530 225" stroke="#7d8790" stroke-width="3" fill="none" marker-end="url(#arrow)"/><text x="536" y="230" fill="#243b53" font-size="24">x</text><path d="M65 115L290 115" stroke="#087e8b" stroke-width="3" fill="none" marker-end="url(#arrow)"/><text x="137" y="99" fill="#243b53" font-size="24">d = 0.25 m</text><path d="M65 130L65 197" stroke="#7d8790" stroke-width="1" fill="none" stroke-dasharray="7 6"/><path d="M290 130L290 197" stroke="#7d8790" stroke-width="1" fill="none" stroke-dasharray="7 6"/><path d="M105 325L475 325" stroke="#243b53" stroke-width="3" fill="none"/><path d="M105 312L105 338" stroke="#243b53" stroke-width="3" fill="none"/><path d="M475 312L475 338" stroke="#243b53" stroke-width="3" fill="none"/><text x="205" y="366" fill="#243b53" font-size="24">h = 0.43 m</text><text x="77" y="56" fill="#7d8790" font-size="22">Massless support</text><path d="M175 65L85 205" stroke="#7d8790" stroke-width="1" fill="none"/><text x="330" y="168" fill="#243b53" font-size="22">r = 5 mm</text></g></svg>