<svg xmlns="http://www.w3.org/2000/svg" viewBox="0 50 940 286" width="100%" class="fig" role="img" aria-label="The contact catalog"><title>The contact catalog</title><text x="298.00" y="80.00" font-size="13.5" fill="#6b7a74" text-anchor="end" font-weight="400" font-family="'Source Sans Pro','Helvetica Neue',Arial,sans-serif" style="" >{B, M}</text><rect x="316" y="62" width="30" height="26" rx="4" fill="#f4f6f4" stroke="#aab5b0" stroke-width="1.4"/><text x="331.00" y="80.00" font-size="14" fill="#c4702f" text-anchor="middle" font-weight="700" font-family="'Latin Modern Math',Georgia,serif" style="" >m<tspan baseline-shift="sub" font-size="0.68em">x</tspan></text><rect x="352" y="62" width="30" height="26" rx="4" fill="#f4f6f4" stroke="#aab5b0" stroke-width="1.4"/><text x="367.00" y="80.00" font-size="14" fill="#c4702f" text-anchor="middle" font-weight="700" font-family="'Latin Modern Math',Georgia,serif" style="" >m<tspan baseline-shift="sub" font-size="0.68em">z</tspan></text><rect x="388" y="62" width="30" height="26" rx="4" fill="#f4f6f4" stroke="#aab5b0" stroke-width="1.4"/><rect x="424" y="62" width="30" height="26" rx="4" fill="#f4f6f4" stroke="#aab5b0" stroke-width="1.4"/><rect x="460" y="62" width="30" height="26" rx="4" fill="#f4f6f4" stroke="#aab5b0" stroke-width="1.4"/><rect x="496" y="62" width="30" height="26" rx="4" fill="#f4f6f4" stroke="#aab5b0" stroke-width="1.4"/><rect x="532" y="62" width="30" height="26" rx="4" fill="#f4f6f4" stroke="#aab5b0" stroke-width="1.4"/><rect x="568" y="62" width="30" height="26" rx="4" fill="#f4f6f4" stroke="#aab5b0" stroke-width="1.4"/><text x="298.00" y="120.00" font-size="13.5" fill="#6b7a74" text-anchor="end" font-weight="400" font-family="'Source Sans Pro','Helvetica Neue',Arial,sans-serif" style="" >{B, L}</text><rect x="316" y="102" width="30" height="26" rx="4" fill="#f4f6f4" stroke="#aab5b0" stroke-width="1.4"/><text x="331.00" y="120.00" font-size="14" fill="#7b8a85" text-anchor="middle" font-weight="700" font-family="'Latin Modern Math',Georgia,serif" style="" >g</text><rect x="352" y="102" width="30" height="26" rx="4" fill="#f4f6f4" stroke="#aab5b0" stroke-width="1.4"/><text x="367.00" y="120.00" font-size="14" fill="#7b8a85" text-anchor="middle" font-weight="700" font-family="'Latin Modern Math',Georgia,serif" style="" >g<tspan baseline-shift="sub" font-size="0.68em">v</tspan></text><rect x="388" y="102" width="30" height="26" rx="4" fill="#f4f6f4" stroke="#aab5b0" stroke-width="1.4"/><rect x="424" y="102" width="30" height="26" rx="4" fill="#f4f6f4" stroke="#aab5b0" stroke-width="1.4"/><rect x="460" y="102" width="30" height="26" rx="4" fill="#f4f6f4" stroke="#aab5b0" stroke-width="1.4"/><rect x="496" y="102" width="30" height="26" rx="4" fill="#f4f6f4" stroke="#aab5b0" stroke-width="1.4"/><rect x="532" y="102" width="30" height="26" rx="4" fill="#f4f6f4" stroke="#aab5b0" stroke-width="1.4"/><rect x="568" y="102" width="30" height="26" rx="4" fill="#f4f6f4" stroke="#aab5b0" stroke-width="1.4"/><text x="298.00" y="160.00" font-size="13.5" fill="#6b7a74" text-anchor="end" font-weight="400" font-family="'Source Sans Pro','Helvetica Neue',Arial,sans-serif" style="" >{B, S}</text><rect x="316" y="142" width="30" height="26" rx="4" fill="#f4f6f4" stroke="#aab5b0" stroke-width="1.4"/><text x="331.00" y="160.00" font-size="14" fill="#7b8a85" text-anchor="middle" font-weight="700" font-family="'Latin Modern Math',Georgia,serif" style="" >s</text><rect x="352" y="142" width="30" height="26" rx="4" fill="#f4f6f4" stroke="#aab5b0" stroke-width="1.4"/><rect x="388" y="142" width="30" height="26" rx="4" fill="#f4f6f4" stroke="#aab5b0" stroke-width="1.4"/><rect x="424" y="142" width="30" height="26" rx="4" fill="#f4f6f4" stroke="#aab5b0" stroke-width="1.4"/><rect x="460" y="142" width="30" height="26" rx="4" fill="#f4f6f4" stroke="#aab5b0" stroke-width="1.4"/><rect x="496" y="142" width="30" height="26" rx="4" fill="#f4f6f4" stroke="#aab5b0" stroke-width="1.4"/><rect x="532" y="142" width="30" height="26" rx="4" fill="#f4f6f4" stroke="#aab5b0" stroke-width="1.4"/><rect x="568" y="142" width="30" height="26" rx="4" fill="#f4f6f4" stroke="#aab5b0" stroke-width="1.4"/><text x="298.00" y="200.00" font-size="13.5" fill="#6b7a74" text-anchor="end" font-weight="400" font-family="'Source Sans Pro','Helvetica Neue',Arial,sans-serif" style="" >{B, P}</text><rect x="316" y="182" width="30" height="26" rx="4" fill="#f4f6f4" stroke="#aab5b0" stroke-width="1.4"/><text x="331.00" y="200.00" font-size="14" fill="#7b8a85" text-anchor="middle" font-weight="700" font-family="'Latin Modern Math',Georgia,serif" style="" >t</text><rect x="352" y="182" width="30" height="26" rx="4" fill="#f4f6f4" stroke="#aab5b0" stroke-width="1.4"/><rect x="388" y="182" width="30" height="26" rx="4" fill="#f4f6f4" stroke="#aab5b0" stroke-width="1.4"/><rect x="424" y="182" width="30" height="26" rx="4" fill="#f4f6f4" stroke="#aab5b0" stroke-width="1.4"/><rect x="460" y="182" width="30" height="26" rx="4" fill="#f4f6f4" stroke="#aab5b0" stroke-width="1.4"/><rect x="496" y="182" width="30" height="26" rx="4" fill="#f4f6f4" stroke="#aab5b0" stroke-width="1.4"/><rect x="532" y="182" width="30" height="26" rx="4" fill="#f4f6f4" stroke="#aab5b0" stroke-width="1.4"/><rect x="568" y="182" width="30" height="26" rx="4" fill="#f4f6f4" stroke="#aab5b0" stroke-width="1.4"/><text x="298.00" y="240.00" font-size="13.5" fill="#6b7a74" text-anchor="end" font-weight="400" font-family="'Source Sans Pro','Helvetica Neue',Arial,sans-serif" style="" >{M, L}, {M, S}, {M, P}</text><rect x="316" y="222" width="30" height="26" rx="4" fill="#fafbfa" stroke="#dce3dd" stroke-width="1.4" stroke-dasharray="3 2"/><rect x="352" y="222" width="30" height="26" rx="4" fill="#fafbfa" stroke="#dce3dd" stroke-width="1.4" stroke-dasharray="3 2"/><rect x="388" y="222" width="30" height="26" rx="4" fill="#fafbfa" stroke="#dce3dd" stroke-width="1.4" stroke-dasharray="3 2"/><text x="436.00" y="240.00" font-size="13" fill="#aab5b0" text-anchor="start" font-weight="400" font-family="'Source Sans Pro','Helvetica Neue',Arial,sans-serif" style="" >forbidden &#8212; manipulator against environment</text><text x="470.00" y="292.00" font-size="19" fill="#1c2b26" text-anchor="middle" font-weight="600" font-family="'Latin Modern Math',Georgia,serif" style="" >|<tspan font-style="italic">C</tspan>| = 8 + 8 + 8 + 8 + 3 = 35 templates</text><text x="470.00" y="318.00" font-size="13" fill="#aab5b0" text-anchor="middle" font-weight="400" font-family="'Source Sans Pro','Helvetica Neue',Arial,sans-serif" style="" >six are named in this talk; the other twenty-nine are ordinary catalog members</text></svg>
