<svg xmlns="http://www.w3.org/2000/svg" viewBox="0 0 1180 306" width="100%" class="fig fig-strip" role="img" aria-label="Five snapshots of the running task"><title>Five snapshots of the running task</title><polygon points="235.150,214.000 124.000,214.000 124.000,231.100 235.150,231.100" fill="#e7ebe8" stroke="#7b8a85" stroke-width="1.4" stroke-linejoin="round" /><polygon points="124.000,231.100 15.700,231.100 15.700,192.625 124.000,192.625" fill="#e7ebe8" stroke="#7b8a85" stroke-width="1.4" stroke-linejoin="round" /><line x1="235.150" y1="214.000" x2="124.000" y2="214.000" stroke="#7b8a85" stroke-width="2.6" stroke-linecap="round" /><line x1="124.000" y1="214.000" x2="124.000" y2="192.625" stroke="#7b8a85" stroke-width="2.6" stroke-linecap="round" /><line x1="124.000" y1="192.625" x2="15.700" y2="192.625" stroke="#7b8a85" stroke-width="2.6" stroke-linecap="round" /><polygon points="153.640,157.000 210.640,157.000 210.640,214.000 153.640,214.000" fill="#dae8f2" stroke="#2f6690" stroke-width="1.8" stroke-linejoin="round" /><line x1="176.440" y1="166.120" x2="162.760" y2="166.120" stroke="#2f6690" stroke-width="2.6" stroke-linecap="round" /><circle cx="217.765" cy="185.500" r="7.125" fill="#f7e3cf" stroke="#c4702f" stroke-width="1.8" /><line x1="210.640" y1="214.000" x2="153.640" y2="214.000" stroke="#c0392b" stroke-width="3.0" stroke-linecap="round" /><circle cx="210.640" cy="185.500" r="3.6" fill="#c0392b" stroke="#ffffff" stroke-width="1.2" /><text x="118.00" y="36.00" font-size="16" fill="#1c2b26" text-anchor="middle" font-weight="700" font-family="'Source Sans Pro','Helvetica Neue',Arial,sans-serif" style="" >M0</text><text x="118.00" y="262.00" font-size="15" fill="#175b48" text-anchor="middle" font-weight="600" font-family="'Latin Modern Math','STIX Two Math',Georgia,serif" style="" >&#963;<tspan baseline-shift="sub" font-size="0.68em">0</tspan> = { m<tspan baseline-shift="sub" font-size="0.68em">x</tspan>, g }</text><polygon points="471.150,214.000 360.000,214.000 360.000,231.100 471.150,231.100" fill="#e7ebe8" stroke="#7b8a85" stroke-width="1.4" stroke-linejoin="round" /><polygon points="360.000,231.100 251.700,231.100 251.700,192.625 360.000,192.625" fill="#e7ebe8" stroke="#7b8a85" stroke-width="1.4" stroke-linejoin="round" /><line x1="471.150" y1="214.000" x2="360.000" y2="214.000" stroke="#7b8a85" stroke-width="2.6" stroke-linecap="round" /><line x1="360.000" y1="214.000" x2="360.000" y2="192.625" stroke="#7b8a85" stroke-width="2.6" stroke-linecap="round" /><line x1="360.000" y1="192.625" x2="251.700" y2="192.625" stroke="#7b8a85" stroke-width="2.6" stroke-linecap="round" /><polygon points="360.000,157.000 417.000,157.000 417.000,214.000 360.000,214.000" fill="#dae8f2" stroke="#2f6690" stroke-width="1.8" stroke-linejoin="round" /><line x1="382.800" y1="166.120" x2="369.120" y2="166.120" stroke="#2f6690" stroke-width="2.6" stroke-linecap="round" /><circle cx="424.125" cy="171.820" r="7.125" fill="#f7e3cf" stroke="#c4702f" stroke-width="1.8" /><line x1="417.000" y1="214.000" x2="360.000" y2="214.000" stroke="#c0392b" stroke-width="3.0" stroke-linecap="round" /><line x1="360.000" y1="214.000" x2="360.000" y2="192.625" stroke="#c0392b" stroke-width="3.0" stroke-linecap="round" /><circle cx="417.000" cy="171.820" r="3.6" fill="#c0392b" stroke="#ffffff" stroke-width="1.2" /><text x="354.00" y="36.00" font-size="16" fill="#1c2b26" text-anchor="middle" font-weight="700" font-family="'Source Sans Pro','Helvetica Neue',Arial,sans-serif" style="" >M1</text><text x="354.00" y="262.00" font-size="15" fill="#175b48" text-anchor="middle" font-weight="600" font-family="'Latin Modern Math','STIX Two Math',Georgia,serif" style="" >&#963;<tspan baseline-shift="sub" font-size="0.68em">1</tspan> = { m<tspan baseline-shift="sub" font-size="0.68em">x</tspan>, g, s }</text><polygon points="707.150,214.000 596.000,214.000 596.000,231.100 707.150,231.100" fill="#e7ebe8" stroke="#7b8a85" stroke-width="1.4" stroke-linejoin="round" /><polygon points="596.000,231.100 487.700,231.100 487.700,192.625 596.000,192.625" fill="#e7ebe8" stroke="#7b8a85" stroke-width="1.4" stroke-linejoin="round" /><line x1="707.150" y1="214.000" x2="596.000" y2="214.000" stroke="#7b8a85" stroke-width="2.6" stroke-linecap="round" /><line x1="596.000" y1="214.000" x2="596.000" y2="192.625" stroke="#7b8a85" stroke-width="2.6" stroke-linecap="round" /><line x1="596.000" y1="192.625" x2="487.700" y2="192.625" stroke="#7b8a85" stroke-width="2.6" stroke-linecap="round" /><polygon points="576.079,163.091 623.334,131.217 655.208,178.472 607.953,210.346" fill="#dae8f2" stroke="#2f6690" stroke-width="1.8" stroke-linejoin="round" /><line x1="600.081" y1="157.902" x2="588.739" y2="165.552" stroke="#2f6690" stroke-width="2.6" stroke-linecap="round" /><circle cx="637.528" cy="139.519" r="7.125" fill="#f7e3cf" stroke="#c4702f" stroke-width="1.8" /><circle cx="607.953" cy="210.346" r="4.2" fill="#c0392b" stroke="#ffffff" stroke-width="1.2" /><circle cx="596.000" cy="192.625" r="4.2" fill="#c0392b" stroke="#ffffff" stroke-width="1.2" /><circle cx="631.621" cy="143.503" r="3.6" fill="#c0392b" stroke="#ffffff" stroke-width="1.2" /><path d="M 632.24 173.36 A 41.04 41.04 0 0 0 611.37 154.57" fill="none" stroke="#c4702f" stroke-width="1.8" stroke-linecap="round"/><polygon points="611.37,154.57 619.18,153.95 616.55,160.44" fill="#c4702f"/><text x="590.00" y="36.00" font-size="16" fill="#1c2b26" text-anchor="middle" font-weight="700" font-family="'Source Sans Pro','Helvetica Neue',Arial,sans-serif" style="" >M2</text><text x="590.00" y="262.00" font-size="15" fill="#175b48" text-anchor="middle" font-weight="600" font-family="'Latin Modern Math','STIX Two Math',Georgia,serif" style="" >&#963;<tspan baseline-shift="sub" font-size="0.68em">3</tspan> = { m<tspan baseline-shift="sub" font-size="0.68em">x</tspan>, s, g<tspan baseline-shift="sub" font-size="0.68em">v</tspan> }</text><polygon points="943.150,214.000 832.000,214.000 832.000,231.100 943.150,231.100" fill="#e7ebe8" stroke="#7b8a85" stroke-width="1.4" stroke-linejoin="round" /><polygon points="832.000,231.100 723.700,231.100 723.700,192.625 832.000,192.625" fill="#e7ebe8" stroke="#7b8a85" stroke-width="1.4" stroke-linejoin="round" /><line x1="943.150" y1="214.000" x2="832.000" y2="214.000" stroke="#7b8a85" stroke-width="2.6" stroke-linecap="round" /><line x1="832.000" y1="214.000" x2="832.000" y2="192.625" stroke="#7b8a85" stroke-width="2.6" stroke-linecap="round" /><line x1="832.000" y1="192.625" x2="723.700" y2="192.625" stroke="#7b8a85" stroke-width="2.6" stroke-linecap="round" /><polygon points="796.375,192.625 796.375,135.625 853.375,135.625 853.375,192.625" fill="#dae8f2" stroke="#2f6690" stroke-width="1.8" stroke-linejoin="round" /><line x1="805.495" y1="169.825" x2="805.495" y2="183.505" stroke="#2f6690" stroke-width="2.6" stroke-linecap="round" /><circle cx="824.875" cy="128.500" r="7.125" fill="#f7e3cf" stroke="#c4702f" stroke-width="1.8" /><line x1="832.000" y1="192.625" x2="796.375" y2="192.625" stroke="#c0392b" stroke-width="3.0" stroke-linecap="round" /><circle cx="832.000" cy="192.625" r="4.2" fill="#c0392b" stroke="#ffffff" stroke-width="1.2" /><circle cx="824.875" cy="135.625" r="3.6" fill="#c0392b" stroke="#ffffff" stroke-width="1.2" /><text x="826.00" y="36.00" font-size="16" fill="#1c2b26" text-anchor="middle" font-weight="700" font-family="'Source Sans Pro','Helvetica Neue',Arial,sans-serif" style="" >M3</text><text x="826.00" y="262.00" font-size="15" fill="#175b48" text-anchor="middle" font-weight="600" font-family="'Latin Modern Math','STIX Two Math',Georgia,serif" style="" >&#963;<tspan baseline-shift="sub" font-size="0.68em">5</tspan> = { m<tspan baseline-shift="sub" font-size="0.68em">x</tspan>, s, t }</text><polygon points="1179.150,214.000 1068.000,214.000 1068.000,231.100 1179.150,231.100" fill="#e7ebe8" stroke="#7b8a85" stroke-width="1.4" stroke-linejoin="round" /><polygon points="1068.000,231.100 959.700,231.100 959.700,192.625 1068.000,192.625" fill="#e7ebe8" stroke="#7b8a85" stroke-width="1.4" stroke-linejoin="round" /><line x1="1179.150" y1="214.000" x2="1068.000" y2="214.000" stroke="#7b8a85" stroke-width="2.6" stroke-linecap="round" /><line x1="1068.000" y1="214.000" x2="1068.000" y2="192.625" stroke="#7b8a85" stroke-width="2.6" stroke-linecap="round" /><line x1="1068.000" y1="192.625" x2="959.700" y2="192.625" stroke="#7b8a85" stroke-width="2.6" stroke-linecap="round" /><polygon points="982.500,192.625 982.500,135.625 1039.500,135.625 1039.500,192.625" fill="#dae8f2" stroke="#2f6690" stroke-width="1.8" stroke-linejoin="round" /><line x1="991.620" y1="169.825" x2="991.620" y2="183.505" stroke="#2f6690" stroke-width="2.6" stroke-linecap="round" /><circle cx="1046.625" cy="164.125" r="7.125" fill="#f7e3cf" stroke="#c4702f" stroke-width="1.8" /><line x1="1039.500" y1="192.625" x2="982.500" y2="192.625" stroke="#c0392b" stroke-width="3.0" stroke-linecap="round" /><circle cx="1039.500" cy="164.125" r="3.6" fill="#c0392b" stroke="#ffffff" stroke-width="1.2" /><text x="1062.00" y="36.00" font-size="16" fill="#1c2b26" text-anchor="middle" font-weight="700" font-family="'Source Sans Pro','Helvetica Neue',Arial,sans-serif" style="" >M4</text><text x="1062.00" y="262.00" font-size="15" fill="#175b48" text-anchor="middle" font-weight="600" font-family="'Latin Modern Math','STIX Two Math',Georgia,serif" style="" >&#963;<tspan baseline-shift="sub" font-size="0.68em">8</tspan> = { m<tspan baseline-shift="sub" font-size="0.68em">z</tspan>, t }</text><text x="590.00" y="290.00" font-size="13.5" fill="#6b7a74" text-anchor="middle" font-weight="400" font-family="'Source Sans Pro','Helvetica Neue',Arial,sans-serif" style="" >red = asserted contact &#160;·&#160; consecutive markings differ by one make or break</text></svg>
