<?xml version="1.0" encoding="UTF-8" standalone="no"?>
<!-- Created with Inkscape (http://www.inkscape.org/) -->

<svg
   width="138.86362mm"
   height="28.864656mm"
   viewBox="0 0 138.86362 28.864656"
   version="1.1"
   id="svg1"
   inkscape:version="1.4.3 (0d15f75042, 2025-12-25)"
   xmlns:inkscape="http://www.inkscape.org/namespaces/inkscape"
   xmlns:sodipodi="http://sodipodi.sourceforge.net/DTD/sodipodi-0.dtd"
   xmlns="http://www.w3.org/2000/svg"
   xmlns:svg="http://www.w3.org/2000/svg"
   xmlns:ns1="http://www.iki.fi/pav/software/textext/">
  <sodipodi:namedview
     id="namedview1"
     pagecolor="#ffffff"
     bordercolor="#000000"
     borderopacity="0.25"
     inkscape:showpageshadow="2"
     inkscape:pageopacity="0.0"
     inkscape:pagecheckerboard="0"
     inkscape:deskcolor="#d1d1d1"
     inkscape:document-units="mm"
     inkscape:zoom="1.0324986"
     inkscape:cx="246.48944"
     inkscape:cy="387.40973"
     inkscape:window-width="2544"
     inkscape:window-height="1343"
     inkscape:window-x="0"
     inkscape:window-y="0"
     inkscape:window-maximized="1"
     inkscape:current-layer="layer1" />
  <defs
     id="defs1">
    <marker
       inkscape:collect="always"
       inkscape:stockid="TriangleOutM"
       orient="auto"
       refY="0"
       refX="0"
       id="TriangleOutM"
       style="overflow:visible"
       inkscape:isstock="true">
      <path
         inkscape:connector-curvature="0"
         id="path131997"
         d="M 5.77,0 -2.88,5 V -5 Z"
         style="fill:#424b4f;fill-opacity:1;fill-rule:evenodd;stroke:#424b4f;stroke-width:1pt;stroke-opacity:1"
         transform="scale(0.4)" />
    </marker>
    <marker
       inkscape:stockid="TriangleOutM"
       orient="auto"
       refY="0"
       refX="0"
       id="marker435309"
       style="overflow:visible"
       inkscape:isstock="true">
      <path
         id="path435307"
         d="M 5.77,0 -2.88,5 V -5 Z"
         style="fill:#424b4f;fill-opacity:1;fill-rule:evenodd;stroke:#424b4f;stroke-width:1pt;stroke-opacity:1"
         transform="scale(0.4)"
         inkscape:connector-curvature="0" />
    </marker>
    <marker
       inkscape:stockid="TriangleOutM"
       orient="auto"
       refY="0"
       refX="0"
       id="marker359007"
       style="overflow:visible"
       inkscape:isstock="true">
      <path
         id="path359005"
         d="M 5.77,0 -2.88,5 V -5 Z"
         style="fill:#424b4f;fill-opacity:1;fill-rule:evenodd;stroke:#424b4f;stroke-width:1pt;stroke-opacity:1"
         transform="scale(0.4)"
         inkscape:connector-curvature="0" />
    </marker>
    <marker
       inkscape:stockid="TriangleOutM"
       orient="auto"
       refY="0"
       refX="0"
       id="marker352334"
       style="overflow:visible"
       inkscape:isstock="true">
      <path
         inkscape:connector-curvature="0"
         id="path352332"
         d="M 5.77,0 -2.88,5 V -5 Z"
         style="fill:#424b4f;fill-opacity:1;fill-rule:evenodd;stroke:#424b4f;stroke-width:1pt;stroke-opacity:1"
         transform="scale(0.4)" />
    </marker>
  </defs>
  <g
     inkscape:label="Layer 1"
     inkscape:groupmode="layer"
     id="layer1"
     transform="translate(-39.61965,-46.228362)">
    <g
       transform="matrix(0.21493,0,0,0.21493,25.909766,33.354957)"
       ns1:version="0.11.0"
       ns1:texconverter="pdflatex"
       ns1:pdfconverter="pdf2svg"
       ns1:text="H"
       ns1:preamble="C:\\Users\\drsjd\\AppData\\Roaming\\inkscape\\extensions\\textext\\default_packages_simon.tex"
       ns1:scale="0.609249372167"
       ns1:alignment="middle center"
       inkscapeversion="0.92.3"
       ns1:jacobian_sqrt="0.21493"
       style="fill:#476779;fill-opacity:1"
       id="g339108">
      <g
         id="g339106"
         style="fill:#476779;fill-opacity:1">
        <g
           style="fill:#476779;fill-opacity:1"
           id="g339104">
          <path
             inkscape:connector-curvature="0"
             style="fill:#476779;fill-opacity:1;stroke:none;stroke-width:0"
             d="M 5.5,0 V -6.890625 H 4.75 V -4.03125 H 1.4375 v -2.859375 h -0.75 V 0 h 0.75 V -3.3125 H 4.75 V 0 Z m 0,0"
             transform="translate(148.712,134.765)"
             id="path339102" />
        </g>
      </g>
    </g>
    <rect
       style="vector-effect:none;fill:none;fill-opacity:1;stroke:#000000;stroke-width:0.2;stroke-linecap:butt;stroke-linejoin:round;stroke-miterlimit:4;stroke-dasharray:none;stroke-dashoffset:0;stroke-opacity:1"
       id="rect316372"
       width="38.286358"
       height="28.664656"
       x="39.71965"
       y="46.328362" />
    <rect
       y="46.328362"
       x="140.09691"
       height="28.664656"
       width="38.286358"
       id="rect316562"
       style="vector-effect:none;fill:none;fill-opacity:1;stroke:#000000;stroke-width:0.2;stroke-linecap:butt;stroke-linejoin:round;stroke-miterlimit:4;stroke-dasharray:none;stroke-dashoffset:0;stroke-opacity:1" />
    <path
       style="fill:none;stroke:#424b4f;stroke-width:0.3;stroke-linecap:butt;stroke-linejoin:miter;stroke-miterlimit:4;stroke-dasharray:none;stroke-opacity:1;marker-end:url(#TriangleOutM)"
       d="m 77.990542,60.660497 h 3.804204"
       id="path316620"
       inkscape:connector-curvature="0"
       sodipodi:nodetypes="cc" />
    <path
       inkscape:connector-curvature="0"
       id="use316622"
       d="m 98.637207,59.735946 v 0.979442 c 0.470886,0.301367 0.960607,0.320203 1.393823,0.339038 l 0.37671,0.941775 c -0.39555,0.28253 -0.565065,0.5839 -0.809926,1.24314 l 0.696916,0.69691 c 0.65924,-0.24486 0.9606,-0.41438 1.24313,-0.80993 l 0.94178,0.37671 c 0.0188,0.43322 0.0377,0.92294 0.33903,1.39382 h 0.97945 c 0.30136,-0.47088 0.3202,-0.9606 0.33903,-1.39382 l 0.94178,-0.37671 c 0.28253,0.39555 0.5839,0.56507 1.24314,0.80993 l 0.69691,-0.69691 c -0.24486,-0.65924 -0.41438,-0.96061 -0.80993,-1.24314 l 0.37671,-0.941775 c 0.43322,-0.01884 0.92294,-0.03767 1.39382,-0.339038 v -0.979442 c -0.47088,-0.301367 -0.9606,-0.320203 -1.39382,-0.339038 l -0.37671,-0.941772 c 0.39555,-0.282532 0.56507,-0.583899 0.80993,-1.243139 l -0.69691,-0.696912 c -0.65924,0.244861 -0.96061,0.41438 -1.24314,0.809924 L 104.13715,56.9483 c -0.0188,-0.433215 -0.0377,-0.922936 -0.33903,-1.393822 h -0.97945 c -0.30136,0.470886 -0.3202,0.960607 -0.33903,1.393822 l -0.94178,0.376709 c -0.28253,-0.395544 -0.58389,-0.565063 -1.24313,-0.809924 l -0.696916,0.696912 c 0.244861,0.65924 0.414376,0.960607 0.809926,1.243139 l -0.37671,0.941772 c -0.433216,0.01884 -0.922937,0.03767 -1.393823,0.339038 z m 3.164353,0.489721 c 0,-0.828759 0.67808,-1.506835 1.50684,-1.506835 0.82875,0 1.50683,0.678076 1.50683,1.506835 0,0.828759 -0.67808,1.506834 -1.50683,1.506834 -0.82876,0 -1.50684,-0.678075 -1.50684,-1.506834 z"
       style="fill:#773c23;fill-opacity:1;stroke:#000000;stroke-width:0.2;stroke-miterlimit:4;stroke-dasharray:none;stroke-opacity:1" />
    <path
       inkscape:connector-curvature="0"
       id="use316624"
       d="m 104.925,52.240827 -0.37482,0.904887 c 0.31971,0.458627 0.76495,0.663437 1.15798,0.846623 l -0.0124,1.014244 c -0.47355,0.109657 -0.7455,0.323212 -1.224,0.838567 l 0.37717,0.910558 c 0.70276,0.02606 1.04606,-0.01523 1.45845,-0.272543 l 0.72592,0.708434 c -0.14838,0.407447 -0.31838,0.867098 -0.22016,1.417468 l 0.90489,0.374817 c 0.45863,-0.319714 0.66344,-0.76495 0.84662,-1.15798 l 1.01425,0.01237 c 0.10965,0.473555 0.32321,0.745498 0.83856,1.224001 l 0.91056,-0.377166 c 0.0261,-0.702763 -0.0152,-1.046062 -0.27254,-1.458456 l 0.70843,-0.725923 c 0.40745,0.148382 0.8671,0.318389 1.41747,0.220162 l 0.37482,-0.904887 c -0.31972,-0.458627 -0.76495,-0.663437 -1.15798,-0.846623 l 0.0124,-1.014244 c 0.47356,-0.109657 0.7455,-0.323212 1.224,-0.838567 l -0.37716,-0.910558 c -0.70276,-0.02606 -1.04606,0.01523 -1.45846,0.272543 l -0.72596,-0.708437 c 0.14839,-0.407447 0.31839,-0.867098 0.22017,-1.417468 l -0.90489,-0.374817 c -0.45863,0.319714 -0.66344,0.76495 -0.84662,1.15798 l -1.01425,-0.01237 c -0.10966,-0.473552 -0.32321,-0.745495 -0.83857,-1.223998 l -0.91055,0.377166 c -0.0261,0.702763 0.0152,1.046062 0.27254,1.458456 l -0.70843,0.725923 c -0.40745,-0.148382 -0.8671,-0.318389 -1.41747,-0.220162 z m 2.73607,1.663389 c 0.31715,-0.765674 1.2031,-1.132646 1.96878,-0.815493 0.76567,0.317152 1.13264,1.203101 0.81549,1.968775 -0.31715,0.765674 -1.2031,1.132646 -1.96878,0.815493 -0.76567,-0.317152 -1.13264,-1.203101 -0.81549,-1.968775 z"
       style="fill:#9f502f;fill-opacity:1;stroke:#000000;stroke-width:0.2;stroke-miterlimit:4;stroke-dasharray:none;stroke-opacity:1" />
    <path
       inkscape:connector-curvature="0"
       id="use316626"
       d="m 110.12682,59.735946 v 0.979442 c 0.47089,0.301367 0.96061,0.320203 1.39382,0.339038 l 0.37671,0.941775 c -0.39554,0.28253 -0.56506,0.5839 -0.80992,1.24314 l 0.69691,0.69691 c 0.65924,-0.24486 0.96061,-0.41438 1.24314,-0.80993 l 0.94177,0.37671 c 0.0188,0.43322 0.0377,0.92294 0.33904,1.39382 h 0.97944 c 0.30137,-0.47088 0.3202,-0.9606 0.33904,-1.39382 l 0.94177,-0.37671 c 0.28253,0.39555 0.5839,0.56507 1.24314,0.80993 l 0.69691,-0.69691 c -0.24486,-0.65924 -0.41438,-0.96061 -0.80992,-1.24314 l 0.37671,-0.941775 c 0.43321,-0.01884 0.92293,-0.03767 1.39382,-0.339038 v -0.979442 c -0.47089,-0.301367 -0.96061,-0.320203 -1.39382,-0.339038 l -0.37671,-0.941772 c 0.39554,-0.282532 0.56506,-0.583899 0.80992,-1.243139 l -0.69691,-0.696912 c -0.65924,0.244861 -0.96061,0.41438 -1.24314,0.809924 L 115.62677,56.9483 c -0.0188,-0.433215 -0.0377,-0.922936 -0.33904,-1.393822 h -0.97944 c -0.30137,0.470886 -0.3202,0.960607 -0.33904,1.393822 l -0.94177,0.376709 c -0.28253,-0.395544 -0.5839,-0.565063 -1.24314,-0.809924 l -0.69691,0.696912 c 0.24486,0.65924 0.41438,0.960607 0.80992,1.243139 l -0.37671,0.941772 c -0.43321,0.01884 -0.92293,0.03767 -1.39382,0.339038 z m 3.16435,0.489721 c 0,-0.828759 0.67808,-1.506835 1.50684,-1.506835 0.82876,0 1.50684,0.678076 1.50684,1.506835 0,0.828759 -0.67808,1.506834 -1.50684,1.506834 -0.82876,0 -1.50684,-0.678075 -1.50684,-1.506834 z"
       style="fill:#d18362;fill-opacity:1;stroke:#000000;stroke-width:0.2;stroke-miterlimit:4;stroke-dasharray:none;stroke-opacity:1" />
    <rect
       style="vector-effect:none;fill:none;fill-opacity:0.39196;stroke:#000000;stroke-width:0.2;stroke-linecap:butt;stroke-linejoin:round;stroke-miterlimit:4;stroke-dasharray:none;stroke-dashoffset:0;stroke-opacity:1"
       id="rect316630"
       width="27.260925"
       height="22.935926"
       x="95.42099"
       y="49.192726" />
    <path
       sodipodi:nodetypes="cc"
       inkscape:connector-curvature="0"
       id="path316794"
       d="m 89.118303,60.660497 h 5.012649"
       style="fill:none;stroke:#424b4f;stroke-width:0.3;stroke-linecap:butt;stroke-linejoin:miter;stroke-miterlimit:4;stroke-dasharray:none;stroke-opacity:1;marker-end:url(#marker435309)" />
    <path
       sodipodi:nodetypes="cc"
       inkscape:connector-curvature="0"
       id="path316796"
       d="m 122.62989,60.660496 h 3.9039"
       style="fill:none;stroke:#424b4f;stroke-width:0.3;stroke-linecap:butt;stroke-linejoin:miter;stroke-miterlimit:4;stroke-dasharray:none;stroke-opacity:1;marker-end:url(#marker359007)" />
    <path
       style="fill:none;stroke:#424b4f;stroke-width:0.3;stroke-linecap:butt;stroke-linejoin:miter;stroke-miterlimit:4;stroke-dasharray:none;stroke-opacity:1;marker-end:url(#marker352334)"
       d="m 135.43767,60.660497 h 3.13791"
       id="path316798"
       inkscape:connector-curvature="0"
       sodipodi:nodetypes="cc" />
    <path
       inkscape:connector-curvature="0"
       id="path329553"
       d="m 45.86157,53.415647 2.858445,1.67727 3.16555,-1.81901 3.094681,1.77176 3.56715,-1.06305 2.055245,2.78757 h 3.732514 l 1.322917,2.3151"
       style="fill:none;stroke:#d18362;stroke-width:0.264583px;stroke-linecap:butt;stroke-linejoin:miter;stroke-opacity:1" />
    <path
       inkscape:connector-curvature="0"
       id="path329555"
       d="m 48.672768,55.022047 v 3.73251 l 3.161817,1.82548 3.276464,-1.89167 v -3.6427"
       style="fill:none;stroke:#d18362;stroke-width:0.264583px;stroke-linecap:butt;stroke-linejoin:miter;stroke-opacity:1" />
    <path
       inkscape:connector-curvature="0"
       id="path329557"
       d="m 55.121987,58.683687 2.622209,0.87408"
       style="fill:none;stroke:#d18362;stroke-width:0.264583px;stroke-linecap:butt;stroke-linejoin:miter;stroke-opacity:1" />
    <path
       inkscape:connector-curvature="0"
       id="path329559"
       d="m 60.697135,56.770187 -1.511904,2.10249"
       style="fill:none;stroke:#d18362;stroke-width:0.264583px;stroke-linecap:butt;stroke-linejoin:miter;stroke-opacity:1" />
    <path
       sodipodi:nodetypes="cc"
       inkscape:connector-curvature="0"
       id="path329561"
       d="m 63.926392,56.742517 1.495446,-2.26381"
       style="fill:none;stroke:#d18362;stroke-width:0.264583px;stroke-linecap:butt;stroke-linejoin:miter;stroke-opacity:1" />
    <path
       sodipodi:nodetypes="cc"
       style="fill:none;stroke:#d18362;stroke-width:0.264583px;stroke-linecap:butt;stroke-linejoin:miter;stroke-opacity:1"
       d="m 64.561607,57.081597 1.403572,-2.27216"
       id="path329563"
       inkscape:connector-curvature="0" />
    <path
       inkscape:connector-curvature="0"
       id="path329565"
       d="m 66.954424,60.013517 2.864795,0.0334 1.870887,3.132074 -1.327997,2.34696"
       style="fill:none;stroke:#d18362;stroke-width:0.264583px;stroke-linecap:butt;stroke-linejoin:miter;stroke-opacity:1" />
    <path
       inkscape:connector-curvature="0"
       id="path329567"
       d="m 65.643133,60.923897 -1.261179,2.255094 1.770661,3.16547 2.856444,0.008"
       style="fill:none;stroke:#d18362;stroke-width:0.264583px;stroke-linecap:butt;stroke-linejoin:miter;stroke-opacity:1" />
    <path
       inkscape:connector-curvature="0"
       id="path329571"
       d="m 49.314635,55.411467 2.57247,-1.46998"
       style="fill:none;stroke:#d18362;stroke-width:0.264583px;stroke-linecap:butt;stroke-linejoin:miter;stroke-opacity:1" />
    <path
       inkscape:connector-curvature="0"
       id="path329573"
       d="m 49.247818,58.384837 2.672695,1.40317"
       style="fill:none;stroke:#d18362;stroke-width:0.264583px;stroke-linecap:butt;stroke-linejoin:miter;stroke-opacity:1" />
    <path
       inkscape:connector-curvature="0"
       id="path329575"
       d="m 54.459574,55.478287 -0.03341,2.83974"
       style="fill:none;stroke:#d18362;stroke-width:0.264583px;stroke-linecap:butt;stroke-linejoin:miter;stroke-opacity:1" />
    <path
       inkscape:connector-curvature="0"
       id="path329577"
       d="m 58.401799,54.676477 1.5368,2.20497"
       style="fill:none;stroke:#d18362;stroke-width:0.264583px;stroke-linecap:butt;stroke-linejoin:miter;stroke-opacity:1" />
    <g
       id="g331149"
       style="fill:#476779;fill-opacity:1"
       ns1:jacobian_sqrt="0.446872"
       inkscapeversion="0.92.3"
       ns1:alignment="middle center"
       ns1:scale="1.26671918316"
       ns1:preamble="C:\\Users\\drsjd\\AppData\\Roaming\\inkscape\\extensions\\textext\\default_packages_simon.tex"
       ns1:text="Cl"
       ns1:pdfconverter="pdf2svg"
       ns1:texconverter="pdflatex"
       ns1:version="0.11.0"
       transform="matrix(0.21493042,0,0,0.21493042,12.12358,25.035927)">
      <g
         style="fill:#476779;fill-opacity:1"
         id="g331147">
        <g
           id="g331145"
           style="fill:#476779;fill-opacity:1">
          <path
             id="path331141"
             transform="translate(148.712,134.765)"
             d="m 5.5,-0.515625 v -0.90625 C 4.953125,-0.8125 4.390625,-0.53125 3.546875,-0.53125 c -1.71875,0 -2.390625,-1.265625 -2.390625,-2.890625 0.03125,-1.625 0.640625,-2.921875 2.390625,-2.921875 0.859375,0 1.421875,0.296875 1.953125,0.90625 V -6.375 c -0.578125,-0.40625 -1.25,-0.640625 -2,-0.640625 -2.109375,0 -3.078125,1.59375 -3.078125,3.59375 0,1.984375 0.984375,3.5625 3.078125,3.5625 0.703125,0 1.46875,-0.234375 2,-0.65625 z m 0,0"
             style="fill:#476779;fill-opacity:1;stroke:none;stroke-width:0"
             inkscape:connector-curvature="0" />
          <path
             id="path331143"
             transform="translate(154.53016,134.765)"
             d="M 1.3125,-6.890625 H 0.578125 V 0 H 1.3125 Z m 0,0"
             style="fill:#476779;fill-opacity:1;stroke:none;stroke-width:0"
             inkscape:connector-curvature="0" />
        </g>
      </g>
    </g>
    <g
       transform="matrix(0.21493046,0,0,0.21493046,33.597053,31.751287)"
       ns1:version="0.11.0"
       ns1:texconverter="pdflatex"
       ns1:pdfconverter="pdf2svg"
       ns1:text="N"
       ns1:preamble="C:\\Users\\drsjd\\AppData\\Roaming\\inkscape\\extensions\\textext\\default_packages_simon.tex"
       ns1:scale="0.752363112524"
       ns1:alignment="middle center"
       inkscapeversion="0.92.3"
       ns1:jacobian_sqrt="0.265418"
       style="fill:#476779;fill-opacity:1"
       id="g334324">
      <g
         id="g334322"
         style="fill:#476779;fill-opacity:1">
        <g
           style="fill:#476779;fill-opacity:1"
           id="g334320">
          <path
             inkscape:connector-curvature="0"
             style="fill:#476779;fill-opacity:1;stroke:none;stroke-width:0"
             d="m 5.46875,0 v -6.890625 h -0.75 v 5.5625 l -3.328125,-5.5625 H 0.6875 V 0 H 1.421875 V -5.546875 L 4.71875,0 Z m 0,0"
             transform="translate(148.712,134.765)"
             id="path334318" />
        </g>
      </g>
    </g>
    <g
       id="g335908"
       style="fill:#476779;fill-opacity:1"
       ns1:jacobian_sqrt="0.265418"
       inkscapeversion="0.92.3"
       ns1:alignment="middle center"
       ns1:scale="0.752363112524"
       ns1:preamble="C:\\Users\\drsjd\\AppData\\Roaming\\inkscape\\extensions\\textext\\default_packages_simon.tex"
       ns1:text="N"
       ns1:pdfconverter="pdf2svg"
       ns1:texconverter="pdflatex"
       ns1:version="0.11.0"
       transform="matrix(0.21493046,0,0,0.21493046,37.2386,38.232577)">
      <g
         style="fill:#476779;fill-opacity:1"
         id="g335906">
        <g
           id="g335904"
           style="fill:#476779;fill-opacity:1">
          <path
             id="path335902"
             transform="translate(148.712,134.765)"
             d="m 5.46875,0 v -6.890625 h -0.75 v 5.5625 l -3.328125,-5.5625 H 0.6875 V 0 H 1.421875 V -5.546875 L 4.71875,0 Z m 0,0"
             style="fill:#476779;fill-opacity:1;stroke:none;stroke-width:0"
             inkscape:connector-curvature="0" />
        </g>
      </g>
    </g>
    <g
       id="g335916"
       style="fill:#476779;fill-opacity:1"
       ns1:jacobian_sqrt="0.265418"
       inkscapeversion="0.92.3"
       ns1:alignment="middle center"
       ns1:scale="0.752363112524"
       ns1:preamble="C:\\Users\\drsjd\\AppData\\Roaming\\inkscape\\extensions\\textext\\default_packages_simon.tex"
       ns1:text="N"
       ns1:pdfconverter="pdf2svg"
       ns1:texconverter="pdflatex"
       ns1:version="0.11.0"
       transform="matrix(0.21493046,0,0,0.21493046,25.913054,31.651057)">
      <g
         style="fill:#476779;fill-opacity:1"
         id="g335914">
        <g
           id="g335912"
           style="fill:#476779;fill-opacity:1">
          <path
             id="path335910"
             transform="translate(148.712,134.765)"
             d="m 5.46875,0 v -6.890625 h -0.75 v 5.5625 l -3.328125,-5.5625 H 0.6875 V 0 H 1.421875 V -5.546875 L 4.71875,0 Z m 0,0"
             style="fill:#476779;fill-opacity:1;stroke:none;stroke-width:0"
             inkscape:connector-curvature="0" />
        </g>
      </g>
    </g>
    <g
       id="g339116"
       style="fill:#476779;fill-opacity:1"
       ns1:jacobian_sqrt="0.21493"
       inkscapeversion="0.92.3"
       ns1:alignment="middle center"
       ns1:scale="0.609249372167"
       ns1:preamble="C:\\Users\\drsjd\\AppData\\Roaming\\inkscape\\extensions\\textext\\default_packages_simon.tex"
       ns1:text="H"
       ns1:pdfconverter="pdf2svg"
       ns1:texconverter="pdflatex"
       ns1:version="0.11.0"
       transform="matrix(0.21493,0,0,0.21493,37.201904,39.936477)">
      <g
         style="fill:#476779;fill-opacity:1"
         id="g339114">
        <g
           id="g339112"
           style="fill:#476779;fill-opacity:1">
          <path
             id="path339110"
             transform="translate(148.712,134.765)"
             d="M 5.5,0 V -6.890625 H 4.75 V -4.03125 H 1.4375 v -2.859375 h -0.75 V 0 h 0.75 V -3.3125 H 4.75 V 0 Z m 0,0"
             style="fill:#476779;fill-opacity:1;stroke:none;stroke-width:0"
             inkscape:connector-curvature="0" />
        </g>
      </g>
    </g>
    <g
       transform="matrix(0.21493,0,0,0.21493,33.517971,25.452867)"
       ns1:version="0.11.0"
       ns1:texconverter="pdflatex"
       ns1:pdfconverter="pdf2svg"
       ns1:text="O"
       ns1:preamble="C:\\Users\\drsjd\\AppData\\Roaming\\inkscape\\extensions\\textext\\default_packages_simon.tex"
       ns1:scale="0.609249373554"
       ns1:alignment="middle center"
       inkscapeversion="0.92.3"
       ns1:jacobian_sqrt="0.21493"
       style="fill:#476779;fill-opacity:1"
       id="g340711">
      <g
         id="g340709"
         style="fill:#476779;fill-opacity:1">
        <g
           style="fill:#476779;fill-opacity:1"
           id="g340707">
          <path
             inkscape:connector-curvature="0"
             style="fill:#476779;fill-opacity:1;stroke:none;stroke-width:0"
             d="m 6.25,-3.421875 c 0,-1.890625 -0.875,-3.59375 -2.9375,-3.59375 -2.015625,0 -2.90625,1.75 -2.90625,3.59375 0,1.84375 0.90625,3.5625 2.90625,3.5625 2.046875,0 2.9375,-1.671875 2.9375,-3.5625 z m -0.734375,0 c 0,1.390625 -0.609375,2.890625 -2.203125,2.890625 -1.5625,0 -2.171875,-1.515625 -2.171875,-2.890625 0,-1.421875 0.578125,-2.921875 2.171875,-2.921875 1.625,0 2.203125,1.484375 2.203125,2.921875 z m 0,0"
             transform="translate(148.712,134.765)"
             id="path340705" />
        </g>
      </g>
    </g>
    <path
       id="path347054"
       d="m 84.805914,51.309647 h 0.179295 v -4.49868 h 0.684582 v -0.17929 h -0.863877 z m 0,0"
       style="fill:#000000;fill-opacity:1;stroke:none;stroke-width:0"
       inkscape:connector-curvature="0" />
    <path
       id="path347058"
       d="m 84.805914,52.866977 h 0.179295 v -1.56475 h -0.179295 z m 0,0"
       style="fill:#000000;fill-opacity:1;stroke:none;stroke-width:0"
       inkscape:connector-curvature="0" />
    <path
       id="path347062"
       d="m 84.805914,54.425997 h 0.179295 v -1.56475 h -0.179295 z m 0,0"
       style="fill:#000000;fill-opacity:1;stroke:none;stroke-width:0"
       inkscape:connector-curvature="0" />
    <path
       id="path347066"
       d="m 84.805914,55.985017 h 0.179295 v -1.56475 h -0.179295 z m 0,0"
       style="fill:#000000;fill-opacity:1;stroke:none;stroke-width:0"
       inkscape:connector-curvature="0" />
    <path
       id="path347070"
       d="m 84.805914,57.543777 h 0.179295 v -1.56475 h -0.179295 z m 0,0"
       style="fill:#000000;fill-opacity:1;stroke:none;stroke-width:0"
       inkscape:connector-curvature="0" />
    <path
       id="path347074"
       d="m 84.805914,59.102797 h 0.179295 v -1.56475 h -0.179295 z m 0,0"
       style="fill:#000000;fill-opacity:1;stroke:none;stroke-width:0"
       inkscape:connector-curvature="0" />
    <path
       id="path347078"
       d="m 84.805914,60.661557 h 0.179295 v -1.56475 h -0.179295 z m 0,0"
       style="fill:#000000;fill-opacity:1;stroke:none;stroke-width:0"
       inkscape:connector-curvature="0" />
    <path
       id="path347082"
       d="m 84.805914,62.220581 h 0.179295 v -1.564754 h -0.179295 z m 0,0"
       style="fill:#000000;fill-opacity:1;stroke:none;stroke-width:0"
       inkscape:connector-curvature="0" />
    <path
       id="path347086"
       d="m 84.805914,63.779601 h 0.179295 v -1.56475 h -0.179295 z m 0,0"
       style="fill:#000000;fill-opacity:1;stroke:none;stroke-width:0"
       inkscape:connector-curvature="0" />
    <path
       id="path347090"
       d="m 84.805914,65.338361 h 0.179295 v -1.56475 h -0.179295 z m 0,0"
       style="fill:#000000;fill-opacity:1;stroke:none;stroke-width:0"
       inkscape:connector-curvature="0" />
    <path
       id="path347094"
       d="m 84.805914,66.897381 h 0.179295 v -1.56475 h -0.179295 z m 0,0"
       style="fill:#000000;fill-opacity:1;stroke:none;stroke-width:0"
       inkscape:connector-curvature="0" />
    <path
       id="path347098"
       d="m 84.805914,68.456401 h 0.179295 v -1.56475 h -0.179295 z m 0,0"
       style="fill:#000000;fill-opacity:1;stroke:none;stroke-width:0"
       inkscape:connector-curvature="0" />
    <path
       id="path347102"
       d="m 84.805914,70.015161 h 0.179295 v -1.56475 h -0.179295 z m 0,0"
       style="fill:#000000;fill-opacity:1;stroke:none;stroke-width:0"
       inkscape:connector-curvature="0" />
    <path
       id="path347106"
       d="m 84.805914,74.689331 h 0.863877 v -0.1793 h -0.684582 v -4.49868 h -0.179295 z m 0,0"
       style="fill:#000000;fill-opacity:1;stroke:none;stroke-width:0"
       inkscape:connector-curvature="0" />
    <path
       id="path347110"
       d="m 87.105977,47.005287 c 0,-0.0652 0,-0.0693 -0.06112,-0.0693 -0.162996,0.16707 -0.391189,0.16707 -0.472687,0.16707 v 0.0815 c 0.05297,0 0.203744,0 0.338216,-0.0693 v 1.34879 c 0,0.0937 -0.0082,0.12224 -0.240419,0.12224 h -0.0815 v 0.0815 c 0.08965,-0.008 0.313767,-0.008 0.419714,-0.008 0.101872,0 0.330066,0 0.419714,0.008 v -0.0815 h -0.0815 c -0.236344,0 -0.240419,-0.0285 -0.240419,-0.12224 z m 0,0"
       style="fill:#d18362;fill-opacity:1;stroke:none;stroke-width:0"
       inkscape:connector-curvature="0" />
    <path
       id="path347114"
       d="m 87.533841,50.954617 c 0,-0.20782 -0.01223,-0.41564 -0.101872,-0.60716 -0.118172,-0.25264 -0.334141,-0.29339 -0.440089,-0.29339 -0.15892,0 -0.346365,0.0693 -0.456387,0.30969 -0.0815,0.1793 -0.09372,0.38304 -0.09372,0.59086 0,0.1956 0.0082,0.42787 0.118172,0.62754 0.110022,0.20781 0.301542,0.26079 0.427864,0.26079 0.138546,0 0.338216,-0.053 0.452312,-0.30154 0.0815,-0.1793 0.09372,-0.38304 0.09372,-0.58679 z m -0.546035,0.83128 c -0.101873,0 -0.256719,-0.0652 -0.301542,-0.31377 -0.02853,-0.15484 -0.02853,-0.39526 -0.02853,-0.55011 0,-0.16707 0,-0.33821 0.02038,-0.47676 0.0489,-0.30969 0.244493,-0.33414 0.309692,-0.33414 0.08557,0 0.256718,0.0489 0.305616,0.30562 0.02853,0.14669 0.02853,0.34229 0.02853,0.50528 0,0.1956 0,0.37082 -0.02853,0.53789 -0.04075,0.24857 -0.187445,0.32599 -0.305616,0.32599 z m 0,0"
       style="fill:#d18362;fill-opacity:1;stroke:none;stroke-width:0"
       inkscape:connector-curvature="0" />
    <path
       id="path347118"
       d="m 87.105977,53.241117 c 0,-0.0652 0,-0.0693 -0.06112,-0.0693 -0.162996,0.16707 -0.391189,0.16707 -0.472687,0.16707 v 0.0815 c 0.05297,0 0.203744,0 0.338216,-0.0693 v 1.34879 c 0,0.0937 -0.0082,0.12224 -0.240419,0.12224 h -0.0815 v 0.0815 c 0.08965,-0.008 0.313767,-0.008 0.419714,-0.008 0.101872,0 0.330066,0 0.419714,0.008 v -0.0815 h -0.0815 c -0.236344,0 -0.240419,-0.0285 -0.240419,-0.12224 z m 0,0"
       style="fill:#d18362;fill-opacity:1;stroke:none;stroke-width:0"
       inkscape:connector-curvature="0" />
    <path
       id="path347122"
       d="m 87.114617,57.645907 v -0.26487 h -0.248569 v 0.26487 z m 0,0"
       style="fill:#d18362;fill-opacity:1;stroke:none;stroke-width:0"
       inkscape:connector-curvature="0" />
    <path
       id="path347126"
       d="m 87.114617,58.685167 v -0.26487 h -0.248569 v 0.26487 z m 0,0"
       style="fill:#d18362;fill-opacity:1;stroke:none;stroke-width:0"
       inkscape:connector-curvature="0" />
    <path
       id="path347130"
       d="m 87.114617,59.724427 v -0.26487 h -0.248569 v 0.26487 z m 0,0"
       style="fill:#d18362;fill-opacity:1;stroke:none;stroke-width:0"
       inkscape:connector-curvature="0" />
    <path
       id="path347134"
       d="m 86.456603,61.179917 c 0,-0.0652 0,-0.0693 -0.06112,-0.0693 -0.162996,0.16707 -0.391189,0.16707 -0.472687,0.16707 v 0.0815 c 0.05297,0 0.203744,0 0.338216,-0.0693 v 1.348794 c 0,0.0937 -0.0082,0.12224 -0.240419,0.12224 h -0.0815 v 0.0815 c 0.08965,-0.008 0.313767,-0.008 0.419714,-0.008 0.101872,0 0.330066,0 0.419714,0.008 v -0.0815 h -0.0815 c -0.236344,0 -0.240419,-0.0285 -0.240419,-0.12224 z m 0,0"
       style="fill:#476779;fill-opacity:1;stroke:none;stroke-width:0"
       inkscape:connector-curvature="0" />
    <path
       id="path347136"
       d="m 88.228379,61.257347 c 0.02037,-0.0285 0.02037,-0.0326 0.02037,-0.0897 h -0.631608 c -0.313766,0 -0.321916,-0.0326 -0.330066,-0.0815 h -0.0652 l -0.08557,0.533814 h 0.0652 c 0.0082,-0.0408 0.02853,-0.203744 0.0652,-0.236344 0.0163,-0.0163 0.220044,-0.0163 0.252643,-0.0163 h 0.537885 c -0.02852,0.0408 -0.232268,0.325994 -0.289317,0.411564 -0.236344,0.35044 -0.321916,0.71311 -0.321916,0.97798 0,0.0245 0,0.14262 0.122246,0.14262 0.118172,0 0.118172,-0.11817 0.118172,-0.14262 v -0.13447 c 0,-0.14263 0.0082,-0.28525 0.02853,-0.42379 0.01222,-0.0611 0.04482,-0.28525 0.162995,-0.44417 z m 0,0"
       style="fill:#476779;fill-opacity:1;stroke:none;stroke-width:0"
       inkscape:connector-curvature="0" />
    <path
       id="path347140"
       d="m 87.105977,64.297701 c 0,-0.0652 0,-0.0693 -0.06112,-0.0693 -0.162996,0.16707 -0.391189,0.16707 -0.472687,0.16707 v 0.0815 c 0.05297,0 0.203744,0 0.338216,-0.0693 v 1.34879 c 0,0.0937 -0.0082,0.12224 -0.240419,0.12224 h -0.0815 v 0.0815 c 0.08965,-0.008 0.313767,-0.008 0.419714,-0.008 0.101872,0 0.330066,0 0.419714,0.008 v -0.0815 h -0.0815 c -0.236344,0 -0.240419,-0.0285 -0.240419,-0.12224 z m 0,0"
       style="fill:#476779;fill-opacity:1;stroke:none;stroke-width:0"
       inkscape:connector-curvature="0" />
    <path
       id="path347144"
       d="m 87.105977,67.415481 c 0,-0.0652 0,-0.0693 -0.06112,-0.0693 -0.162996,0.16707 -0.391189,0.16707 -0.472687,0.16707 v 0.0815 c 0.05297,0 0.203744,0 0.338216,-0.0693 v 1.34879 c 0,0.0937 -0.0082,0.12224 -0.240419,0.12224 h -0.0815 v 0.0815 c 0.08965,-0.008 0.313767,-0.008 0.419714,-0.008 0.101872,0 0.330066,0 0.419714,0.008 v -0.0815 h -0.0815 c -0.236344,0 -0.240419,-0.0285 -0.240419,-0.12224 z m 0,0"
       style="fill:#476779;fill-opacity:1;stroke:none;stroke-width:0"
       inkscape:connector-curvature="0" />
    <path
       id="path347148"
       d="m 87.114617,71.820541 v -0.26487 h -0.248569 v 0.26487 z m 0,0"
       style="fill:#476779;fill-opacity:1;stroke:none;stroke-width:0"
       inkscape:connector-curvature="0" />
    <path
       id="path347152"
       d="m 87.114617,72.859801 v -0.26487 h -0.248569 v 0.26487 z m 0,0"
       style="fill:#476779;fill-opacity:1;stroke:none;stroke-width:0"
       inkscape:connector-curvature="0" />
    <path
       id="path347156"
       d="m 87.114617,73.899061 v -0.26487 h -0.248569 v 0.26487 z m 0,0"
       style="fill:#476779;fill-opacity:1;stroke:none;stroke-width:0"
       inkscape:connector-curvature="0" />
    <path
       id="path347160"
       d="m 88.9935,51.309647 h 0.179295 v -4.67797 h -0.867951 v 0.17929 H 88.9935 Z m 0,0"
       style="fill:#000000;fill-opacity:1;stroke:none;stroke-width:0"
       inkscape:connector-curvature="0" />
    <path
       id="path347164"
       d="m 88.9935,52.866977 h 0.179295 v -1.56475 H 88.9935 Z m 0,0"
       style="fill:#000000;fill-opacity:1;stroke:none;stroke-width:0"
       inkscape:connector-curvature="0" />
    <path
       id="path347168"
       d="m 88.9935,54.425997 h 0.179295 v -1.56475 H 88.9935 Z m 0,0"
       style="fill:#000000;fill-opacity:1;stroke:none;stroke-width:0"
       inkscape:connector-curvature="0" />
    <path
       id="path347172"
       d="m 88.9935,55.985017 h 0.179295 v -1.56475 H 88.9935 Z m 0,0"
       style="fill:#000000;fill-opacity:1;stroke:none;stroke-width:0"
       inkscape:connector-curvature="0" />
    <path
       id="path347176"
       d="m 88.9935,57.543777 h 0.179295 v -1.56475 H 88.9935 Z m 0,0"
       style="fill:#000000;fill-opacity:1;stroke:none;stroke-width:0"
       inkscape:connector-curvature="0" />
    <path
       id="path347180"
       d="m 88.9935,59.102797 h 0.179295 v -1.56475 H 88.9935 Z m 0,0"
       style="fill:#000000;fill-opacity:1;stroke:none;stroke-width:0"
       inkscape:connector-curvature="0" />
    <path
       id="path347184"
       d="m 88.9935,60.661557 h 0.179295 v -1.56475 H 88.9935 Z m 0,0"
       style="fill:#000000;fill-opacity:1;stroke:none;stroke-width:0"
       inkscape:connector-curvature="0" />
    <path
       id="path347188"
       d="m 88.9935,62.220581 h 0.179295 V 60.655827 H 88.9935 Z m 0,0"
       style="fill:#000000;fill-opacity:1;stroke:none;stroke-width:0"
       inkscape:connector-curvature="0" />
    <path
       id="path347192"
       d="m 88.9935,63.779601 h 0.179295 v -1.56475 H 88.9935 Z m 0,0"
       style="fill:#000000;fill-opacity:1;stroke:none;stroke-width:0"
       inkscape:connector-curvature="0" />
    <path
       id="path347196"
       d="m 88.9935,65.338361 h 0.179295 v -1.56475 H 88.9935 Z m 0,0"
       style="fill:#000000;fill-opacity:1;stroke:none;stroke-width:0"
       inkscape:connector-curvature="0" />
    <path
       id="path347200"
       d="m 88.9935,66.897381 h 0.179295 v -1.56475 H 88.9935 Z m 0,0"
       style="fill:#000000;fill-opacity:1;stroke:none;stroke-width:0"
       inkscape:connector-curvature="0" />
    <path
       id="path347204"
       d="m 88.9935,68.456401 h 0.179295 v -1.56475 H 88.9935 Z m 0,0"
       style="fill:#000000;fill-opacity:1;stroke:none;stroke-width:0"
       inkscape:connector-curvature="0" />
    <path
       id="path347208"
       d="m 88.9935,70.015161 h 0.179295 v -1.56475 H 88.9935 Z m 0,0"
       style="fill:#000000;fill-opacity:1;stroke:none;stroke-width:0"
       inkscape:connector-curvature="0" />
    <path
       id="path347212"
       d="m 88.9935,74.510031 h -0.688656 v 0.1793 h 0.867951 v -4.67798 H 88.9935 Z m 0,0"
       style="fill:#000000;fill-opacity:1;stroke:none;stroke-width:0"
       inkscape:connector-curvature="0" />
    <path
       inkscape:connector-curvature="0"
       id="path360868"
       d="m 152.11075,54.715727 v -0.20612 h -1.04406 v 1.97609 h 0.21957 v -0.95444 h 0.74383 v -0.20612 h -0.74383 v -0.60941 z m 0,0"
       style="fill:#000000;fill-opacity:1;stroke:none;stroke-width:0" />
    <path
       inkscape:connector-curvature="0"
       id="path360872"
       d="m 152.98647,55.455077 0.0672,-0.20612 c -0.0314,-0.0358 -0.17028,-0.0717 -0.26438,-0.0717 -0.13443,0.004 -0.24645,0.0717 -0.3047,0.19268 v -0.17476 h -0.21509 v 1.29051 h 0.21509 v -0.6811 c 0,-0.004 0,-0.009 0,-0.009 0,-0.1882 0.0986,-0.43466 0.30022,-0.43466 h 0.0134 c 0.0672,0 0.12099,0.0403 0.1882,0.0941 z m 0,0"
       style="fill:#000000;fill-opacity:1;stroke:none;stroke-width:0" />
    <path
       inkscape:connector-curvature="0"
       id="path360876"
       d="m 154.30772,55.840437 v -0.0224 c 0,-0.37192 -0.15235,-0.64525 -0.57804,-0.65422 -0.38088,0 -0.59596,0.33159 -0.59596,0.69007 0,0.38984 0.23749,0.66766 0.63181,0.66766 0.17924,0 0.34055,-0.0403 0.49738,-0.0986 v -0.21509 c -0.20612,0.0986 -0.23749,0.12099 -0.47946,0.12099 -0.26885,0 -0.43017,-0.16132 -0.43017,-0.46602 v -0.0224 z m -0.2106,-0.17475 h -0.73488 c 0.0269,-0.17028 0.15236,-0.31815 0.36744,-0.31815 0.22405,0 0.36744,0.13891 0.36744,0.31815 z m 0,0"
       style="fill:#000000;fill-opacity:1;stroke:none;stroke-width:0" />
    <path
       inkscape:connector-curvature="0"
       id="path360878"
       d="m 155.72483,55.840437 v -0.0224 c 0,-0.37192 -0.15235,-0.64525 -0.57804,-0.65422 -0.38088,0 -0.59596,0.33159 -0.59596,0.69007 0,0.38984 0.23749,0.66766 0.63181,0.66766 0.17924,0 0.34055,-0.0403 0.49738,-0.0986 v -0.21509 c -0.20612,0.0986 -0.23749,0.12099 -0.47946,0.12099 -0.26885,0 -0.43017,-0.16132 -0.43017,-0.46602 v -0.0224 z m -0.2106,-0.17475 h -0.73488 c 0.0269,-0.17028 0.15236,-0.31815 0.36744,-0.31815 0.22405,0 0.36744,0.13891 0.36744,0.31815 z m 0,0"
       style="fill:#000000;fill-opacity:1;stroke:none;stroke-width:0" />
    <path
       inkscape:connector-curvature="0"
       id="path360880"
       d="m 157.01199,56.485697 v -0.1882 h -0.82002 l 0.82002,-0.88723 v -0.21508 h -1.04406 v 0.1882 h 0.79312 l -0.82001,0.88722 v 0.21509 z m 0,0"
       style="fill:#000000;fill-opacity:1;stroke:none;stroke-width:0" />
    <path
       inkscape:connector-curvature="0"
       id="path360882"
       d="m 157.53592,56.485697 v -1.29051 h -0.21509 v 1.29051 z m -0.10755,-1.97609 c -0.0672,0 -0.12546,0.0627 -0.12546,0.12994 0,0.0717 0.0583,0.13443 0.12546,0.13443 0.0717,0 0.12547,-0.0627 0.12547,-0.13443 0,-0.0672 -0.0538,-0.12994 -0.12547,-0.12994 z m 0,0"
       style="fill:#000000;fill-opacity:1;stroke:none;stroke-width:0" />
    <path
       inkscape:connector-curvature="0"
       id="path360884"
       d="m 159.04065,56.485697 v -0.77968 c 0,-0.30471 -0.12994,-0.5422 -0.46153,-0.5422 -0.1658,0 -0.33607,0.0627 -0.43913,0.20613 v -0.17476 h -0.21061 v 1.29051 h 0.21061 v -0.73039 c 0.009,-0.24645 0.16131,-0.40329 0.38984,-0.40329 0.22404,0 0.3047,0.13443 0.3047,0.36296 v 0.77072 z m 0,0"
       style="fill:#000000;fill-opacity:1;stroke:none;stroke-width:0" />
    <path
       inkscape:connector-curvature="0"
       id="path360886"
       d="m 159.80776,56.454327 c 0.24197,0 0.40777,0.11651 0.40777,0.27334 0,0.15683 -0.1658,0.26886 -0.40777,0.26886 -0.24197,0 -0.3764,-0.11203 -0.3764,-0.26886 0,-0.15683 0.13443,-0.27334 0.3764,-0.27334 z m 0,-0.18372 c -0.0224,0 -0.0448,0 -0.0717,0.004 -0.13443,0 -0.25093,-0.0807 -0.25093,-0.13443 0,-0.0627 0.0717,-0.0851 0.12546,-0.0851 h 0.0179 c 0.0448,0.0403 0.17923,0.0538 0.21956,0.0538 0.24645,0 0.44361,-0.2106 0.44361,-0.4705 0,-0.10306 -0.0358,-0.20164 -0.0941,-0.27782 h 0.21061 v -0.16131 h -0.36296 c -0.0583,-0.0179 -0.13891,-0.0269 -0.18372,-0.0269 -0.24645,0 -0.45257,0.2106 -0.46153,0.46601 0,0.12547 0.0448,0.23749 0.12546,0.31815 -0.0941,0.0179 -0.19716,0.0807 -0.19716,0.20164 0,0.0762 0.0493,0.14787 0.15235,0.19268 -0.16579,0.0851 -0.26437,0.22405 -0.26437,0.37192 0,0.23301 0.23749,0.44809 0.59148,0.44809 0.35848,0 0.64974,-0.21508 0.64974,-0.44361 0,-0.30022 -0.34951,-0.45706 -0.64974,-0.45706 z m 0.0403,-0.91859 c 0.15235,0 0.27782,0.12547 0.27782,0.2823 0,0.15235 -0.12547,0.27782 -0.27782,0.27782 -0.15683,0 -0.27782,-0.12547 -0.27782,-0.27782 0,-0.15683 0.12099,-0.2823 0.27782,-0.2823 z m 0,0"
       style="fill:#000000;fill-opacity:1;stroke:none;stroke-width:0" />
    <path
       inkscape:connector-curvature="0"
       id="path360890"
       d="m 162.7837,55.840437 c 0,-0.37639 -0.25093,-0.64525 -0.63181,-0.64525 h -0.55116 v 1.98057 h 0.21509 v -0.69006 h 0.31814 c 0.41673,0 0.64974,-0.25989 0.64974,-0.64526 z m -0.20612,0 c 0,0.25542 -0.16132,0.45706 -0.44362,0.45706 h -0.31814 v -0.91411 h 0.31814 c 0.27782,0 0.44362,0.18372 0.44362,0.45705 z m 0,0"
       style="fill:#000000;fill-opacity:1;stroke:none;stroke-width:0" />
    <path
       inkscape:connector-curvature="0"
       id="path360892"
       d="m 164.25924,55.840437 c 0,-0.3271 -0.17476,-0.67662 -0.60493,-0.67662 -0.38984,0 -0.6094,0.30023 -0.6094,0.67662 0,0.354 0.22852,0.67215 0.6094,0.68111 0.38537,-0.009 0.60493,-0.31815 0.60493,-0.68111 z m -0.2106,0 c 0,0.25542 -0.15684,0.48395 -0.39433,0.48395 -0.32262,-0.004 -0.39432,-0.29126 -0.39432,-0.48843 0,-0.25989 0.12547,-0.47498 0.39432,-0.47946 0.25094,0.004 0.39433,0.23749 0.39433,0.48394 z m 0,0"
       style="fill:#000000;fill-opacity:1;stroke:none;stroke-width:0" />
    <path
       inkscape:connector-curvature="0"
       id="path360894"
       d="m 164.81003,56.485697 v -1.29051 h -0.21509 v 1.29051 z m -0.10755,-1.97609 c -0.0672,0 -0.12546,0.0627 -0.12546,0.12994 0,0.0717 0.0582,0.13443 0.12546,0.13443 0.0717,0 0.12547,-0.0627 0.12547,-0.13443 0,-0.0672 -0.0538,-0.12994 -0.12547,-0.12994 z m 0,0"
       style="fill:#000000;fill-opacity:1;stroke:none;stroke-width:0" />
    <path
       inkscape:connector-curvature="0"
       id="path360896"
       d="m 166.31477,56.485697 v -0.77968 c 0,-0.30471 -0.12994,-0.5422 -0.46153,-0.5422 -0.1658,0 -0.33607,0.0627 -0.43913,0.20613 v -0.17476 h -0.21061 v 1.29051 h 0.21061 v -0.73039 c 0.009,-0.24645 0.16131,-0.40329 0.38984,-0.40329 0.22404,0 0.3047,0.13443 0.3047,0.36296 v 0.77072 z m 0,0"
       style="fill:#000000;fill-opacity:1;stroke:none;stroke-width:0" />
    <path
       inkscape:connector-curvature="0"
       id="path360898"
       d="m 167.41346,56.485697 v -0.18372 h -0.22404 c -0.20165,0 -0.23749,-0.0493 -0.23749,-0.23749 v -0.69902 h 0.38088 v -0.17028 h -0.38088 v -0.36744 h -0.0896 l -0.12099,0.36744 h -0.15235 v 0.17028 h 0.15235 v 0.69902 c 0,0.32263 0.12995,0.42121 0.4481,0.42121 z m 0,0"
       style="fill:#000000;fill-opacity:1;stroke:none;stroke-width:0" />
    <path
       inkscape:connector-curvature="0"
       id="path360902"
       d="m 154.82925,59.914147 v -1.29051 h -0.21509 v 1.29051 z m -0.10755,-1.97609 c -0.0672,0 -0.12546,0.0627 -0.12546,0.12994 0,0.0717 0.0583,0.13443 0.12546,0.13443 0.0717,0 0.12547,-0.0627 0.12547,-0.13443 0,-0.0672 -0.0538,-0.12994 -0.12547,-0.12994 z m 0,0"
       style="fill:#000000;fill-opacity:1;stroke:none;stroke-width:0" />
    <path
       inkscape:connector-curvature="0"
       id="path360904"
       d="m 156.1682,59.555667 c 0,-0.25541 -0.17476,-0.33607 -0.40777,-0.38087 l -0.0896,-0.0179 c -0.12546,-0.0269 -0.30918,-0.0538 -0.30918,-0.19268 0.009,-0.16131 0.19716,-0.19268 0.34055,-0.19268 0.22853,0.009 0.21061,0.0224 0.40329,0.10306 v -0.2106 c -0.12099,-0.0493 -0.27334,-0.0717 -0.43017,-0.0717 -0.25542,0 -0.50635,0.0941 -0.50635,0.38088 0.004,0.23301 0.16131,0.32263 0.3764,0.36296 l 0.0807,0.0179 c 0.15683,0.0358 0.33607,0.0538 0.33607,0.21957 -0.009,0.16131 -0.19268,0.19268 -0.33607,0.19268 -0.23749,-0.004 -0.27334,-0.0314 -0.47946,-0.12995 v 0.23301 c 0.12098,0.0314 0.33158,0.0807 0.47497,0.0807 0.25094,0 0.54668,-0.0941 0.54668,-0.39433 z m 0,0"
       style="fill:#000000;fill-opacity:1;stroke:none;stroke-width:0" />
    <path
       inkscape:connector-curvature="0"
       id="path360908"
       d="m 157.98955,59.362987 v -0.18819 h -0.64974 v 0.18819 z m 0,0"
       style="fill:#476779;fill-opacity:1;stroke:none;stroke-width:0" />
    <path
       inkscape:connector-curvature="0"
       id="path360910"
       d="m 158.79327,59.914147 v -1.97609 h -0.23749 l -0.2823,0.22852 v 0.22405 l 0.29574,-0.24197 v 1.76549 z m 0,0"
       style="fill:#476779;fill-opacity:1;stroke:none;stroke-width:0" />
    <path
       inkscape:connector-curvature="0"
       id="path360912"
       d="m 160.2846,59.914147 v -0.20612 h -0.88722 l 0.67662,-0.76176 c 0.11202,-0.15684 0.19716,-0.27782 0.19716,-0.48394 0,-0.36744 -0.26886,-0.56012 -0.60941,-0.56012 -0.19268,0 -0.35399,0.0582 -0.5153,0.12547 v 0.25541 c 0.16131,-0.10306 0.32262,-0.17924 0.51978,-0.17924 0.22405,0 0.39881,0.13891 0.39881,0.37192 0,0.15683 -0.12547,0.34951 -0.22853,0.45705 -0.0314,0.0448 -0.65422,0.72592 -0.70351,0.77521 v 0.20612 z m 0,0"
       style="fill:#476779;fill-opacity:1;stroke:none;stroke-width:0" />
    <path
       inkscape:connector-curvature="0"
       id="path360914"
       d="m 160.88736,59.914147 v -0.29126 h -0.27334 v 0.29126 z m 0,0"
       style="fill:#476779;fill-opacity:1;stroke:none;stroke-width:0" />
    <path
       inkscape:connector-curvature="0"
       id="path360916"
       d="m 162.45821,58.825277 v -0.0314 c 0,-0.58701 -0.16132,-0.89171 -0.65422,-0.89171 -0.33607,0.004 -0.60044,0.25541 -0.60044,0.63181 0,0.3764 0.19268,0.66318 0.587,0.66318 0.18372,-0.004 0.31366,-0.0358 0.44809,-0.19268 -0.009,0.5646 -0.46602,0.74832 -0.79761,0.76624 l -0.009,0.17924 c 0.48394,0 1.02614,-0.25542 1.02614,-1.12472 z m -0.22853,-0.29126 c -0.004,0.26886 -0.14787,0.47946 -0.42569,0.47946 -0.26886,0 -0.39432,-0.21508 -0.39432,-0.47946 0,-0.26437 0.12546,-0.44361 0.39432,-0.44361 0.26886,0 0.42569,0.17027 0.42569,0.44361 z m 0,0"
       style="fill:#476779;fill-opacity:1;stroke:none;stroke-width:0" />
    <path
       inkscape:connector-curvature="0"
       id="path360920"
       d="m 163.63217,58.379777 c 0,-0.24197 -0.19268,-0.43017 -0.43017,-0.43017 -0.23749,0 -0.43017,0.19268 -0.43017,0.42568 0,0.24198 0.19716,0.43017 0.43017,0.43017 0.24197,0 0.43017,-0.19268 0.43017,-0.42568 z m -0.43017,0.3271 c -0.1882,0 -0.33159,-0.15235 -0.33159,-0.3271 0,-0.1882 0.14787,-0.33607 0.33159,-0.33607 0.1882,0 0.33159,0.15235 0.33159,0.33158 0,0.1882 -0.14787,0.33159 -0.33159,0.33159 z m 0,0"
       style="fill:#000000;fill-opacity:1;stroke:none;stroke-width:0" />
    <path
       inkscape:connector-curvature="0"
       id="path360924"
       d="m 153.34842,62.791451 c 0,-0.233 -0.12099,-0.43465 -0.33607,-0.50186 v -0.0269 c 0.18372,-0.0448 0.25989,-0.21956 0.25989,-0.41672 -0.0134,-0.358484 -0.25989,-0.479464 -0.57804,-0.479464 h -0.63181 v 1.976094 h 0.6587 c 0.37192,0 0.62733,-0.15683 0.62733,-0.55116 z m -0.27334,-0.91411 c -0.004,0.21957 -0.17475,0.31815 -0.3988,0.31815 h -0.39432 v -0.63181 h 0.39432 c 0.21957,0.004 0.3988,0.0717 0.3988,0.31366 z m 0.0583,0.88275 c 0,0.2823 -0.15684,0.38536 -0.42569,0.38536 H 152.282 v -0.75728 h 0.42569 c 0.26885,0 0.42569,0.0896 0.42569,0.37192 z m 0,0"
       style="fill:#000000;fill-opacity:1;stroke:none;stroke-width:0" />
    <path
       inkscape:connector-curvature="0"
       id="path360926"
       d="m 154.80948,62.697351 c 0,-0.3271 -0.17476,-0.67662 -0.60493,-0.67662 -0.38984,0 -0.6094,0.30023 -0.6094,0.67662 0,0.354 0.22852,0.67215 0.6094,0.68111 0.38537,-0.009 0.60493,-0.31815 0.60493,-0.68111 z m -0.2106,0 c 0,0.25542 -0.15684,0.48395 -0.39433,0.48395 -0.32262,-0.004 -0.39432,-0.29126 -0.39432,-0.48843 0,-0.25989 0.12547,-0.47498 0.39432,-0.47946 0.25094,0.004 0.39433,0.23749 0.39433,0.48394 z m 0,0"
       style="fill:#000000;fill-opacity:1;stroke:none;stroke-width:0" />
    <path
       inkscape:connector-curvature="0"
       id="path360928"
       d="m 155.36026,63.342611 v -1.29051 h -0.21509 v 1.29051 z m -0.10755,-1.976094 c -0.0672,0 -0.12546,0.0627 -0.12546,0.12994 0,0.0717 0.0582,0.134434 0.12546,0.134434 0.0717,0 0.12547,-0.0627 0.12547,-0.134434 0,-0.0672 -0.0538,-0.12994 -0.12547,-0.12994 z m 0,0"
       style="fill:#000000;fill-opacity:1;stroke:none;stroke-width:0" />
    <path
       inkscape:connector-curvature="0"
       id="path360930"
       d="m 155.93297,61.366517 h -0.21061 v 1.976094 h 0.21061 z m 0,0"
       style="fill:#000000;fill-opacity:1;stroke:none;stroke-width:0" />
    <path
       inkscape:connector-curvature="0"
       id="path360932"
       d="m 156.54024,63.342611 v -1.29051 h -0.21509 v 1.29051 z m -0.10755,-1.976094 c -0.0672,0 -0.12546,0.0627 -0.12546,0.12994 0,0.0717 0.0582,0.134434 0.12546,0.134434 0.0717,0 0.12547,-0.0627 0.12547,-0.134434 0,-0.0672 -0.0538,-0.12994 -0.12547,-0.12994 z m 0,0"
       style="fill:#000000;fill-opacity:1;stroke:none;stroke-width:0" />
    <path
       inkscape:connector-curvature="0"
       id="path360934"
       d="m 158.04497,63.342611 v -0.77968 c 0,-0.30471 -0.12994,-0.5422 -0.46153,-0.5422 -0.1658,0 -0.33607,0.0627 -0.43913,0.20613 v -0.17476 h -0.21061 v 1.29051 h 0.21061 v -0.73039 c 0.009,-0.24645 0.16131,-0.40329 0.38984,-0.40329 0.22404,0 0.3047,0.13443 0.3047,0.36296 v 0.77072 z m 0,0"
       style="fill:#000000;fill-opacity:1;stroke:none;stroke-width:0" />
    <path
       inkscape:connector-curvature="0"
       id="path360936"
       d="m 158.81208,63.311241 c 0.24197,0 0.40777,0.11651 0.40777,0.27334 0,0.15683 -0.1658,0.26886 -0.40777,0.26886 -0.24197,0 -0.3764,-0.11203 -0.3764,-0.26886 0,-0.15683 0.13443,-0.27334 0.3764,-0.27334 z m 0,-0.18372 c -0.0224,0 -0.0448,0 -0.0717,0.004 -0.13443,0 -0.25093,-0.0807 -0.25093,-0.13443 0,-0.0627 0.0717,-0.0851 0.12546,-0.0851 h 0.0179 c 0.0448,0.0403 0.17923,0.0538 0.21956,0.0538 0.24645,0 0.44361,-0.2106 0.44361,-0.4705 0,-0.10306 -0.0358,-0.20164 -0.0941,-0.27782 h 0.21061 v -0.16131 h -0.36296 c -0.0582,-0.0179 -0.13891,-0.0269 -0.18372,-0.0269 -0.24645,0 -0.45257,0.2106 -0.46153,0.46601 0,0.12547 0.0448,0.23749 0.12546,0.31815 -0.0941,0.0179 -0.19716,0.0807 -0.19716,0.20164 0,0.0762 0.0493,0.14787 0.15235,0.19268 -0.16579,0.0851 -0.26437,0.22405 -0.26437,0.37192 0,0.23301 0.23749,0.44809 0.59148,0.44809 0.35848,0 0.64974,-0.21508 0.64974,-0.44361 0,-0.30022 -0.34951,-0.45706 -0.64974,-0.45706 z m 0.0403,-0.91859 c 0.15235,0 0.27782,0.12547 0.27782,0.2823 0,0.15235 -0.12547,0.27782 -0.27782,0.27782 -0.15683,0 -0.27782,-0.12547 -0.27782,-0.27782 0,-0.15683 0.12099,-0.2823 0.27782,-0.2823 z m 0,0"
       style="fill:#000000;fill-opacity:1;stroke:none;stroke-width:0" />
    <path
       inkscape:connector-curvature="0"
       id="path360940"
       d="m 161.78801,62.697351 c 0,-0.37639 -0.25093,-0.64525 -0.63181,-0.64525 h -0.55116 v 1.98057 h 0.21509 v -0.69006 h 0.31814 c 0.41673,0 0.64974,-0.25989 0.64974,-0.64526 z m -0.20612,0 c 0,0.25542 -0.16132,0.45706 -0.44362,0.45706 h -0.31814 v -0.91411 h 0.31814 c 0.27782,0 0.44362,0.18372 0.44362,0.45705 z m 0,0"
       style="fill:#000000;fill-opacity:1;stroke:none;stroke-width:0" />
    <path
       inkscape:connector-curvature="0"
       id="path360942"
       d="m 163.26356,62.697351 c 0,-0.3271 -0.17476,-0.67662 -0.60493,-0.67662 -0.38984,0 -0.6094,0.30023 -0.6094,0.67662 0,0.354 0.22852,0.67215 0.6094,0.68111 0.38537,-0.009 0.60493,-0.31815 0.60493,-0.68111 z m -0.2106,0 c 0,0.25542 -0.15684,0.48395 -0.39433,0.48395 -0.32262,-0.004 -0.39432,-0.29126 -0.39432,-0.48843 0,-0.25989 0.12547,-0.47498 0.39432,-0.47946 0.25094,0.004 0.39433,0.23749 0.39433,0.48394 z m 0,0"
       style="fill:#000000;fill-opacity:1;stroke:none;stroke-width:0" />
    <path
       inkscape:connector-curvature="0"
       id="path360944"
       d="m 163.81435,63.342611 v -1.29051 h -0.21509 v 1.29051 z m -0.10755,-1.976094 c -0.0672,0 -0.12546,0.0627 -0.12546,0.12994 0,0.0717 0.0582,0.134434 0.12546,0.134434 0.0717,0 0.12547,-0.0627 0.12547,-0.134434 0,-0.0672 -0.0538,-0.12994 -0.12547,-0.12994 z m 0,0"
       style="fill:#000000;fill-opacity:1;stroke:none;stroke-width:0" />
    <path
       inkscape:connector-curvature="0"
       id="path360946"
       d="m 165.31908,63.342611 v -0.77968 c 0,-0.30471 -0.12994,-0.5422 -0.46153,-0.5422 -0.1658,0 -0.33607,0.0627 -0.43913,0.20613 v -0.17476 h -0.21061 v 1.29051 h 0.21061 v -0.73039 c 0.009,-0.24645 0.16131,-0.40329 0.38984,-0.40329 0.22404,0 0.3047,0.13443 0.3047,0.36296 v 0.77072 z m 0,0"
       style="fill:#000000;fill-opacity:1;stroke:none;stroke-width:0" />
    <path
       inkscape:connector-curvature="0"
       id="path360948"
       d="m 166.41778,63.342611 v -0.18372 h -0.22404 c -0.20165,0 -0.23749,-0.0493 -0.23749,-0.23749 v -0.69902 h 0.38088 v -0.17028 h -0.38088 v -0.36744 h -0.0896 l -0.12099,0.36744 h -0.15235 v 0.17028 h 0.15235 v 0.69902 c 0,0.32263 0.12995,0.42121 0.4481,0.42121 z m 0,0"
       style="fill:#000000;fill-opacity:1;stroke:none;stroke-width:0" />
    <path
       inkscape:connector-curvature="0"
       id="path360952"
       d="m 154.19776,66.771061 v -1.29051 h -0.21509 v 1.29051 z m -0.10755,-1.97609 c -0.0672,0 -0.12546,0.0627 -0.12546,0.12994 0,0.0717 0.0582,0.13443 0.12546,0.13443 0.0717,0 0.12547,-0.0627 0.12547,-0.13443 0,-0.0672 -0.0538,-0.12994 -0.12547,-0.12994 z m 0,0"
       style="fill:#000000;fill-opacity:1;stroke:none;stroke-width:0" />
    <path
       inkscape:connector-curvature="0"
       id="path360954"
       d="m 155.53671,66.412581 c 0,-0.25541 -0.17476,-0.33607 -0.40777,-0.38087 l -0.0896,-0.0179 c -0.12546,-0.0269 -0.30918,-0.0538 -0.30918,-0.19268 0.009,-0.16131 0.19716,-0.19268 0.34055,-0.19268 0.22853,0.009 0.21061,0.0224 0.40329,0.10306 v -0.2106 c -0.12099,-0.0493 -0.27334,-0.0717 -0.43017,-0.0717 -0.25542,0 -0.50635,0.0941 -0.50635,0.38088 0.004,0.23301 0.16131,0.32263 0.3764,0.36296 l 0.0807,0.0179 c 0.15683,0.0359 0.33607,0.0538 0.33607,0.21957 -0.009,0.16131 -0.19268,0.19268 -0.33607,0.19268 -0.23749,-0.004 -0.27334,-0.0314 -0.47946,-0.12995 v 0.23301 c 0.12098,0.0314 0.33158,0.0807 0.47497,0.0807 0.25094,0 0.54668,-0.0941 0.54668,-0.39433 z m 0,0"
       style="fill:#000000;fill-opacity:1;stroke:none;stroke-width:0" />
    <path
       inkscape:connector-curvature="0"
       id="path360958"
       d="m 157.79271,66.143731 c -0.004,-0.40329 -0.25542,-0.66766 -0.6587,-0.66766 -0.0538,0.004 -0.17476,0.0179 -0.24645,0.0448 l 0.0717,-0.51979 h 0.69903 v -0.20612 h -0.84242 l -0.12098,0.97684 c 0.15683,-0.0762 0.19268,-0.0941 0.39432,-0.0941 0.29126,0 0.49738,0.16131 0.49738,0.46602 0,0.31366 -0.20164,0.46602 -0.49738,0.46602 -0.19716,0 -0.32711,-0.0403 -0.4705,-0.12995 v 0.24645 c 0.12995,0.0493 0.32263,0.0851 0.47498,0.0851 0.42569,0 0.69903,-0.23301 0.69903,-0.66766 z m 0,0"
       style="fill:#476779;fill-opacity:0.960784;stroke:none;stroke-width:0" />
    <path
       inkscape:connector-curvature="0"
       id="path360960"
       d="m 158.07653,65.888321 v 0.0314 c 0,0.587 0.16132,0.89171 0.65422,0.89171 0.33607,-0.004 0.60045,-0.25542 0.60045,-0.63181 0,-0.3764 -0.19269,-0.66766 -0.58701,-0.66766 -0.18372,0.009 -0.31366,0.0403 -0.44809,0.19716 0.004,-0.55564 0.39432,-0.76624 0.78416,-0.76624 h 0.0134 l 0.004,-0.18372 c -0.48394,0.004 -1.02166,0.25989 -1.02166,1.1292 z m 0.22405,0.29126 c 0.009,-0.27334 0.15235,-0.47946 0.43017,-0.47946 0.26886,0 0.39432,0.21508 0.39432,0.47946 0,0.26437 -0.12546,0.44361 -0.39432,0.44361 -0.26886,0 -0.43017,-0.17028 -0.43017,-0.44361 z m 0,0"
       style="fill:#476779;fill-opacity:0.960784;stroke:none;stroke-width:0" />
    <path
       inkscape:connector-curvature="0"
       id="path360962"
       d="m 159.92159,66.771061 v -0.29126 h -0.27334 v 0.29126 z m 0,0"
       style="fill:#476779;fill-opacity:0.960784;stroke:none;stroke-width:0" />
    <path
       inkscape:connector-curvature="0"
       id="path360964"
       d="m 161.51484,66.300561 v -0.20612 h -0.26885 v -1.29947 h -0.28678 l -0.76624,1.25466 v 0.25093 h 0.83793 v 0.4705 h 0.21509 v -0.4705 z m -0.48394,-0.20612 h -0.67662 l 0.67662,-1.08887 z m 0,0"
       style="fill:#476779;fill-opacity:0.960784;stroke:none;stroke-width:0" />
    <path
       inkscape:connector-curvature="0"
       id="path360968"
       d="m 162.59518,65.236971 c 0,-0.24197 -0.19268,-0.43017 -0.43017,-0.43017 -0.23749,0 -0.43017,0.19268 -0.43017,0.42568 0,0.24198 0.19716,0.43017 0.43017,0.43017 0.24197,0 0.43017,-0.19268 0.43017,-0.42568 z m -0.43017,0.3271 c -0.1882,0 -0.33159,-0.15235 -0.33159,-0.3271 0,-0.1882 0.14787,-0.33607 0.33159,-0.33607 0.1882,0 0.33159,0.15235 0.33159,0.33158 0,0.1882 -0.14787,0.33159 -0.33159,0.33159 z m 0,0"
       style="fill:#000000;fill-opacity:1;stroke:none;stroke-width:0" />
    <path
       inkscape:connector-curvature="0"
       id="path360972"
       d="m 164.47323,66.623191 v -0.2599 c -0.15683,0.17476 -0.31815,0.25542 -0.56012,0.25542 -0.4929,0 -0.68558,-0.36296 -0.68558,-0.82898 0.009,-0.46601 0.18372,-0.83793 0.68558,-0.83793 0.24645,0 0.40777,0.0851 0.56012,0.25989 v -0.26885 c -0.16579,-0.11651 -0.35848,-0.18372 -0.57356,-0.18372 -0.60493,0 -0.88274,0.45705 -0.88274,1.03061 0,0.56908 0.28229,1.02166 0.88274,1.02166 0.20164,0 0.42121,-0.0672 0.57356,-0.1882 z m 0,0"
       style="fill:#000000;fill-opacity:1;stroke:none;stroke-width:0" />
    <path
       inkscape:connector-curvature="0"
       style="fill:#000000;fill-opacity:1;stroke:none;stroke-width:0"
       d="m 127.37589,63.553991 h 0.68051 v -0.14262 h -0.53789 v -5.949344 h 0.53789 v -0.1467 h -0.68051 z m 0,0"
       id="path364294" />
    <path
       inkscape:connector-curvature="0"
       style="fill:#476779;fill-opacity:1;stroke:none;stroke-width:0"
       d="m 129.80661,58.901057 c 0.0448,0 0.0937,0 0.0937,-0.053 0,-0.0489 -0.0489,-0.0489 -0.0937,-0.0489 h -1.40583 c -0.0448,0 -0.0897,0 -0.0897,0.0489 0,0.053 0.0448,0.053 0.0897,0.053 z m 0,0"
       id="path364298" />
    <path
       inkscape:connector-curvature="0"
       style="fill:#476779;fill-opacity:1;stroke:none;stroke-width:0"
       d="m 130.88212,57.837507 c 0,-0.0652 0,-0.0693 -0.0611,-0.0693 -0.163,0.16707 -0.39119,0.16707 -0.47269,0.16707 v 0.0815 c 0.053,0 0.20374,0 0.33821,-0.0693 v 1.34879 c 0,0.0937 -0.008,0.12224 -0.24041,0.12224 h -0.0815 v 0.0815 c 0.0896,-0.008 0.31376,-0.008 0.41971,-0.008 0.10187,0 0.33007,0 0.41972,0.008 v -0.0815 h -0.0815 c -0.23635,0 -0.24042,-0.0285 -0.24042,-0.12224 z m 0,0"
       id="path364302" />
    <path
       inkscape:connector-curvature="0"
       style="fill:#476779;fill-opacity:1;stroke:none;stroke-width:0"
       d="m 131.7452,59.300397 0.27709,-0.26894 c 0.40341,-0.35859 0.55826,-0.49714 0.55826,-0.75793 0,-0.29747 -0.23227,-0.50529 -0.55011,-0.50529 -0.29339,0 -0.48491,0.24042 -0.48491,0.47269 0,0.14262 0.13039,0.14262 0.13854,0.14262 0.0448,0 0.13447,-0.0285 0.13447,-0.13855 0,-0.0652 -0.0489,-0.13447 -0.13854,-0.13447 -0.0204,0 -0.0245,0 -0.0326,0.004 0.0571,-0.17115 0.19967,-0.26487 0.35044,-0.26487 0.23634,0 0.34637,0.21189 0.34637,0.42379 0,0.20782 -0.12633,0.41156 -0.27302,0.57456 l -0.49714,0.55418 c -0.0285,0.0285 -0.0285,0.0367 -0.0285,0.0978 h 0.96575 l 0.0693,-0.45231 h -0.0611 c -0.0163,0.0774 -0.0326,0.19152 -0.0611,0.23227 -0.0163,0.0204 -0.18744,0.0204 -0.24449,0.0204 z m 0,0"
       id="path364304" />
    <path
       inkscape:connector-curvature="0"
       style="fill:#476779;fill-opacity:1;stroke:none;stroke-width:0"
       d="m 133.2112,59.361517 c 0,-0.0733 -0.0611,-0.13854 -0.13447,-0.13854 -0.0774,0 -0.13855,0.0652 -0.13855,0.13854 0,0.0774 0.0611,0.13855 0.13855,0.13855 0.0733,0 0.13447,-0.0611 0.13447,-0.13855 z m 0,0"
       id="path364308" />
    <path
       inkscape:connector-curvature="0"
       style="fill:#476779;fill-opacity:1;stroke:none;stroke-width:0"
       d="m 134.38946,58.672867 v 0.0856 c 0,0.60716 -0.26894,0.72533 -0.41971,0.72533 -0.0448,0 -0.18744,-0.004 -0.25672,-0.0937 0.1141,0 0.13447,-0.0734 0.13447,-0.11817 0,-0.0815 -0.0611,-0.11818 -0.11817,-0.11818 -0.0408,0 -0.11817,0.0204 -0.11817,0.12225 0,0.17522 0.13855,0.28117 0.35859,0.28117 0.33822,0 0.65606,-0.35452 0.65606,-0.91278 0,-0.70088 -0.30154,-0.8761 -0.53381,-0.8761 -0.14262,0 -0.26895,0.0489 -0.37897,0.163 -0.11002,0.11817 -0.16707,0.22819 -0.16707,0.42379 0,0.32191 0.2282,0.57863 0.51751,0.57863 0.15892,0 0.26487,-0.11002 0.32599,-0.26079 z m -0.32191,0.19967 c -0.0408,0 -0.163,0 -0.24042,-0.163 -0.0489,-0.0978 -0.0489,-0.22412 -0.0489,-0.35451 0,-0.13855 0,-0.2608 0.0571,-0.35859 0.0693,-0.1304 0.16707,-0.163 0.25672,-0.163 0.12224,0 0.20782,0.0897 0.25264,0.20374 0.0285,0.0856 0.0407,0.24857 0.0407,0.36674 0,0.21597 -0.0896,0.46862 -0.31784,0.46862 z m 0,0"
       id="path364312" />
    <path
       inkscape:connector-curvature="0"
       style="fill:#476779;fill-opacity:1;stroke:none;stroke-width:0"
       d="m 130.27089,62.096261 c 0,-0.30969 -0.2119,-0.570484 -0.49306,-0.570484 -0.12225,0 -0.23635,0.0408 -0.33007,0.134474 v -0.509364 c 0.053,0.0163 0.13855,0.0326 0.22004,0.0326 0.32192,0 0.50529,-0.23635 0.50529,-0.26894 0,-0.0163 -0.008,-0.0285 -0.0285,-0.0285 0,0 -0.008,0 -0.0204,0.008 -0.053,0.0245 -0.17929,0.0774 -0.35451,0.0774 -0.10188,0 -0.22412,-0.0204 -0.34637,-0.0733 -0.0204,-0.008 -0.0244,-0.008 -0.0285,-0.008 -0.0285,0 -0.0285,0.0204 -0.0285,0.0611 v 0.770154 c 0,0.0448 0,0.0652 0.0367,0.0652 0.0204,0 0.0245,-0.004 0.0367,-0.0204 0.0285,-0.0408 0.12225,-0.18337 0.33414,-0.18337 0.13447,0 0.19967,0.11817 0.22005,0.16707 0.0408,0.0978 0.0489,0.19559 0.0489,0.32599 0,0.0937 0,0.24857 -0.0652,0.35859 -0.0611,0.10187 -0.15892,0.16707 -0.2771,0.16707 -0.18744,0 -0.33821,-0.13855 -0.38304,-0.28932 0.008,0 0.0163,0.004 0.0448,0.004 0.0856,0 0.13039,-0.0652 0.13039,-0.12632 0,-0.0652 -0.0448,-0.1304 -0.13039,-0.1304 -0.0367,0 -0.12632,0.0204 -0.12632,0.13855 0,0.22412 0.17929,0.47676 0.46861,0.47676 0.30154,0 0.56641,-0.24857 0.56641,-0.57864 z m 0,0"
       id="path364316" />
    <path
       inkscape:connector-curvature="0"
       style="fill:#476779;fill-opacity:1;stroke:none;stroke-width:0"
       d="m 130.74685,61.766201 v -0.0652 c 0,-0.656064 0.32192,-0.749784 0.45639,-0.749784 0.0611,0 0.17114,0.0163 0.22819,0.10595 -0.0408,0 -0.14262,0 -0.14262,0.11409 0,0.0815 0.0611,0.12225 0.11817,0.12225 0.0408,0 0.12225,-0.0245 0.12225,-0.12632 0,-0.15485 -0.1141,-0.28117 -0.33007,-0.28117 -0.33414,0 -0.68458,0.33414 -0.68458,0.908704 0,0.69681 0.30154,0.88018 0.54196,0.88018 0.28932,0 0.53789,-0.24449 0.53789,-0.58679 0,-0.33006 -0.23227,-0.578634 -0.52159,-0.578634 -0.17522,0 -0.27302,0.130404 -0.32599,0.256724 z m 0.30969,0.83535 c -0.16299,0 -0.24042,-0.15485 -0.25672,-0.19559 -0.0489,-0.12225 -0.0489,-0.33007 -0.0489,-0.37489 0,-0.20375 0.0856,-0.46454 0.31784,-0.46454 0.0448,0 0.16299,0 0.24449,0.16299 0.0448,0.0937 0.0448,0.2282 0.0448,0.35452 0,0.12632 0,0.25672 -0.0448,0.35044 -0.0774,0.15485 -0.19559,0.16707 -0.25672,0.16707 z m 0,0"
       id="path364318" />
    <path
       inkscape:connector-curvature="0"
       style="fill:#476779;fill-opacity:1;stroke:none;stroke-width:0"
       d="m 132.20089,62.479301 c 0,-0.0733 -0.0611,-0.13854 -0.13447,-0.13854 -0.0774,0 -0.13855,0.0652 -0.13855,0.13854 0,0.0774 0.0611,0.13855 0.13855,0.13855 0.0733,0 0.13447,-0.0611 0.13447,-0.13855 z m 0,0"
       id="path364322" />
    <path
       inkscape:connector-curvature="0"
       style="fill:#476779;fill-opacity:1;stroke:none;stroke-width:0"
       d="m 133.19145,62.189991 v 0.22412 c 0,0.0937 -0.008,0.12224 -0.19967,0.12224 h -0.053 v 0.0815 c 0.10594,-0.008 0.24041,-0.008 0.35044,-0.008 0.11002,0 0.24449,0 0.35451,0.008 v -0.0815 h -0.057 c -0.19152,0 -0.19559,-0.0285 -0.19559,-0.12224 v -0.22412 h 0.25672 v -0.0815 h -0.25672 v -1.181724 c 0,-0.053 0,-0.0693 -0.0448,-0.0693 -0.0204,0 -0.0285,0 -0.0489,0.0326 l -0.79868,1.218394 v 0.0815 z m 0.0122,-0.0815 h -0.6316 l 0.6316,-0.969834 z m 0,0"
       id="path364326" />
    <path
       inkscape:connector-curvature="0"
       style="fill:#000000;fill-opacity:1;stroke:none;stroke-width:0"
       d="m 135.31358,63.411371 h -0.54196 v 0.14262 h 0.68459 v -6.238664 h -0.68459 v 0.1467 h 0.54196 z m 0,0"
       id="path364330" />
    <path
       style="fill:#000000;fill-opacity:1;stroke:none;stroke-width:0"
       d="m 165.41817,59.761797 v -0.2599 c -0.15683,0.17476 -0.31815,0.25542 -0.56012,0.25542 -0.4929,0 -0.68558,-0.36296 -0.68558,-0.82898 0.009,-0.46601 0.18372,-0.83793 0.68558,-0.83793 0.24645,0 0.40777,0.0851 0.56012,0.25989 v -0.26885 c -0.16579,-0.11651 -0.35848,-0.18372 -0.57356,-0.18372 -0.60493,0 -0.88274,0.45705 -0.88274,1.03061 0,0.56908 0.28229,1.02166 0.88274,1.02166 0.20164,0 0.42121,-0.0672 0.57356,-0.1882 z m 0,0"
       id="path366157"
       inkscape:connector-curvature="0" />
    <g
       id="g38003"
       style="fill:#773c23;fill-opacity:1"
       ns1:jacobian_sqrt="0.300209"
       inkscapeversion="1.1.2"
       ns1:alignment="middle center"
       ns1:scale="0.850983243967"
       ns1:preamble="C:\\Users\\drsjd\\AppData\\Roaming\\inkscape\\extensions\\textext\\default_packages_simon.tex"
       ns1:text="\\begin{center}\n\\noindent Deep learning\\\\\nmodel\n\\end{center}"
       ns1:pdfconverter="pdf2svg"
       ns1:texconverter="pdflatex"
       ns1:version="0.11.0"
       transform="matrix(0.300209,0,0,0.300209,17.259295,27.027305)">
      <g
         style="fill:#773c23;fill-opacity:1"
         id="g38001">
        <g
           id="g37967"
           style="fill:#773c23;fill-opacity:1">
          <path
             id="path37959"
             transform="translate(277.181,134.765)"
             d="m 5.984375,-3.453125 c 0,-2.46875 -1.15625,-3.4375 -3.546875,-3.4375 h -1.75 V 0 h 1.75 c 2.390625,0 3.546875,-1 3.546875,-3.453125 z m -0.71875,0 c 0,1.875 -0.84375,2.765625 -2.6875,2.765625 H 1.4375 v -5.515625 h 1.140625 c 1.84375,0.015625 2.6875,0.8125 2.6875,2.75 z m 0,0"
             style="fill:#773c23;fill-opacity:1;stroke:none;stroke-width:0"
             inkscape:connector-curvature="0" />
          <path
             id="path37961"
             transform="translate(283.60688,134.765)"
             d="m 4.546875,-2.25 v -0.078125 c 0,-1.296875 -0.53125,-2.25 -2.015625,-2.28125 -1.328125,0 -2.078125,1.15625 -2.078125,2.40625 0,1.359375 0.828125,2.328125 2.203125,2.328125 0.625,0 1.1875,-0.140625 1.734375,-0.34375 v -0.75 C 3.671875,-0.625 3.5625,-0.546875 2.71875,-0.546875 c -0.9375,0 -1.5,-0.5625 -1.5,-1.625 V -2.25 Z M 3.8125,-2.859375 H 1.25 c 0.09375,-0.59375 0.53125,-1.109375 1.28125,-1.109375 0.78125,0 1.28125,0.484375 1.28125,1.109375 z m 0,0"
             style="fill:#773c23;fill-opacity:1;stroke:none;stroke-width:0"
             inkscape:connector-curvature="0" />
          <path
             id="path37963"
             transform="translate(288.54833,134.765)"
             d="m 4.546875,-2.25 v -0.078125 c 0,-1.296875 -0.53125,-2.25 -2.015625,-2.28125 -1.328125,0 -2.078125,1.15625 -2.078125,2.40625 0,1.359375 0.828125,2.328125 2.203125,2.328125 0.625,0 1.1875,-0.140625 1.734375,-0.34375 v -0.75 C 3.671875,-0.625 3.5625,-0.546875 2.71875,-0.546875 c -0.9375,0 -1.5,-0.5625 -1.5,-1.625 V -2.25 Z M 3.8125,-2.859375 H 1.25 c 0.09375,-0.59375 0.53125,-1.109375 1.28125,-1.109375 0.78125,0 1.28125,0.484375 1.28125,1.109375 z m 0,0"
             style="fill:#773c23;fill-opacity:1;stroke:none;stroke-width:0"
             inkscape:connector-curvature="0" />
          <path
             id="path37965"
             transform="translate(293.48978,134.765)"
             d="m 4.8125,-2.25 c 0,-1.3125 -0.875,-2.25 -2.203125,-2.25 H 0.6875 v 6.90625 h 0.75 V 0 H 2.546875 C 4,0 4.8125,-0.90625 4.8125,-2.25 Z m -0.71875,0 c 0,0.890625 -0.5625,1.59375 -1.546875,1.59375 H 1.4375 v -3.1875 h 1.109375 c 0.96875,0 1.546875,0.640625 1.546875,1.59375 z m 0,0"
             style="fill:#773c23;fill-opacity:1;stroke:none;stroke-width:0"
             inkscape:connector-curvature="0" />
        </g>
        <g
           id="g37977"
           style="fill:#773c23;fill-opacity:1">
          <path
             id="path37969"
             transform="translate(301.74877,134.765)"
             d="M 1.3125,-6.890625 H 0.578125 V 0 H 1.3125 Z m 0,0"
             style="fill:#773c23;fill-opacity:1;stroke:none;stroke-width:0"
             inkscape:connector-curvature="0" />
          <path
             id="path37971"
             transform="translate(303.74129,134.765)"
             d="m 4.546875,-2.25 v -0.078125 c 0,-1.296875 -0.53125,-2.25 -2.015625,-2.28125 -1.328125,0 -2.078125,1.15625 -2.078125,2.40625 0,1.359375 0.828125,2.328125 2.203125,2.328125 0.625,0 1.1875,-0.140625 1.734375,-0.34375 v -0.75 C 3.671875,-0.625 3.5625,-0.546875 2.71875,-0.546875 c -0.9375,0 -1.5,-0.5625 -1.5,-1.625 V -2.25 Z M 3.8125,-2.859375 H 1.25 c 0.09375,-0.59375 0.53125,-1.109375 1.28125,-1.109375 0.78125,0 1.28125,0.484375 1.28125,1.109375 z m 0,0"
             style="fill:#773c23;fill-opacity:1;stroke:none;stroke-width:0"
             inkscape:connector-curvature="0" />
          <path
             id="path37973"
             transform="translate(308.68274,134.765)"
             d="m 4.140625,0 v -2.5625 c 0,-1.296875 -0.546875,-2.046875 -1.890625,-2.046875 -0.484375,0 -1.078125,0.15625 -1.515625,0.3125 V -3.5625 C 1.1875,-3.8125 1.5625,-3.96875 2.1875,-3.96875 c 0.71875,0.015625 1.265625,0.375 1.265625,1.125 h -1.03125 c -1.0625,0 -2,0.359375 -2,1.53125 0.03125,0.90625 0.5625,1.4375 1.46875,1.4375 0.640625,0 1.21875,-0.265625 1.5625,-0.71875 V 0 Z m -0.6875,-2.09375 c 0,0.875 -0.40625,1.578125 -1.34375,1.578125 -0.546875,0 -1,-0.25 -1,-0.84375 0,-0.875 0.828125,-0.875 1.609375,-0.875 h 0.734375 z m 0,0"
             style="fill:#773c23;fill-opacity:1;stroke:none;stroke-width:0"
             inkscape:connector-curvature="0" />
          <path
             id="path37975"
             transform="translate(313.45483,134.765)"
             d="M 3.1875,-3.59375 3.421875,-4.3125 C 3.3125,-4.4375 2.828125,-4.5625 2.5,-4.5625 2.03125,-4.546875 1.640625,-4.3125 1.4375,-3.890625 V -4.5 h -0.75 V 0 h 0.75 v -2.375 c 0,-0.015625 0,-0.03125 0,-0.03125 0,-0.65625 0.34375,-1.515625 1.046875,-1.515625 H 2.53125 c 0.234375,0 0.421875,0.140625 0.65625,0.328125 z m 0,0"
             style="fill:#773c23;fill-opacity:1;stroke:none;stroke-width:0"
             inkscape:connector-curvature="0" />
        </g>
        <g
           id="g37987"
           style="fill:#773c23;fill-opacity:1">
          <path
             id="path37979"
             transform="translate(316.94174,134.765)"
             d="m 4.5625,0 v -2.71875 c 0,-1.0625 -0.453125,-1.890625 -1.609375,-1.890625 -0.578125,0 -1.171875,0.21875 -1.53125,0.71875 V -4.5 H 0.6875 V 0 h 0.734375 v -2.546875 c 0.03125,-0.859375 0.5625,-1.40625 1.359375,-1.40625 0.78125,0 1.0625,0.46875 1.0625,1.265625 V 0 Z m 0,0"
             style="fill:#773c23;fill-opacity:1;stroke:none;stroke-width:0"
             inkscape:connector-curvature="0" />
          <path
             id="path37981"
             transform="translate(322.13225,134.765)"
             d="m 1.4375,0 v -4.5 h -0.75 V 0 Z m -0.375,-6.890625 c -0.234375,0 -0.4375,0.21875 -0.4375,0.453125 0,0.25 0.203125,0.46875 0.4375,0.46875 0.25,0 0.4375,-0.21875 0.4375,-0.46875 0,-0.234375 -0.1875,-0.453125 -0.4375,-0.453125 z m 0,0"
             style="fill:#773c23;fill-opacity:1;stroke:none;stroke-width:0"
             inkscape:connector-curvature="0" />
          <path
             id="path37983"
             transform="translate(324.25428,134.765)"
             d="m 4.5625,0 v -2.71875 c 0,-1.0625 -0.453125,-1.890625 -1.609375,-1.890625 -0.578125,0 -1.171875,0.21875 -1.53125,0.71875 V -4.5 H 0.6875 V 0 h 0.734375 v -2.546875 c 0.03125,-0.859375 0.5625,-1.40625 1.359375,-1.40625 0.78125,0 1.0625,0.46875 1.0625,1.265625 V 0 Z m 0,0"
             style="fill:#773c23;fill-opacity:1;stroke:none;stroke-width:0"
             inkscape:connector-curvature="0" />
          <path
             id="path37985"
             transform="translate(329.4448,134.765)"
             d="m 2.046875,-0.109375 c 0.84375,0 1.421875,0.40625 1.421875,0.953125 0,0.546875 -0.578125,0.9375 -1.421875,0.9375 -0.84375,0 -1.3125,-0.390625 -1.3125,-0.9375 0,-0.546875 0.46875,-0.953125 1.3125,-0.953125 z m 0,-0.640625 c -0.078125,0 -0.15625,0 -0.25,0.015625 -0.46875,0 -0.875,-0.28125 -0.875,-0.46875 0,-0.21875 0.25,-0.296875 0.4375,-0.296875 h 0.0625 c 0.15625,0.140625 0.625,0.1875 0.765625,0.1875 0.859375,0 1.546875,-0.734375 1.546875,-1.640625 0,-0.359375 -0.125,-0.703125 -0.328125,-0.96875 h 0.734375 v -0.5625 H 2.875 c -0.203125,-0.0625 -0.484375,-0.09375 -0.640625,-0.09375 -0.859375,0 -1.578125,0.734375 -1.609375,1.625 0,0.4375 0.15625,0.828125 0.4375,1.109375 -0.328125,0.0625 -0.6875,0.28125 -0.6875,0.703125 0,0.265625 0.171875,0.515625 0.53125,0.671875 -0.578125,0.296875 -0.921875,0.78125 -0.921875,1.296875 0,0.8125 0.828125,1.5625 2.0625,1.5625 1.25,0 2.265625,-0.75 2.265625,-1.546875 C 4.3125,-0.203125 3.09375,-0.75 2.046875,-0.75 Z M 2.1875,-3.953125 c 0.53125,0 0.96875,0.4375 0.96875,0.984375 C 3.15625,-2.4375 2.71875,-2 2.1875,-2 1.640625,-2 1.21875,-2.4375 1.21875,-2.96875 c 0,-0.546875 0.421875,-0.984375 0.96875,-0.984375 z m 0,0"
             style="fill:#773c23;fill-opacity:1;stroke:none;stroke-width:0"
             inkscape:connector-curvature="0" />
        </g>
        <g
           id="g37999"
           style="fill:#773c23;fill-opacity:1">
          <path
             id="path37989"
             transform="translate(292.941,146.72)"
             d="m 7.375,0 v -2.71875 c 0,-0.96875 -0.359375,-1.890625 -1.46875,-1.890625 -0.6875,0 -1.25,0.359375 -1.609375,0.90625 -0.234375,-0.53125 -0.734375,-0.90625 -1.375,-0.90625 -0.59375,0 -1.171875,0.3125 -1.5,0.71875 V -4.5 H 0.6875 V 0 H 1.421875 V -2.546875 C 1.453125,-3.34375 1.9375,-3.953125 2.65625,-3.953125 h 0.046875 c 0.75,0 0.96875,0.46875 0.96875,1.265625 V 0 h 0.71875 v -2.546875 c 0.015625,-0.84375 0.4375,-1.40625 1.3125,-1.40625 0.75,0 0.96875,0.515625 0.96875,1.265625 V 0 Z m 0,0"
             style="fill:#773c23;fill-opacity:1;stroke:none;stroke-width:0"
             inkscape:connector-curvature="0" />
          <path
             id="path37991"
             transform="translate(300.95093,146.72)"
             d="m 4.6875,-2.25 c 0,-1.140625 -0.609375,-2.359375 -2.109375,-2.359375 -1.359375,0 -2.125,1.046875 -2.125,2.359375 0,1.234375 0.796875,2.34375 2.125,2.375 C 3.921875,0.09375 4.6875,-0.984375 4.6875,-2.25 Z m -0.734375,0 c 0,0.890625 -0.546875,1.6875 -1.375,1.6875 -1.125,-0.015625 -1.375,-1.015625 -1.375,-1.703125 0,-0.90625 0.4375,-1.65625 1.375,-1.671875 0.875,0.015625 1.375,0.828125 1.375,1.6875 z m 0,0"
             style="fill:#773c23;fill-opacity:1;stroke:none;stroke-width:0"
             inkscape:connector-curvature="0" />
          <path
             id="path37993"
             transform="translate(306.12152,146.72)"
             d="m 0.4375,-2.25 c 0,1.328125 0.875,2.25 2.21875,2.25 H 4.5625 v -6.890625 h -0.75 V -4.5 H 2.71875 C 1.25,-4.5 0.4375,-3.59375 0.4375,-2.25 Z m 0.71875,0 c 0,-0.875 0.5625,-1.59375 1.5625,-1.59375 H 3.8125 v 3.1875 H 2.71875 c -0.984375,0 -1.5625,-0.625 -1.5625,-1.59375 z m 0,0"
             style="fill:#773c23;fill-opacity:1;stroke:none;stroke-width:0"
             inkscape:connector-curvature="0" />
          <path
             id="path37995"
             transform="translate(311.37181,146.72)"
             d="m 4.546875,-2.25 v -0.078125 c 0,-1.296875 -0.53125,-2.25 -2.015625,-2.28125 -1.328125,0 -2.078125,1.15625 -2.078125,2.40625 0,1.359375 0.828125,2.328125 2.203125,2.328125 0.625,0 1.1875,-0.140625 1.734375,-0.34375 v -0.75 C 3.671875,-0.625 3.5625,-0.546875 2.71875,-0.546875 c -0.9375,0 -1.5,-0.5625 -1.5,-1.625 V -2.25 Z M 3.8125,-2.859375 H 1.25 c 0.09375,-0.59375 0.53125,-1.109375 1.28125,-1.109375 0.78125,0 1.28125,0.484375 1.28125,1.109375 z m 0,0"
             style="fill:#773c23;fill-opacity:1;stroke:none;stroke-width:0"
             inkscape:connector-curvature="0" />
          <path
             id="path37997"
             transform="translate(316.31326,146.72)"
             d="M 1.3125,-6.890625 H 0.578125 V 0 H 1.3125 Z m 0,0"
             style="fill:#773c23;fill-opacity:1;stroke:none;stroke-width:0"
             inkscape:connector-curvature="0" />
        </g>
      </g>
    </g>
  </g>
</svg>
