<?xml version="1.0" encoding="UTF-8"?>
<svg xmlns="http://www.w3.org/2000/svg" xmlns:xlink="http://www.w3.org/1999/xlink" width="225.46pt" height="116.47pt" viewBox="0 0 225.46 116.47">
<defs>
<g>
<g id="glyph-0-0">
<path d="M 0.140625 0.640625 C 0.40625 0.46875 0.515625 0.375 0.65625 0.203125 C 0.90625 -0.109375 1.03125 -0.46875 1.03125 -0.90625 C 1.03125 -1.359375 0.90625 -1.71875 0.578125 -2.09375 C 0.4375 -2.265625 0.34375 -2.34375 0.15625 -2.46875 L 0.109375 -2.40625 C 0.390625 -2.171875 0.5 -2.046875 0.59375 -1.765625 C 0.6875 -1.53125 0.71875 -1.25 0.71875 -0.890625 C 0.71875 -0.5 0.671875 -0.203125 0.578125 0.015625 C 0.484375 0.234375 0.375 0.375 0.109375 0.59375 Z M 0.140625 0.640625 "/>
</g>
<g id="glyph-0-1">
<path d="M 1.734375 -0.5 L 1.6875 -0.515625 C 1.546875 -0.3125 1.5 -0.28125 1.34375 -0.28125 L 0.46875 -0.28125 L 1.078125 -0.921875 C 1.40625 -1.25 1.546875 -1.53125 1.546875 -1.8125 C 1.546875 -2.1875 1.25 -2.46875 0.875 -2.46875 C 0.671875 -2.46875 0.484375 -2.375 0.34375 -2.234375 C 0.234375 -2.109375 0.171875 -2 0.109375 -1.734375 L 0.1875 -1.71875 C 0.328125 -2.078125 0.46875 -2.1875 0.71875 -2.1875 C 1.03125 -2.1875 1.234375 -1.984375 1.234375 -1.671875 C 1.234375 -1.390625 1.0625 -1.0625 0.75 -0.734375 L 0.109375 -0.046875 L 0.109375 0 L 1.53125 0 Z M 1.734375 -0.5 "/>
</g>
<g id="glyph-0-2">
<path d="M 1.078125 -2.46875 C 0.796875 -2.28125 0.703125 -2.1875 0.5625 -2.03125 C 0.296875 -1.703125 0.171875 -1.34375 0.171875 -0.921875 C 0.171875 -0.453125 0.3125 -0.09375 0.625 0.265625 C 0.78125 0.453125 0.875 0.53125 1.0625 0.640625 L 1.109375 0.59375 C 0.8125 0.359375 0.71875 0.21875 0.609375 -0.046875 C 0.53125 -0.28125 0.484375 -0.5625 0.484375 -0.921875 C 0.484375 -1.3125 0.53125 -1.609375 0.640625 -1.828125 C 0.734375 -2.0625 0.84375 -2.1875 1.109375 -2.40625 Z M 1.078125 -2.46875 "/>
</g>
<g id="glyph-0-3">
<path d="M 0.421875 0 L 1.4375 0 L 1.4375 -0.046875 C 1.15625 -0.046875 1.09375 -0.09375 1.09375 -0.265625 L 1.09375 -2.453125 L 1.0625 -2.46875 L 0.40625 -2.125 L 0.40625 -2.078125 C 0.546875 -2.140625 0.640625 -2.15625 0.671875 -2.15625 C 0.75 -2.15625 0.78125 -2.109375 0.78125 -1.984375 L 0.78125 -0.34375 C 0.765625 -0.109375 0.703125 -0.0625 0.421875 -0.046875 Z M 0.421875 0 "/>
</g>
<g id="glyph-0-4">
<path d="M 0.5625 -1.203125 C 0.765625 -1.203125 0.859375 -1.1875 0.9375 -1.15625 C 1.171875 -1.078125 1.3125 -0.875 1.3125 -0.625 C 1.3125 -0.3125 1.109375 -0.078125 0.828125 -0.078125 C 0.734375 -0.078125 0.65625 -0.109375 0.53125 -0.1875 C 0.421875 -0.265625 0.359375 -0.28125 0.296875 -0.28125 C 0.21875 -0.28125 0.15625 -0.234375 0.15625 -0.15625 C 0.15625 -0.03125 0.3125 0.046875 0.5625 0.046875 C 0.84375 0.046875 1.125 -0.046875 1.3125 -0.1875 C 1.484375 -0.34375 1.5625 -0.546875 1.5625 -0.796875 C 1.5625 -0.984375 1.515625 -1.15625 1.40625 -1.265625 C 1.328125 -1.34375 1.265625 -1.390625 1.109375 -1.453125 C 1.359375 -1.625 1.453125 -1.765625 1.453125 -1.96875 C 1.453125 -2.265625 1.21875 -2.46875 0.875 -2.46875 C 0.703125 -2.46875 0.53125 -2.40625 0.40625 -2.28125 C 0.296875 -2.1875 0.234375 -2.09375 0.15625 -1.875 L 0.21875 -1.859375 C 0.359375 -2.125 0.53125 -2.25 0.75 -2.25 C 1 -2.25 1.15625 -2.09375 1.15625 -1.859375 C 1.15625 -1.71875 1.109375 -1.59375 1.015625 -1.5 C 0.90625 -1.390625 0.796875 -1.34375 0.546875 -1.25 Z M 0.5625 -1.203125 "/>
</g>
<g id="glyph-1-0">
<path d="M 0.6875 -3.984375 C 1.046875 -3.96875 1.078125 -3.953125 1.078125 -3.828125 C 1.078125 -3.765625 1.078125 -3.703125 1.03125 -3.546875 C 1.015625 -3.515625 1 -3.46875 1 -3.4375 L 0.984375 -3.390625 L 0.140625 -0.28125 L 0.140625 -0.265625 C 0.140625 -0.125 0.609375 0.0625 0.96875 0.0625 C 1.90625 0.0625 2.9375 -1.015625 2.9375 -1.984375 C 2.9375 -2.421875 2.625 -2.734375 2.21875 -2.734375 C 1.78125 -2.734375 1.453125 -2.484375 1.015625 -1.796875 C 1.328125 -2.953125 1.390625 -3.125 1.65625 -4.203125 L 1.625 -4.234375 C 1.3125 -4.1875 1.140625 -4.15625 0.6875 -4.09375 Z M 1.96875 -2.4375 C 2.25 -2.4375 2.40625 -2.234375 2.40625 -1.890625 C 2.40625 -1.484375 2.09375 -0.828125 1.71875 -0.4375 C 1.5 -0.203125 1.234375 -0.078125 0.96875 -0.078125 C 0.765625 -0.078125 0.671875 -0.140625 0.671875 -0.28125 C 0.671875 -0.65625 0.859375 -1.25 1.125 -1.71875 C 1.390625 -2.203125 1.671875 -2.4375 1.96875 -2.4375 Z M 1.96875 -2.4375 "/>
</g>
<g id="glyph-1-1">
<path d="M 0.5 -1.921875 C 0.625 -2.21875 0.71875 -2.28125 1 -2.28125 L 1.90625 -2.28125 L -0.015625 0.03125 L 0.046875 0.078125 C 0.140625 0 0.21875 -0.03125 0.328125 -0.03125 C 0.484375 -0.03125 0.6875 0.046875 0.96875 0.234375 C 1.28125 0.421875 1.484375 0.5 1.671875 0.5 C 1.984375 0.5 2.25 0.28125 2.25 0.03125 C 2.25 -0.109375 2.171875 -0.1875 2.03125 -0.1875 C 1.90625 -0.1875 1.828125 -0.109375 1.828125 0 C 1.828125 0.0625 1.84375 0.109375 1.875 0.1875 C 1.890625 0.21875 1.90625 0.265625 1.90625 0.28125 C 1.90625 0.328125 1.84375 0.375 1.75 0.375 C 1.59375 0.375 1.515625 0.3125 1.3125 0.0625 C 1.03125 -0.296875 0.921875 -0.375 0.5625 -0.453125 L 2.359375 -2.59375 L 2.359375 -2.65625 L 0.59375 -2.65625 L 0.40625 -1.9375 Z M 0.5 -1.921875 "/>
</g>
<g id="glyph-1-2">
<path d="M 2.875 -0.6875 L 2.703125 -0.515625 C 2.5 -0.3125 2.4375 -0.25 2.375 -0.25 C 2.328125 -0.25 2.296875 -0.296875 2.296875 -0.328125 C 2.296875 -0.453125 2.5625 -1.53125 2.84375 -2.59375 C 2.859375 -2.65625 2.875 -2.65625 2.890625 -2.71875 L 2.84375 -2.734375 L 2.46875 -2.6875 L 2.4375 -2.671875 L 2.375 -2.375 C 2.328125 -2.609375 2.140625 -2.734375 1.875 -2.734375 C 1.046875 -2.734375 0.109375 -1.609375 0.109375 -0.625 C 0.109375 -0.1875 0.34375 0.0625 0.734375 0.0625 C 1.171875 0.0625 1.4375 -0.140625 1.984375 -0.90625 C 1.859375 -0.390625 1.84375 -0.34375 1.84375 -0.1875 C 1.84375 -0.015625 1.921875 0.0625 2.09375 0.0625 C 2.34375 0.0625 2.484375 -0.0625 2.953125 -0.625 Z M 1.921875 -2.59375 C 2.125 -2.59375 2.265625 -2.4375 2.265625 -2.21875 C 2.265625 -1.703125 1.953125 -0.96875 1.53125 -0.515625 C 1.375 -0.34375 1.171875 -0.234375 0.984375 -0.234375 C 0.765625 -0.234375 0.625 -0.40625 0.625 -0.6875 C 0.625 -1.046875 0.859375 -1.671875 1.125 -2.0625 C 1.375 -2.421875 1.65625 -2.625 1.921875 -2.59375 Z M 1.921875 -2.59375 "/>
</g>
<g id="glyph-1-3">
<path d="M 2.5 -0.6875 C 2.4375 -0.625 2.40625 -0.59375 2.359375 -0.515625 C 2.21875 -0.328125 2.140625 -0.265625 2.0625 -0.265625 C 1.984375 -0.265625 1.921875 -0.359375 1.875 -0.53125 C 1.859375 -0.59375 1.859375 -0.609375 1.859375 -0.625 C 1.703125 -1.265625 1.625 -1.546875 1.625 -1.640625 C 1.90625 -2.125 2.125 -2.390625 2.234375 -2.390625 C 2.28125 -2.390625 2.328125 -2.375 2.390625 -2.34375 C 2.46875 -2.296875 2.5 -2.28125 2.5625 -2.28125 C 2.6875 -2.28125 2.765625 -2.375 2.765625 -2.5 C 2.765625 -2.640625 2.671875 -2.734375 2.515625 -2.734375 C 2.25 -2.734375 2.015625 -2.515625 1.578125 -1.84375 L 1.515625 -2.1875 C 1.421875 -2.609375 1.359375 -2.734375 1.1875 -2.734375 C 1.046875 -2.734375 0.84375 -2.6875 0.46875 -2.5625 C 0.421875 -2.546875 0.421875 -2.546875 0.390625 -2.53125 L 0.421875 -2.4375 C 0.65625 -2.5 0.703125 -2.5 0.765625 -2.5 C 0.921875 -2.5 0.96875 -2.453125 1.046875 -2.078125 L 1.234375 -1.3125 L 0.71875 -0.59375 C 0.59375 -0.40625 0.46875 -0.296875 0.40625 -0.296875 C 0.359375 -0.296875 0.296875 -0.3125 0.234375 -0.34375 C 0.15625 -0.390625 0.09375 -0.40625 0.046875 -0.40625 C -0.078125 -0.40625 -0.171875 -0.3125 -0.171875 -0.1875 C -0.171875 -0.03125 -0.046875 0.0625 0.140625 0.0625 C 0.328125 0.0625 0.40625 0.015625 0.71875 -0.359375 C 0.890625 -0.5625 1.03125 -0.75 1.28125 -1.09375 L 1.46875 -0.34375 C 1.546875 -0.03125 1.625 0.0625 1.828125 0.0625 C 2.0625 0.0625 2.21875 -0.078125 2.578125 -0.640625 Z M 2.5 -0.6875 "/>
</g>
<g id="glyph-1-4">
<path d="M -0.046875 0 L 1.46875 0 L 1.46875 -0.09375 C 1.109375 -0.140625 1.046875 -0.1875 1.046875 -0.359375 C 1.046875 -0.484375 1.046875 -0.546875 1.109375 -0.75 L 1.875 -3.5 C 1.984375 -3.859375 2.03125 -3.890625 2.375 -3.953125 L 2.375 -4.046875 L 0.84375 -4.046875 L 0.84375 -3.953125 C 1.21875 -3.90625 1.28125 -3.859375 1.28125 -3.6875 C 1.28125 -3.59375 1.265625 -3.46875 1.21875 -3.296875 L 0.453125 -0.5625 C 0.34375 -0.203125 0.296875 -0.15625 -0.046875 -0.09375 Z M -0.046875 0 "/>
</g>
<g id="glyph-1-5">
<path d="M 2.859375 -0.71875 C 2.515625 -0.296875 2.4375 -0.234375 2.34375 -0.234375 C 2.28125 -0.234375 2.25 -0.28125 2.25 -0.328125 C 2.25 -0.390625 2.265625 -0.5 2.328125 -0.71875 L 2.6875 -2 C 2.71875 -2.140625 2.734375 -2.265625 2.734375 -2.359375 C 2.734375 -2.59375 2.578125 -2.734375 2.328125 -2.734375 C 1.9375 -2.734375 1.546875 -2.359375 0.90625 -1.375 L 1.328125 -2.71875 L 1.296875 -2.734375 C 0.96875 -2.671875 0.84375 -2.640625 0.296875 -2.546875 L 0.296875 -2.4375 C 0.609375 -2.4375 0.6875 -2.40625 0.6875 -2.28125 C 0.6875 -2.234375 0.6875 -2.203125 0.6875 -2.171875 L 0.09375 0 L 0.546875 0 C 0.84375 -0.984375 0.90625 -1.109375 1.171875 -1.53125 C 1.546875 -2.109375 1.859375 -2.421875 2.09375 -2.421875 C 2.1875 -2.421875 2.234375 -2.34375 2.234375 -2.234375 C 2.234375 -2.171875 2.203125 -1.953125 2.15625 -1.765625 L 1.875 -0.75 C 1.796875 -0.421875 1.78125 -0.34375 1.78125 -0.28125 C 1.78125 -0.046875 1.859375 0.0625 2.078125 0.0625 C 2.34375 0.0625 2.5 -0.0625 2.9375 -0.640625 Z M 2.859375 -0.71875 "/>
</g>
<g id="glyph-1-6">
<path d="M 2.890625 -0.71875 C 2.546875 -0.3125 2.46875 -0.234375 2.375 -0.234375 C 2.3125 -0.234375 2.28125 -0.28125 2.28125 -0.34375 C 2.28125 -0.421875 2.375 -0.796875 2.484375 -1.125 C 2.65625 -1.703125 2.78125 -2.171875 2.78125 -2.3125 C 2.78125 -2.5625 2.609375 -2.734375 2.375 -2.734375 C 1.96875 -2.734375 1.53125 -2.328125 0.953125 -1.421875 L 1.6875 -4.203125 L 1.65625 -4.234375 C 1.296875 -4.15625 1.046875 -4.109375 0.6875 -4.0625 L 0.6875 -3.96875 L 0.84375 -3.96875 C 1 -3.984375 1.109375 -3.921875 1.109375 -3.828125 C 1.109375 -3.734375 1.078125 -3.578125 1.015625 -3.40625 C 1.015625 -3.390625 0.984375 -3.3125 0.953125 -3.171875 L 0.125 0 L 0.578125 0 C 0.828125 -0.953125 0.90625 -1.171875 1.15625 -1.546875 C 1.484375 -2.03125 1.90625 -2.421875 2.125 -2.421875 C 2.21875 -2.421875 2.296875 -2.34375 2.296875 -2.265625 C 2.296875 -2.234375 2.28125 -2.15625 2.25 -2.0625 L 1.90625 -0.78125 C 1.828125 -0.46875 1.78125 -0.28125 1.78125 -0.203125 C 1.78125 -0.046875 1.890625 0.0625 2.0625 0.0625 C 2.375 0.0625 2.59375 -0.109375 2.96875 -0.65625 Z M 2.890625 -0.71875 "/>
</g>
<g id="glyph-1-7">
<path d="M 2.015625 -2.734375 C 1.75 -2.734375 1.5 -2.671875 1.25 -2.53125 C 0.609375 -2.171875 0.171875 -1.453125 0.171875 -0.796875 C 0.171875 -0.265625 0.515625 0.0625 1.078125 0.0625 C 1.484375 0.0625 1.890625 -0.109375 2.25 -0.46875 C 2.65625 -0.875 2.90625 -1.390625 2.90625 -1.859375 C 2.90625 -2.375 2.546875 -2.734375 2.015625 -2.734375 Z M 1.9375 -2.609375 C 2.203125 -2.609375 2.375 -2.375 2.375 -2.015625 C 2.375 -1.5625 2.1875 -0.953125 1.90625 -0.546875 C 1.671875 -0.21875 1.4375 -0.0625 1.171875 -0.0625 C 0.875 -0.0625 0.6875 -0.28125 0.6875 -0.625 C 0.6875 -1.078125 0.875 -1.625 1.171875 -2.078125 C 1.421875 -2.421875 1.671875 -2.609375 1.9375 -2.609375 Z M 1.9375 -2.609375 "/>
</g>
<g id="glyph-2-0">
<path d="M 1.03125 -3.921875 L 2.046875 -2.28125 L 0.734375 -0.515625 L 2.390625 -0.515625 C 3.109375 -0.515625 3.296875 -0.625 3.5 -1.109375 L 3.65625 -1.109375 L 3.3125 0 L 0.03125 0 L 1.484375 -1.984375 L 0.140625 -4.171875 L 3.203125 -4.171875 L 3.265625 -3.15625 L 3.109375 -3.15625 C 3 -3.78125 2.796875 -3.921875 2.078125 -3.921875 Z M 1.03125 -3.921875 "/>
</g>
<g id="glyph-2-1">
<path d="M 1.46875 -1.65625 L 0.109375 -3.015625 L 0.34375 -3.25 L 1.703125 -1.890625 L 3.0625 -3.25 L 3.3125 -3.015625 L 1.953125 -1.65625 L 3.3125 -0.296875 L 3.0625 -0.0625 L 1.703125 -1.421875 L 0.34375 -0.0625 L 0.109375 -0.296875 Z M 1.46875 -1.65625 "/>
</g>
<g id="glyph-3-0">
<path d="M 4.328125 -2.5625 L 2.984375 -2.5625 C 3.53125 -2.171875 3.765625 -1.71875 3.640625 -1.234375 C 3.546875 -0.90625 3.296875 -0.5625 2.9375 -0.296875 C 2.59375 -0.046875 2.203125 0.078125 1.78125 0.078125 C 1.28125 0.078125 0.96875 -0.078125 0.75 -0.453125 C 0.546875 -0.78125 0.5 -1.171875 0.609375 -1.578125 C 0.765625 -2.171875 1.234375 -2.65625 1.90625 -2.921875 C 2.234375 -3.046875 2.578125 -3.109375 3.0625 -3.109375 L 4.46875 -3.109375 Z M 2.6875 -2.5625 L 2.5 -2.5625 C 1.90625 -2.5625 1.421875 -2.171875 1.265625 -1.578125 C 1.0625 -0.8125 1.359375 -0.1875 1.9375 -0.1875 C 2.390625 -0.1875 2.828125 -0.625 3 -1.265625 C 3.125 -1.75 3.046875 -2.015625 2.71875 -2.484375 Z M 2.6875 -2.5625 "/>
</g>
<g id="glyph-4-0">
<path d="M 0.609375 0 L 2.03125 0 L 2.03125 -0.078125 C 1.640625 -0.078125 1.546875 -0.140625 1.546875 -0.375 L 1.546875 -3.46875 L 1.5 -3.484375 L 0.578125 -3.015625 L 0.578125 -2.9375 C 0.78125 -3.015625 0.890625 -3.0625 0.9375 -3.0625 C 1.046875 -3.0625 1.09375 -2.984375 1.09375 -2.8125 L 1.09375 -0.484375 C 1.09375 -0.15625 1 -0.078125 0.609375 -0.078125 Z M 0.609375 0 "/>
</g>
<g id="glyph-5-0">
<path d="M 1.359375 -1.84375 C 1.171875 -1.84375 1.015625 -1.796875 0.84375 -1.703125 C 0.40625 -1.453125 0.109375 -0.984375 0.109375 -0.53125 C 0.109375 -0.171875 0.34375 0.046875 0.71875 0.046875 C 1 0.046875 1.265625 -0.078125 1.515625 -0.3125 C 1.78125 -0.59375 1.953125 -0.9375 1.953125 -1.25 C 1.953125 -1.609375 1.703125 -1.84375 1.359375 -1.84375 Z M 1.3125 -1.75 C 1.484375 -1.75 1.609375 -1.59375 1.609375 -1.359375 C 1.609375 -1.046875 1.46875 -0.640625 1.28125 -0.359375 C 1.125 -0.140625 0.96875 -0.046875 0.78125 -0.046875 C 0.59375 -0.046875 0.46875 -0.1875 0.46875 -0.421875 C 0.46875 -0.734375 0.578125 -1.09375 0.78125 -1.390625 C 0.953125 -1.625 1.125 -1.75 1.3125 -1.75 Z M 1.3125 -1.75 "/>
</g>
<g id="glyph-5-1">
<path d="M 1.921875 -0.484375 C 1.6875 -0.203125 1.640625 -0.15625 1.578125 -0.15625 C 1.546875 -0.15625 1.515625 -0.1875 1.515625 -0.21875 C 1.515625 -0.265625 1.53125 -0.34375 1.5625 -0.484375 L 1.8125 -1.34375 C 1.828125 -1.4375 1.84375 -1.53125 1.84375 -1.578125 C 1.84375 -1.734375 1.734375 -1.84375 1.5625 -1.84375 C 1.296875 -1.84375 1.03125 -1.578125 0.609375 -0.921875 L 0.890625 -1.828125 L 0.875 -1.84375 C 0.65625 -1.796875 0.5625 -1.78125 0.203125 -1.703125 L 0.203125 -1.640625 C 0.40625 -1.640625 0.46875 -1.609375 0.46875 -1.53125 C 0.46875 -1.5 0.46875 -1.484375 0.453125 -1.453125 L 0.0625 0 L 0.375 0 C 0.5625 -0.65625 0.609375 -0.75 0.78125 -1.03125 C 1.03125 -1.421875 1.25 -1.625 1.40625 -1.625 C 1.46875 -1.625 1.5 -1.578125 1.5 -1.5 C 1.5 -1.453125 1.484375 -1.3125 1.453125 -1.1875 L 1.265625 -0.5 C 1.203125 -0.28125 1.203125 -0.234375 1.203125 -0.1875 C 1.203125 -0.03125 1.25 0.03125 1.390625 0.03125 C 1.578125 0.03125 1.6875 -0.046875 1.984375 -0.4375 Z M 1.921875 -0.484375 "/>
</g>
<g id="glyph-5-2">
<path d="M 1.9375 -0.484375 C 1.71875 -0.203125 1.671875 -0.15625 1.59375 -0.15625 C 1.5625 -0.15625 1.53125 -0.1875 1.53125 -0.234375 C 1.53125 -0.28125 1.59375 -0.53125 1.671875 -0.75 C 1.796875 -1.140625 1.875 -1.453125 1.875 -1.5625 C 1.875 -1.734375 1.75 -1.84375 1.59375 -1.84375 C 1.328125 -1.84375 1.03125 -1.5625 0.640625 -0.953125 L 1.140625 -2.828125 L 1.125 -2.84375 C 0.875 -2.796875 0.703125 -2.765625 0.46875 -2.734375 L 0.46875 -2.671875 L 0.578125 -2.671875 C 0.671875 -2.671875 0.75 -2.625 0.75 -2.5625 C 0.75 -2.515625 0.71875 -2.40625 0.6875 -2.296875 C 0.6875 -2.28125 0.65625 -2.21875 0.640625 -2.140625 L 0.078125 0 L 0.390625 0 C 0.5625 -0.640625 0.609375 -0.78125 0.78125 -1.03125 C 1 -1.375 1.28125 -1.625 1.421875 -1.625 C 1.484375 -1.625 1.546875 -1.578125 1.546875 -1.515625 C 1.546875 -1.5 1.53125 -1.453125 1.515625 -1.390625 L 1.28125 -0.515625 C 1.234375 -0.3125 1.203125 -0.1875 1.203125 -0.140625 C 1.203125 -0.03125 1.265625 0.03125 1.390625 0.03125 C 1.59375 0.03125 1.75 -0.078125 2 -0.4375 Z M 1.9375 -0.484375 "/>
</g>
<g id="glyph-6-0">
<path d="M -0.03125 0 L 0.859375 0 L 0.859375 -0.0625 C 0.65625 -0.078125 0.609375 -0.109375 0.609375 -0.203125 C 0.609375 -0.28125 0.625 -0.3125 0.65625 -0.4375 L 1.09375 -2.046875 C 1.171875 -2.265625 1.1875 -2.28125 1.390625 -2.3125 L 1.390625 -2.375 L 0.5 -2.375 L 0.5 -2.3125 C 0.71875 -2.296875 0.75 -2.265625 0.75 -2.15625 C 0.75 -2.109375 0.75 -2.03125 0.71875 -1.9375 L 0.265625 -0.328125 C 0.203125 -0.109375 0.171875 -0.09375 -0.03125 -0.0625 Z M -0.03125 0 "/>
</g>
<g id="glyph-7-0">
<path d="M 6.5625 -4.734375 L 5.234375 -4.734375 L 5.234375 -4.625 C 5.625 -4.578125 5.703125 -4.53125 5.703125 -4.328125 C 5.703125 -4.203125 5.640625 -4.03125 5.546875 -3.84375 L 4.1875 -1.171875 L 3.90625 -4.09375 C 3.890625 -4.125 3.890625 -4.171875 3.890625 -4.203125 C 3.890625 -4.484375 4 -4.578125 4.390625 -4.625 L 4.390625 -4.734375 L 2.65625 -4.734375 L 2.65625 -4.625 C 3.078125 -4.609375 3.15625 -4.546875 3.203125 -4.203125 L 3.265625 -3.703125 L 2.015625 -1.171875 L 1.703125 -4.125 C 1.703125 -4.15625 1.703125 -4.203125 1.703125 -4.21875 C 1.703125 -4.5 1.78125 -4.5625 2.21875 -4.625 L 2.21875 -4.734375 L 0.515625 -4.734375 L 0.515625 -4.625 C 0.75 -4.59375 0.8125 -4.5625 0.890625 -4.5 C 0.96875 -4.421875 1 -4.28125 1.09375 -3.625 L 1.53125 0.125 L 1.671875 0.125 L 3.28125 -3.15625 L 3.328125 -3.15625 L 3.6875 0.125 L 3.828125 0.125 L 6.03125 -4.09375 C 6.21875 -4.46875 6.296875 -4.53125 6.5625 -4.625 Z M 6.5625 -4.734375 "/>
</g>
<g id="glyph-8-0">
<path d="M 0.53125 -0.234375 L 1.203125 -0.828125 C 1.25 -0.875 1.296875 -0.90625 1.328125 -0.90625 C 1.359375 -0.90625 1.40625 -0.875 1.46875 -0.84375 L 2 -0.46875 C 2.28125 -0.90625 2.359375 -1.125 2.421875 -1.65625 C 2.453125 -1.90625 2.46875 -2.265625 2.46875 -2.453125 L 2.46875 -2.875 C 2.46875 -3.09375 2.4375 -3.46875 2.40625 -3.734375 C 2.328125 -4.203125 2.234375 -4.4375 2.03125 -4.625 C 1.859375 -4.765625 1.625 -4.84375 1.390625 -4.84375 C 0.875 -4.84375 0.453125 -4.484375 0.453125 -4.03125 C 0.453125 -3.859375 0.515625 -3.703125 0.640625 -3.578125 C 0.703125 -3.5 0.828125 -3.421875 1.15625 -3.25 L 1.546875 -3.0625 C 1.75 -2.953125 1.859375 -2.8125 1.859375 -2.65625 C 1.859375 -2.578125 1.84375 -2.5 1.796875 -2.421875 L 1.53125 -2.03125 L 1.34375 -2.171875 C 1.453125 -2.25 1.484375 -2.3125 1.484375 -2.375 C 1.484375 -2.453125 1.40625 -2.53125 1.203125 -2.625 L 0.859375 -2.796875 C 0.59375 -2.9375 0.484375 -3.015625 0.375 -3.171875 C 0.25 -3.359375 0.1875 -3.59375 0.1875 -3.84375 C 0.1875 -4.671875 0.84375 -5.28125 1.71875 -5.28125 C 2.328125 -5.28125 2.671875 -5.0625 2.9375 -4.5 L 3.859375 -5.171875 C 4 -5.265625 4.046875 -5.296875 4.125 -5.296875 C 4.1875 -5.296875 4.234375 -5.265625 4.328125 -5.1875 L 5.453125 -4.21875 L 4.140625 -3.28125 C 4.4375 -2.875 4.515625 -2.703125 4.625 -2.21875 C 4.734375 -1.859375 4.828125 -1.3125 4.875 -0.953125 C 4.90625 -0.71875 4.96875 -0.625 5.109375 -0.625 C 5.171875 -0.625 5.234375 -0.640625 5.375 -0.703125 L 5.5 -0.53125 L 4.703125 0.09375 C 4.296875 -0.109375 4.15625 -0.359375 4.0625 -1.0625 L 4 -1.625 C 3.9375 -2.09375 3.84375 -2.5 3.75 -2.65625 C 3.6875 -2.78125 3.59375 -2.828125 3.484375 -2.828125 C 3.453125 -2.828125 3.4375 -2.828125 3.40625 -2.828125 L 3.3125 -3 L 4.703125 -3.953125 L 4.09375 -4.515625 C 3.953125 -4.640625 3.859375 -4.6875 3.75 -4.6875 C 3.671875 -4.6875 3.609375 -4.65625 3.5 -4.59375 L 3.03125 -4.296875 C 3.125 -3.640625 3.171875 -3.1875 3.171875 -2.859375 L 3.15625 -2.34375 C 3.15625 -1.625 3.0625 -1.28125 2.75 -0.890625 C 2.5625 -0.65625 2.3125 -0.40625 2.046875 -0.171875 C 1.921875 -0.078125 1.828125 -0.015625 1.609375 0.109375 C 1.515625 0.046875 1.453125 -0.015625 1.40625 -0.046875 C 1.21875 -0.203125 1.109375 -0.25 1 -0.25 C 0.90625 -0.25 0.828125 -0.21875 0.671875 -0.125 Z M 0.53125 -0.234375 "/>
</g>
<g id="glyph-8-1">
<path d="M 0.734375 -1.90625 L 3.65625 -1.90625 L 3.65625 -1.5 L 0.734375 -1.5 C 0.78125 -1.203125 0.90625 -0.96875 1.09375 -0.78125 C 1.3125 -0.5625 1.515625 -0.484375 1.90625 -0.4375 C 2.09375 -0.40625 2.234375 -0.40625 2.828125 -0.40625 L 3.65625 -0.40625 L 3.65625 0 L 2.84375 0 C 2.046875 0 1.90625 0 1.671875 -0.046875 C 1.234375 -0.125 0.90625 -0.34375 0.640625 -0.703125 C 0.4375 -1 0.328125 -1.34375 0.328125 -1.703125 C 0.328125 -2.296875 0.625 -2.84375 1.109375 -3.15625 C 1.328125 -3.296875 1.609375 -3.375 1.984375 -3.40625 C 2.078125 -3.40625 2.1875 -3.40625 2.421875 -3.40625 C 2.5625 -3.40625 2.703125 -3.40625 2.84375 -3.40625 L 3.65625 -3.40625 L 3.65625 -3 L 2.828125 -3 C 2.125 -3 2 -3 1.75 -2.953125 C 1.1875 -2.859375 0.828125 -2.484375 0.734375 -1.90625 Z M 0.734375 -1.90625 "/>
</g>
<g id="glyph-9-0">
<path d="M 0.234375 1.09375 C 0.6875 0.796875 0.875 0.640625 1.109375 0.359375 C 1.546875 -0.1875 1.765625 -0.8125 1.765625 -1.53125 C 1.765625 -2.328125 1.53125 -2.921875 1 -3.5625 C 0.734375 -3.859375 0.578125 -4 0.25 -4.1875 L 0.1875 -4.09375 C 0.671875 -3.703125 0.84375 -3.484375 1.015625 -3.015625 C 1.171875 -2.609375 1.234375 -2.140625 1.234375 -1.515625 C 1.234375 -0.859375 1.15625 -0.359375 0.984375 0.03125 C 0.8125 0.40625 0.625 0.640625 0.1875 1 Z M 0.234375 1.09375 "/>
</g>
<g id="glyph-9-1">
<path d="M 2.953125 -0.84375 L 2.859375 -0.875 C 2.640625 -0.515625 2.5625 -0.484375 2.28125 -0.46875 L 0.796875 -0.46875 L 1.84375 -1.5625 C 2.390625 -2.140625 2.625 -2.609375 2.625 -3.09375 C 2.625 -3.71875 2.125 -4.1875 1.484375 -4.1875 C 1.140625 -4.1875 0.8125 -4.0625 0.59375 -3.8125 C 0.390625 -3.59375 0.296875 -3.40625 0.1875 -2.953125 L 0.328125 -2.921875 C 0.578125 -3.53125 0.78125 -3.734375 1.21875 -3.734375 C 1.75 -3.734375 2.09375 -3.375 2.09375 -2.859375 C 2.09375 -2.375 1.8125 -1.796875 1.296875 -1.25 L 0.1875 -0.078125 L 0.1875 0 L 2.609375 0 Z M 2.953125 -0.84375 "/>
</g>
<g id="glyph-9-2">
<path d="M 1.828125 -4.1875 C 1.375 -3.890625 1.1875 -3.734375 0.953125 -3.453125 C 0.515625 -2.90625 0.296875 -2.28125 0.296875 -1.5625 C 0.296875 -0.765625 0.53125 -0.171875 1.078125 0.46875 C 1.328125 0.765625 1.484375 0.90625 1.8125 1.09375 L 1.890625 1 C 1.390625 0.609375 1.21875 0.390625 1.046875 -0.078125 C 0.90625 -0.484375 0.828125 -0.953125 0.828125 -1.578125 C 0.828125 -2.234375 0.90625 -2.75 1.078125 -3.125 C 1.25 -3.515625 1.4375 -3.734375 1.890625 -4.09375 Z M 1.828125 -4.1875 "/>
</g>
<g id="glyph-9-3">
<path d="M 0.953125 -2.046875 C 1.3125 -2.046875 1.453125 -2.03125 1.59375 -1.984375 C 1.984375 -1.84375 2.234375 -1.484375 2.234375 -1.0625 C 2.234375 -0.53125 1.875 -0.140625 1.421875 -0.140625 C 1.25 -0.140625 1.125 -0.1875 0.890625 -0.328125 C 0.71875 -0.4375 0.609375 -0.484375 0.5 -0.484375 C 0.359375 -0.484375 0.265625 -0.390625 0.265625 -0.265625 C 0.265625 -0.046875 0.53125 0.09375 0.96875 0.09375 C 1.4375 0.09375 1.921875 -0.078125 2.234375 -0.328125 C 2.515625 -0.578125 2.671875 -0.9375 2.671875 -1.359375 C 2.671875 -1.6875 2.578125 -1.96875 2.40625 -2.15625 C 2.265625 -2.296875 2.15625 -2.375 1.890625 -2.484375 C 2.3125 -2.78125 2.46875 -3.015625 2.46875 -3.34375 C 2.46875 -3.859375 2.078125 -4.1875 1.5 -4.1875 C 1.1875 -4.1875 0.90625 -4.09375 0.6875 -3.890625 C 0.5 -3.71875 0.40625 -3.5625 0.28125 -3.1875 L 0.375 -3.15625 C 0.625 -3.625 0.90625 -3.828125 1.296875 -3.828125 C 1.703125 -3.828125 1.96875 -3.546875 1.96875 -3.15625 C 1.96875 -2.9375 1.875 -2.71875 1.71875 -2.5625 C 1.53125 -2.375 1.359375 -2.28125 0.9375 -2.125 Z M 0.953125 -2.046875 "/>
</g>
</g>
<clipPath id="clip-0">
<path clip-rule="nonzero" d="M 38 0.0117188 L 48 0.0117188 L 48 11 L 38 11 Z M 38 0.0117188 "/>
</clipPath>
<clipPath id="clip-1">
<path clip-rule="nonzero" d="M 172.0625 53 L 177 53 L 177 58 L 172.0625 58 Z M 172.0625 53 "/>
</clipPath>
<clipPath id="clip-2">
<path clip-rule="nonzero" d="M 138.09375 9 L 142 9 L 142 14 L 138.09375 14 Z M 138.09375 9 "/>
</clipPath>
<clipPath id="clip-3">
<path clip-rule="nonzero" d="M 48.007812 108 L 55 108 L 55 114 L 48.007812 114 Z M 48.007812 108 "/>
</clipPath>
</defs>
<path fill-rule="evenodd" fill="rgb(100%, 100%, 100%)" fill-opacity="1" stroke-width="0.051" stroke-linecap="round" stroke-linejoin="round" stroke="rgb(0%, 0%, 0%)" stroke-opacity="1" stroke-miterlimit="10" d="M 17.75927 14.082261 L 17.75927 14.148761 L 17.766901 14.215806 L 17.790884 14.28285 L 17.811052 14.342264 L 17.833946 14.401132 L 17.869921 14.451825 L 17.904806 14.503062 L 17.947867 14.554845 L 17.992019 14.597906 L 18.043256 14.632791 L 18.102125 14.664951 L 18.160993 14.692205 L 18.219862 14.716188 L 18.274915 14.731996 L 18.34196 14.743987 L 18.479865 14.743987 L 18.546909 14.731996 L 18.601962 14.716188 L 18.669007 14.692205 L 18.720245 14.664951 L 18.779113 14.632791 L 18.829805 14.597906 L 18.873957 14.554845 L 18.917018 14.503062 L 18.951903 14.451825 L 18.987878 14.401132 L 19.018948 14.342264 L 19.039116 14.28285 L 19.054923 14.215806 L 19.062009 14.148761 L 19.070185 14.082261 L 19.062009 14.019032 L 19.054923 13.951987 L 19.039116 13.884942 L 19.018948 13.826074 L 18.987878 13.767205 L 18.951903 13.715968 L 18.917018 13.66473 L 18.873957 13.614038 L 18.829805 13.578063 L 18.779113 13.535002 L 18.720245 13.502842 L 18.669007 13.476133 L 18.601962 13.45215 L 18.546909 13.436887 L 18.479865 13.433072 L 18.41282 13.424896 L 18.34196 13.433072 L 18.274915 13.436887 L 18.219862 13.45215 L 18.160993 13.476133 L 18.102125 13.502842 L 18.043256 13.535002 L 17.992019 13.578063 L 17.947867 13.614038 L 17.904806 13.66473 L 17.869921 13.715968 L 17.833946 13.767205 L 17.811052 13.826074 L 17.790884 13.884942 L 17.766901 13.951987 L 17.75927 14.019032 L 17.75927 14.082261 " transform="matrix(7.166389, 0, 0, -7.166389, 0.24188, 115.942401)"/>
<g clip-path="url(#clip-0)">
<path fill-rule="evenodd" fill="rgb(100%, 100%, 100%)" fill-opacity="1" stroke-width="0.051" stroke-linecap="round" stroke-linejoin="round" stroke="rgb(0%, 0%, 0%)" stroke-opacity="1" stroke-miterlimit="10" d="M 5.322197 15.405168 L 5.322197 15.472213 L 5.329828 15.539258 L 5.349996 15.605758 L 5.373979 15.660811 L 5.401233 15.720224 L 5.429032 15.770917 L 5.467733 15.822154 L 5.510794 15.877207 L 5.554945 15.920813 L 5.606183 15.956244 L 5.661236 15.987858 L 5.720104 16.015112 L 5.778973 16.039096 L 5.846018 16.051087 L 5.909247 16.065805 L 6.042791 16.065805 L 6.106021 16.051087 L 6.173065 16.039096 L 6.231934 16.015112 L 6.286987 15.987858 L 6.338224 15.956244 L 6.388917 15.920813 L 6.433068 15.877207 L 6.476129 15.822154 L 6.51483 15.770917 L 6.550805 15.720224 L 6.578059 15.660811 L 6.602043 15.605758 L 6.614034 15.539258 L 6.622211 15.472213 L 6.628752 15.405168 L 6.622211 15.338124 L 6.614034 15.274895 L 6.602043 15.20785 L 6.578059 15.148981 L 6.550805 15.090113 L 6.51483 15.038875 L 6.476129 14.988183 L 6.433068 14.936945 L 6.388917 14.897155 L 6.338224 14.854093 L 6.286987 14.825749 L 6.231934 14.795225 L 6.173065 14.775057 L 6.106021 14.75925 L 6.042791 14.751073 L 5.975747 14.743987 L 5.909247 14.751073 L 5.846018 14.75925 L 5.778973 14.775057 L 5.720104 14.795225 L 5.661236 14.825749 L 5.606183 14.854093 L 5.554945 14.897155 L 5.510794 14.936945 L 5.467733 14.988183 L 5.429032 15.038875 L 5.401233 15.090113 L 5.373979 15.148981 L 5.349996 15.20785 L 5.329828 15.274895 L 5.322197 15.338124 L 5.322197 15.405168 " transform="matrix(7.166389, 0, 0, -7.166389, 0.24188, 115.942401)"/>
</g>
<path fill="none" stroke-width="0.051" stroke-linecap="round" stroke-linejoin="round" stroke="rgb(0%, 0%, 0%)" stroke-opacity="1" stroke-miterlimit="10" d="M 11.865873 10.1179 L 6.628752 15.405168 " transform="matrix(7.166389, 0, 0, -7.166389, 0.24188, 115.942401)"/>
<path fill="none" stroke-width="0.051" stroke-linecap="round" stroke-linejoin="round" stroke="rgb(0%, 0%, 0%)" stroke-opacity="1" stroke-miterlimit="10" d="M 11.865873 10.1179 L 5.279135 11.440262 " transform="matrix(7.166389, 0, 0, -7.166389, 0.24188, 115.942401)"/>
<path fill="none" stroke-width="0.051" stroke-linecap="round" stroke-linejoin="round" stroke="rgb(0%, 0%, 0%)" stroke-opacity="1" stroke-miterlimit="10" d="M 11.865873 3.510994 L 5.279135 8.798808 " transform="matrix(7.166389, 0, 0, -7.166389, 0.24188, 115.942401)"/>
<path fill="none" stroke-width="0.051" stroke-linecap="round" stroke-linejoin="round" stroke="rgb(0%, 0%, 0%)" stroke-opacity="1" stroke-miterlimit="10" d="M 11.865873 7.475901 L 5.322197 11.440262 " transform="matrix(7.166389, 0, 0, -7.166389, 0.24188, 115.942401)"/>
<path fill="none" stroke-width="0.051" stroke-linecap="round" stroke-linejoin="round" stroke="rgb(0%, 0%, 0%)" stroke-opacity="1" stroke-miterlimit="10" d="M 5.322197 0.870085 L 11.865873 7.475901 " transform="matrix(7.166389, 0, 0, -7.166389, 0.24188, 115.942401)"/>
<path fill="none" stroke-width="0.051" stroke-linecap="round" stroke-linejoin="round" stroke="rgb(0%, 0%, 0%)" stroke-opacity="1" stroke-miterlimit="10" d="M 11.865873 10.1179 L 5.279135 8.798808 " transform="matrix(7.166389, 0, 0, -7.166389, 0.24188, 115.942401)"/>
<path fill="none" stroke-width="0.051" stroke-linecap="round" stroke-linejoin="round" stroke="rgb(0%, 0%, 0%)" stroke-opacity="1" stroke-miterlimit="10" d="M 11.865873 3.510994 L 5.279135 0.870085 " transform="matrix(7.166389, 0, 0, -7.166389, 0.24188, 115.942401)"/>
<path fill="none" stroke-width="0.051" stroke-linecap="round" stroke-linejoin="round" stroke="rgb(0%, 0%, 0%)" stroke-opacity="1" stroke-miterlimit="10" d="M 15.790989 3.510994 L 13.136998 3.510994 " transform="matrix(7.166389, 0, 0, -7.166389, 0.24188, 115.942401)"/>
<path fill="none" stroke-width="0.051" stroke-linecap="round" stroke-linejoin="round" stroke="rgb(0%, 0%, 0%)" stroke-opacity="1" stroke-miterlimit="10" d="M 5.279135 0.870085 L 11.865873 10.1179 " transform="matrix(7.166389, 0, 0, -7.166389, 0.24188, 115.942401)"/>
<path fill="none" stroke-width="0.051" stroke-linecap="round" stroke-linejoin="round" stroke="rgb(0%, 0%, 0%)" stroke-opacity="1" stroke-miterlimit="10" d="M 11.865873 7.475901 L 6.628752 15.405168 " transform="matrix(7.166389, 0, 0, -7.166389, 0.24188, 115.942401)"/>
<path fill="none" stroke-width="0.051" stroke-linecap="round" stroke-linejoin="round" stroke="rgb(0%, 0%, 0%)" stroke-opacity="1" stroke-miterlimit="10" d="M 5.279135 11.440262 L 11.865873 3.510994 " transform="matrix(7.166389, 0, 0, -7.166389, 0.24188, 115.942401)"/>
<path fill="none" stroke-width="0.051" stroke-linecap="round" stroke-linejoin="round" stroke="rgb(0%, 0%, 0%)" stroke-opacity="1" stroke-miterlimit="10" d="M 6.628752 15.405168 L 11.865873 3.510994 " transform="matrix(7.166389, 0, 0, -7.166389, 0.24188, 115.942401)"/>
<g fill="rgb(0%, 0%, 0%)" fill-opacity="1">
<use xlink:href="#glyph-0-0" x="66.624143" y="11.893597"/>
</g>
<g fill="rgb(0%, 0%, 0%)" fill-opacity="1">
<use xlink:href="#glyph-0-1" x="64.596055" y="11.893597"/>
</g>
<g fill="rgb(0%, 0%, 0%)" fill-opacity="1">
<use xlink:href="#glyph-0-2" x="63.07678" y="11.893597"/>
</g>
<g fill="rgb(0%, 0%, 0%)" fill-opacity="1">
<use xlink:href="#glyph-0-3" x="62.202481" y="16.265094"/>
</g>
<g fill="rgb(0%, 0%, 0%)" fill-opacity="1">
<use xlink:href="#glyph-1-0" x="59.694245" y="14.688489"/>
</g>
<path fill-rule="evenodd" fill="rgb(0%, 0%, 0%)" fill-opacity="1" stroke-width="0.051" stroke-linecap="round" stroke-linejoin="round" stroke="rgb(0%, 0%, 0%)" stroke-opacity="1" stroke-miterlimit="10" d="M 12.35808 5.491812 L 12.35808 5.531058 L 12.366256 5.558857 L 12.380973 5.589926 L 12.401141 5.610094 L 12.432755 5.632988 L 12.451833 5.648795 L 12.487808 5.653156 L 12.518878 5.660787 L 12.554853 5.653156 L 12.582107 5.648795 L 12.614267 5.632988 L 12.632799 5.610094 L 12.656783 5.589926 L 12.673135 5.558857 L 12.676951 5.531058 L 12.685127 5.491812 L 12.676951 5.464013 L 12.673135 5.429128 L 12.656783 5.405145 L 12.632799 5.3768 L 12.614267 5.353907 L 12.582107 5.3381 L 12.554853 5.329924 L 12.487808 5.329924 L 12.451833 5.3381 L 12.432755 5.353907 L 12.401141 5.3768 L 12.380973 5.405145 L 12.366256 5.429128 L 12.35808 5.464013 L 12.35808 5.491812 " transform="matrix(7.166389, 0, 0, -7.166389, 0.24188, 115.942401)"/>
<path fill-rule="evenodd" fill="rgb(0%, 0%, 0%)" fill-opacity="1" stroke-width="0.051" stroke-linecap="round" stroke-linejoin="round" stroke="rgb(0%, 0%, 0%)" stroke-opacity="1" stroke-miterlimit="10" d="M 12.35808 4.833902 L 12.35808 4.869877 L 12.366256 4.897131 L 12.380973 4.928745 L 12.401141 4.947823 L 12.432755 4.971807 L 12.451833 4.988159 L 12.487808 4.99579 L 12.518878 5.002876 L 12.554853 4.99579 L 12.582107 4.988159 L 12.614267 4.971807 L 12.632799 4.947823 L 12.656783 4.928745 L 12.673135 4.897131 L 12.676951 4.869877 L 12.685127 4.833902 L 12.676951 4.802832 L 12.673135 4.766857 L 12.656783 4.743963 L 12.632799 4.716164 L 12.614267 4.692181 L 12.582107 4.676919 L 12.554853 4.673103 L 12.487808 4.673103 L 12.451833 4.676919 L 12.432755 4.692181 L 12.401141 4.716164 L 12.380973 4.743963 L 12.366256 4.766857 L 12.35808 4.802832 L 12.35808 4.833902 " transform="matrix(7.166389, 0, 0, -7.166389, 0.24188, 115.942401)"/>
<path fill-rule="evenodd" fill="rgb(0%, 0%, 0%)" fill-opacity="1" stroke-width="0.051" stroke-linecap="round" stroke-linejoin="round" stroke="rgb(0%, 0%, 0%)" stroke-opacity="1" stroke-miterlimit="10" d="M 12.35808 6.152993 L 12.35808 6.192239 L 12.366256 6.220038 L 12.380973 6.251108 L 12.401141 6.27073 L 12.432755 6.295259 L 12.451833 6.307251 L 12.487808 6.313792 L 12.518878 6.321968 L 12.554853 6.313792 L 12.582107 6.307251 L 12.614267 6.295259 L 12.632799 6.27073 L 12.656783 6.251108 L 12.673135 6.220038 L 12.676951 6.192239 L 12.685127 6.152993 L 12.676951 6.125194 L 12.673135 6.089764 L 12.656783 6.065781 L 12.632799 6.035256 L 12.614267 6.015088 L 12.582107 5.998736 L 12.554853 5.992195 L 12.487808 5.992195 L 12.451833 5.998736 L 12.432755 6.015088 L 12.401141 6.035256 L 12.380973 6.065781 L 12.366256 6.089764 L 12.35808 6.125194 L 12.35808 6.152993 " transform="matrix(7.166389, 0, 0, -7.166389, 0.24188, 115.942401)"/>
<path fill-rule="evenodd" fill="rgb(0%, 0%, 0%)" fill-opacity="1" stroke-width="0.051" stroke-linecap="round" stroke-linejoin="round" stroke="rgb(0%, 0%, 0%)" stroke-opacity="1" stroke-miterlimit="10" d="M 15.999754 5.491812 L 15.999754 5.531058 L 16.00684 5.558857 L 16.023192 5.589926 L 16.042815 5.610094 L 16.066254 5.632988 L 16.094053 5.648795 L 16.132753 5.653156 L 16.161097 5.660787 L 16.195983 5.653156 L 16.228142 5.648795 L 16.254851 5.632988 L 16.278835 5.610094 L 16.299003 5.589926 L 16.314265 5.558857 L 16.321896 5.531058 L 16.326256 5.491812 L 16.321896 5.464013 L 16.314265 5.429128 L 16.299003 5.396968 L 16.278835 5.3768 L 16.254851 5.353907 L 16.228142 5.3381 L 16.195983 5.329924 L 16.132753 5.329924 L 16.094053 5.3381 L 16.066254 5.353907 L 16.042815 5.3768 L 16.023192 5.396968 L 16.00684 5.429128 L 15.999754 5.464013 L 15.999754 5.491812 " transform="matrix(7.166389, 0, 0, -7.166389, 0.24188, 115.942401)"/>
<path fill-rule="evenodd" fill="rgb(0%, 0%, 0%)" fill-opacity="1" stroke-width="0.051" stroke-linecap="round" stroke-linejoin="round" stroke="rgb(0%, 0%, 0%)" stroke-opacity="1" stroke-miterlimit="10" d="M 15.999754 4.833902 L 15.999754 4.869877 L 16.00684 4.897131 L 16.023192 4.928745 L 16.042815 4.947823 L 16.066254 4.971807 L 16.094053 4.988159 L 16.132753 4.99579 L 16.161097 5.002876 L 16.195983 4.99579 L 16.228142 4.988159 L 16.254851 4.971807 L 16.278835 4.947823 L 16.299003 4.928745 L 16.314265 4.897131 L 16.321896 4.869877 L 16.326256 4.833902 L 16.321896 4.802832 L 16.314265 4.766857 L 16.299003 4.735787 L 16.278835 4.716164 L 16.254851 4.692181 L 16.228142 4.676919 L 16.195983 4.673103 L 16.132753 4.673103 L 16.094053 4.676919 L 16.066254 4.692181 L 16.042815 4.716164 L 16.023192 4.735787 L 16.00684 4.766857 L 15.999754 4.802832 L 15.999754 4.833902 " transform="matrix(7.166389, 0, 0, -7.166389, 0.24188, 115.942401)"/>
<path fill-rule="evenodd" fill="rgb(0%, 0%, 0%)" fill-opacity="1" stroke-width="0.051" stroke-linecap="round" stroke-linejoin="round" stroke="rgb(0%, 0%, 0%)" stroke-opacity="1" stroke-miterlimit="10" d="M 15.999754 6.152993 L 15.999754 6.192239 L 16.00684 6.220038 L 16.023192 6.251108 L 16.042815 6.27073 L 16.066254 6.295259 L 16.094053 6.307251 L 16.132753 6.313792 L 16.161097 6.321968 L 16.195983 6.313792 L 16.228142 6.307251 L 16.254851 6.295259 L 16.278835 6.27073 L 16.299003 6.251108 L 16.314265 6.220038 L 16.321896 6.192239 L 16.326256 6.152993 L 16.321896 6.125194 L 16.314265 6.089764 L 16.299003 6.05924 L 16.278835 6.035256 L 16.254851 6.015088 L 16.228142 5.998736 L 16.195983 5.992195 L 16.132753 5.992195 L 16.094053 5.998736 L 16.066254 6.015088 L 16.042815 6.035256 L 16.023192 6.05924 L 16.00684 6.089764 L 15.999754 6.125194 L 15.999754 6.152993 " transform="matrix(7.166389, 0, 0, -7.166389, 0.24188, 115.942401)"/>
<path fill-rule="evenodd" fill="rgb(100%, 100%, 100%)" fill-opacity="1" stroke-width="0.051" stroke-linecap="round" stroke-linejoin="round" stroke="rgb(0%, 0%, 0%)" stroke-opacity="1" stroke-miterlimit="10" d="M 11.865873 3.510994 L 11.870234 3.578039 L 11.876775 3.641268 L 11.893127 3.707768 L 11.91711 3.767181 L 11.943819 3.82605 L 11.972163 3.876742 L 12.015225 3.92907 L 12.055015 3.979762 L 12.106253 4.022824 L 12.156945 4.062069 L 12.203822 4.089868 L 12.263236 4.122028 L 12.322104 4.141106 L 12.389149 4.156913 L 12.451833 4.173266 L 12.582107 4.173266 L 12.649152 4.156913 L 12.716197 4.141106 L 12.77125 4.122028 L 12.830118 4.089868 L 12.888987 4.062069 L 12.933138 4.022824 L 12.983831 3.979762 L 13.026892 3.92907 L 13.061777 3.876742 L 13.093937 3.82605 L 13.121736 3.767181 L 13.145174 3.707768 L 13.157166 3.641268 L 13.172973 3.578039 L 13.172973 3.443949 L 13.157166 3.376905 L 13.145174 3.314221 L 13.121736 3.254807 L 13.093937 3.195938 L 13.061777 3.145246 L 13.026892 3.094009 L 12.983831 3.042771 L 12.933138 3.00298 L 12.888987 2.959919 L 12.830118 2.93321 L 12.77125 2.901051 L 12.716197 2.880883 L 12.649152 2.866165 L 12.582107 2.857989 L 12.518878 2.849813 L 12.451833 2.857989 L 12.389149 2.866165 L 12.322104 2.880883 L 12.263236 2.901051 L 12.203822 2.93321 L 12.156945 2.959919 L 12.106253 3.00298 L 12.055015 3.042771 L 12.015225 3.094009 L 11.972163 3.145246 L 11.943819 3.195938 L 11.91711 3.254807 L 11.893127 3.314221 L 11.876775 3.376905 L 11.870234 3.443949 L 11.865873 3.510994 " transform="matrix(7.166389, 0, 0, -7.166389, 0.24188, 115.942401)"/>
<g fill="rgb(0%, 0%, 0%)" fill-opacity="1">
<use xlink:href="#glyph-2-0" x="88.180642" y="93.626265"/>
</g>
<path fill-rule="evenodd" fill="rgb(0%, 0%, 0%)" fill-opacity="1" stroke-width="0.051" stroke-linecap="round" stroke-linejoin="round" stroke="rgb(0%, 0%, 0%)" stroke-opacity="1" stroke-miterlimit="10" d="M 3.031229 5.002876 L 3.031229 5.03122 L 3.03886 5.059019 L 3.055212 5.090089 L 3.073745 5.117888 L 3.097728 5.13315 L 3.124982 5.148957 L 3.152781 5.164765 L 3.228002 5.164765 L 3.255256 5.148957 L 3.286871 5.13315 L 3.307039 5.117888 L 3.329932 5.090089 L 3.341924 5.059019 L 3.3501 5.03122 L 3.357731 5.002876 L 3.3501 4.964175 L 3.341924 4.936922 L 3.329932 4.904762 L 3.307039 4.885139 L 3.286871 4.862246 L 3.255256 4.845893 L 3.228002 4.838262 L 3.192027 4.833902 L 3.152781 4.838262 L 3.124982 4.845893 L 3.097728 4.862246 L 3.073745 4.885139 L 3.055212 4.904762 L 3.03886 4.936922 L 3.031229 4.964175 L 3.031229 5.002876 " transform="matrix(7.166389, 0, 0, -7.166389, 0.24188, 115.942401)"/>
<path fill-rule="evenodd" fill="rgb(0%, 0%, 0%)" fill-opacity="1" stroke-width="0.051" stroke-linecap="round" stroke-linejoin="round" stroke="rgb(0%, 0%, 0%)" stroke-opacity="1" stroke-miterlimit="10" d="M 3.031229 4.34224 L 3.031229 4.370039 L 3.03886 4.401109 L 3.055212 4.428908 L 3.073745 4.459977 L 3.097728 4.471969 L 3.124982 4.487776 L 3.152781 4.503038 L 3.228002 4.503038 L 3.255256 4.487776 L 3.286871 4.471969 L 3.307039 4.459977 L 3.329932 4.428908 L 3.341924 4.401109 L 3.3501 4.370039 L 3.357731 4.34224 L 3.3501 4.302994 L 3.341924 4.275195 L 3.329932 4.244126 L 3.307039 4.223958 L 3.286871 4.199974 L 3.255256 4.187983 L 3.228002 4.180897 L 3.192027 4.173266 L 3.152781 4.180897 L 3.124982 4.187983 L 3.097728 4.199974 L 3.073745 4.223958 L 3.055212 4.244126 L 3.03886 4.275195 L 3.031229 4.302994 L 3.031229 4.34224 " transform="matrix(7.166389, 0, 0, -7.166389, 0.24188, 115.942401)"/>
<path fill-rule="evenodd" fill="rgb(0%, 0%, 0%)" fill-opacity="1" stroke-width="0.051" stroke-linecap="round" stroke-linejoin="round" stroke="rgb(0%, 0%, 0%)" stroke-opacity="1" stroke-miterlimit="10" d="M 3.031229 5.660787 L 3.031229 5.691856 L 3.03886 5.7202 L 3.055212 5.75127 L 3.073745 5.779069 L 3.097728 5.794876 L 3.124982 5.811229 L 3.152781 5.82213 L 3.228002 5.82213 L 3.255256 5.811229 L 3.286871 5.794876 L 3.307039 5.779069 L 3.329932 5.75127 L 3.341924 5.7202 L 3.3501 5.691856 L 3.357731 5.660787 L 3.3501 5.624812 L 3.341924 5.598103 L 3.329932 5.565943 L 3.307039 5.546865 L 3.286871 5.522882 L 3.255256 5.507074 L 3.228002 5.498898 L 3.192027 5.491812 L 3.152781 5.498898 L 3.124982 5.507074 L 3.097728 5.522882 L 3.073745 5.546865 L 3.055212 5.565943 L 3.03886 5.598103 L 3.031229 5.624812 L 3.031229 5.660787 " transform="matrix(7.166389, 0, 0, -7.166389, 0.24188, 115.942401)"/>
<path fill-rule="evenodd" fill="rgb(100%, 100%, 100%)" fill-opacity="1" stroke-width="0.051" stroke-linecap="round" stroke-linejoin="round" stroke="rgb(0%, 0%, 0%)" stroke-opacity="1" stroke-miterlimit="10" d="M 15.507002 3.510994 L 15.507002 3.578039 L 15.518994 3.641268 L 15.534801 3.707768 L 15.558785 3.767181 L 15.586039 3.82605 L 15.613838 3.876742 L 15.66126 3.92907 L 15.696145 3.979762 L 15.747927 4.022824 L 15.799165 4.062069 L 15.849857 4.089868 L 15.90491 4.122028 L 15.963779 4.141106 L 16.030824 4.156913 L 16.094053 4.173266 L 16.228142 4.173266 L 16.290826 4.156913 L 16.357871 4.141106 L 16.41674 4.122028 L 16.471793 4.089868 L 16.52303 4.062069 L 16.574268 4.022824 L 16.62496 3.979762 L 16.669111 3.92907 L 16.703996 3.876742 L 16.736156 3.82605 L 16.762865 3.767181 L 16.786848 3.707768 L 16.79884 3.641268 L 16.814102 3.578039 L 16.814102 3.443949 L 16.79884 3.376905 L 16.786848 3.314221 L 16.762865 3.254807 L 16.736156 3.195938 L 16.703996 3.145246 L 16.669111 3.094009 L 16.62496 3.042771 L 16.574268 3.00298 L 16.52303 2.959919 L 16.471793 2.93321 L 16.41674 2.901051 L 16.357871 2.880883 L 16.290826 2.866165 L 16.228142 2.857989 L 16.161097 2.849813 L 16.094053 2.857989 L 16.030824 2.866165 L 15.963779 2.880883 L 15.90491 2.901051 L 15.849857 2.93321 L 15.799165 2.959919 L 15.747927 3.00298 L 15.696145 3.042771 L 15.66126 3.094009 L 15.613838 3.145246 L 15.586039 3.195938 L 15.558785 3.254807 L 15.534801 3.314221 L 15.518994 3.376905 L 15.507002 3.443949 L 15.507002 3.510994 " transform="matrix(7.166389, 0, 0, -7.166389, 0.24188, 115.942401)"/>
<g fill="rgb(0%, 0%, 0%)" fill-opacity="1">
<use xlink:href="#glyph-3-0" x="113.915145" y="92.558473"/>
</g>
<g fill="rgb(0%, 0%, 0%)" fill-opacity="1">
<use xlink:href="#glyph-0-0" x="106.777421" y="37.964921"/>
</g>
<g fill="rgb(0%, 0%, 0%)" fill-opacity="1">
<use xlink:href="#glyph-0-1" x="104.749333" y="37.964921"/>
</g>
<g fill="rgb(0%, 0%, 0%)" fill-opacity="1">
<use xlink:href="#glyph-0-2" x="103.258724" y="37.964921"/>
</g>
<g fill="rgb(0%, 0%, 0%)" fill-opacity="1">
<use xlink:href="#glyph-0-3" x="102.585084" y="42.307752"/>
</g>
<g fill="rgb(0%, 0%, 0%)" fill-opacity="1">
<use xlink:href="#glyph-1-1" x="100.385002" y="40.731147"/>
</g>
<path fill="none" stroke-width="0.051" stroke-linecap="round" stroke-linejoin="round" stroke="rgb(0%, 0%, 0%)" stroke-opacity="1" stroke-miterlimit="10" d="M 15.790989 10.1179 L 13.172973 10.1179 " transform="matrix(7.166389, 0, 0, -7.166389, 0.24188, 115.942401)"/>
<path fill-rule="evenodd" fill="rgb(100%, 100%, 100%)" fill-opacity="1" stroke-width="0.051" stroke-linecap="round" stroke-linejoin="round" stroke="rgb(0%, 0%, 0%)" stroke-opacity="1" stroke-miterlimit="10" d="M 11.865873 10.1179 L 11.870234 10.184945 L 11.876775 10.250899 L 11.893127 10.317944 L 11.91711 10.376812 L 11.943819 10.436771 L 11.972163 10.488009 L 12.015225 10.539246 L 12.055015 10.589938 L 12.106253 10.633 L 12.156945 10.668975 L 12.203822 10.700044 L 12.263236 10.727843 L 12.322104 10.750737 L 12.389149 10.767089 L 12.451833 10.779081 L 12.582107 10.779081 L 12.649152 10.767089 L 12.716197 10.750737 L 12.77125 10.727843 L 12.830118 10.700044 L 12.888987 10.668975 L 12.933138 10.633 L 12.983831 10.589938 L 13.026892 10.539246 L 13.061777 10.488009 L 13.093937 10.436771 L 13.121736 10.376812 L 13.145174 10.317944 L 13.157166 10.250899 L 13.172973 10.184945 L 13.172973 10.055216 L 13.157166 9.988171 L 13.145174 9.921126 L 13.121736 9.862258 L 13.093937 9.802844 L 13.061777 9.751061 L 13.026892 9.699824 L 12.983831 9.649132 L 12.933138 9.614247 L 12.888987 9.570095 L 12.830118 9.539026 L 12.77125 9.511227 L 12.716197 9.487788 L 12.649152 9.471981 L 12.582107 9.463805 L 12.518878 9.459989 L 12.451833 9.463805 L 12.389149 9.471981 L 12.322104 9.487788 L 12.263236 9.511227 L 12.203822 9.539026 L 12.156945 9.570095 L 12.106253 9.614247 L 12.055015 9.649132 L 12.015225 9.699824 L 11.972163 9.751061 L 11.943819 9.802844 L 11.91711 9.862258 L 11.893127 9.921126 L 11.876775 9.988171 L 11.870234 10.055216 L 11.865873 10.1179 " transform="matrix(7.166389, 0, 0, -7.166389, 0.24188, 115.942401)"/>
<g fill="rgb(0%, 0%, 0%)" fill-opacity="1">
<use xlink:href="#glyph-2-0" x="88.488796" y="45.46813"/>
</g>
<path fill-rule="evenodd" fill="rgb(100%, 100%, 100%)" fill-opacity="1" stroke-width="0.051" stroke-linecap="round" stroke-linejoin="round" stroke="rgb(0%, 0%, 0%)" stroke-opacity="1" stroke-miterlimit="10" d="M 15.463941 10.1179 L 15.472117 10.184945 L 15.475933 10.250899 L 15.49174 10.317944 L 15.515179 10.376812 L 15.542978 10.436771 L 15.577863 10.488009 L 15.613838 10.539246 L 15.66126 10.589938 L 15.703776 10.633 L 15.755013 10.668975 L 15.80298 10.700044 L 15.861849 10.727843 L 15.928894 10.750737 L 15.987762 10.767089 L 16.050991 10.779081 L 16.187806 10.779081 L 16.254851 10.767089 L 16.314265 10.750737 L 16.374223 10.727843 L 16.428731 10.700044 L 16.488145 10.668975 L 16.538837 10.633 L 16.581899 10.589938 L 16.62496 10.539246 L 16.660935 10.488009 L 16.700181 10.436771 L 16.719804 10.376812 L 16.743787 10.317944 L 16.762865 10.250899 L 16.771041 10.184945 L 16.779217 10.1179 L 16.771041 10.055216 L 16.762865 9.988171 L 16.743787 9.921126 L 16.719804 9.862258 L 16.700181 9.802844 L 16.660935 9.751061 L 16.62496 9.699824 L 16.581899 9.649132 L 16.538837 9.614247 L 16.488145 9.570095 L 16.428731 9.539026 L 16.374223 9.511227 L 16.314265 9.487788 L 16.254851 9.471981 L 16.187806 9.463805 L 16.118036 9.459989 L 16.050991 9.463805 L 15.987762 9.471981 L 15.928894 9.487788 L 15.861849 9.511227 L 15.80298 9.539026 L 15.755013 9.570095 L 15.703776 9.614247 L 15.66126 9.649132 L 15.613838 9.699824 L 15.577863 9.751061 L 15.542978 9.802844 L 15.515179 9.862258 L 15.49174 9.921126 L 15.475933 9.988171 L 15.472117 10.055216 L 15.463941 10.1179 " transform="matrix(7.166389, 0, 0, -7.166389, 0.24188, 115.942401)"/>
<g fill="rgb(0%, 0%, 0%)" fill-opacity="1">
<use xlink:href="#glyph-3-0" x="113.915145" y="45.21014"/>
</g>
<path fill="none" stroke-width="0.051" stroke-linecap="round" stroke-linejoin="round" stroke="rgb(0%, 0%, 0%)" stroke-opacity="1" stroke-miterlimit="10" d="M 15.790989 7.475901 L 13.172973 7.475901 " transform="matrix(7.166389, 0, 0, -7.166389, 0.24188, 115.942401)"/>
<path fill-rule="evenodd" fill="rgb(100%, 100%, 100%)" fill-opacity="1" stroke-width="0.051" stroke-linecap="round" stroke-linejoin="round" stroke="rgb(0%, 0%, 0%)" stroke-opacity="1" stroke-miterlimit="10" d="M 11.865873 7.475901 L 11.870234 7.542945 L 11.876775 7.60999 L 11.893127 7.673219 L 11.91711 7.732088 L 11.943819 7.790956 L 11.972163 7.842194 L 12.015225 7.892886 L 12.055015 7.944124 L 12.106253 7.992091 L 12.156945 8.026976 L 12.203822 8.054775 L 12.263236 8.085844 L 12.322104 8.106012 L 12.389149 8.12182 L 12.451833 8.137082 L 12.582107 8.137082 L 12.649152 8.12182 L 12.716197 8.106012 L 12.77125 8.085844 L 12.830118 8.054775 L 12.888987 8.026976 L 12.933138 7.992091 L 12.983831 7.944124 L 13.026892 7.892886 L 13.061777 7.842194 L 13.093937 7.790956 L 13.121736 7.732088 L 13.145174 7.673219 L 13.157166 7.60999 L 13.172973 7.542945 L 13.172973 7.408856 L 13.157166 7.341811 L 13.145174 7.279127 L 13.121736 7.220258 L 13.093937 7.160845 L 13.061777 7.110152 L 13.026892 7.058915 L 12.983831 7.007133 L 12.933138 6.967887 L 12.888987 6.924826 L 12.830118 6.897027 L 12.77125 6.865957 L 12.716197 6.845789 L 12.649152 6.829982 L 12.582107 6.821806 L 12.518878 6.814174 L 12.451833 6.821806 L 12.389149 6.829982 L 12.322104 6.845789 L 12.263236 6.865957 L 12.203822 6.897027 L 12.156945 6.924826 L 12.106253 6.967887 L 12.055015 7.007133 L 12.015225 7.058915 L 11.972163 7.110152 L 11.943819 7.160845 L 11.91711 7.220258 L 11.893127 7.279127 L 11.876775 7.341811 L 11.870234 7.408856 L 11.865873 7.475901 " transform="matrix(7.166389, 0, 0, -7.166389, 0.24188, 115.942401)"/>
<g fill="rgb(0%, 0%, 0%)" fill-opacity="1">
<use xlink:href="#glyph-2-0" x="88.488796" y="64.430396"/>
</g>
<path fill-rule="evenodd" fill="rgb(100%, 100%, 100%)" fill-opacity="1" stroke-width="0.051" stroke-linecap="round" stroke-linejoin="round" stroke="rgb(0%, 0%, 0%)" stroke-opacity="1" stroke-miterlimit="10" d="M 15.463941 7.475901 L 15.472117 7.542945 L 15.475933 7.60999 L 15.49174 7.673219 L 15.515179 7.732088 L 15.542978 7.790956 L 15.577863 7.842194 L 15.613838 7.892886 L 15.66126 7.944124 L 15.703776 7.992091 L 15.755013 8.026976 L 15.80298 8.054775 L 15.861849 8.085844 L 15.928894 8.106012 L 15.987762 8.12182 L 16.050991 8.137082 L 16.187806 8.137082 L 16.254851 8.12182 L 16.314265 8.106012 L 16.374223 8.085844 L 16.428731 8.054775 L 16.488145 8.026976 L 16.538837 7.992091 L 16.581899 7.944124 L 16.62496 7.892886 L 16.660935 7.842194 L 16.700181 7.790956 L 16.719804 7.732088 L 16.743787 7.673219 L 16.762865 7.60999 L 16.779217 7.475901 L 16.762865 7.341811 L 16.743787 7.279127 L 16.719804 7.220258 L 16.700181 7.160845 L 16.660935 7.110152 L 16.62496 7.058915 L 16.581899 7.007133 L 16.538837 6.967887 L 16.488145 6.924826 L 16.428731 6.897027 L 16.374223 6.865957 L 16.314265 6.845789 L 16.254851 6.829982 L 16.187806 6.821806 L 16.118036 6.814174 L 16.050991 6.821806 L 15.987762 6.829982 L 15.928894 6.845789 L 15.861849 6.865957 L 15.80298 6.897027 L 15.755013 6.924826 L 15.703776 6.967887 L 15.66126 7.007133 L 15.613838 7.058915 L 15.577863 7.110152 L 15.542978 7.160845 L 15.515179 7.220258 L 15.49174 7.279127 L 15.475933 7.341811 L 15.472117 7.408856 L 15.463941 7.475901 " transform="matrix(7.166389, 0, 0, -7.166389, 0.24188, 115.942401)"/>
<g fill="rgb(0%, 0%, 0%)" fill-opacity="1">
<use xlink:href="#glyph-3-0" x="113.915145" y="64.14374"/>
</g>
<path fill="none" stroke-width="0.051" stroke-linecap="round" stroke-linejoin="round" stroke="rgb(0%, 0%, 0%)" stroke-opacity="1" stroke-miterlimit="10" d="M 11.865873 7.475901 L 5.279135 8.798808 " transform="matrix(7.166389, 0, 0, -7.166389, 0.24188, 115.942401)"/>
<g fill="rgb(0%, 0%, 0%)" fill-opacity="1">
<use xlink:href="#glyph-0-0" x="107.056911" y="56.891354"/>
</g>
<g fill="rgb(0%, 0%, 0%)" fill-opacity="1">
<use xlink:href="#glyph-0-1" x="105.000157" y="56.891354"/>
</g>
<g fill="rgb(0%, 0%, 0%)" fill-opacity="1">
<use xlink:href="#glyph-0-2" x="103.509548" y="56.891354"/>
</g>
<g fill="rgb(0%, 0%, 0%)" fill-opacity="1">
<use xlink:href="#glyph-0-1" x="103.258724" y="61.262852"/>
</g>
<g fill="rgb(0%, 0%, 0%)" fill-opacity="1">
<use xlink:href="#glyph-1-1" x="100.635826" y="59.686246"/>
</g>
<g fill="rgb(0%, 0%, 0%)" fill-opacity="1">
<use xlink:href="#glyph-0-0" x="130.756159" y="37.964921"/>
</g>
<g fill="rgb(0%, 0%, 0%)" fill-opacity="1">
<use xlink:href="#glyph-0-1" x="128.785402" y="37.964921"/>
</g>
<g fill="rgb(0%, 0%, 0%)" fill-opacity="1">
<use xlink:href="#glyph-0-2" x="127.266128" y="37.964921"/>
</g>
<g fill="rgb(0%, 0%, 0%)" fill-opacity="1">
<use xlink:href="#glyph-0-3" x="126.592487" y="42.307752"/>
</g>
<g fill="rgb(0%, 0%, 0%)" fill-opacity="1">
<use xlink:href="#glyph-1-2" x="123.776096" y="40.731147"/>
</g>
<g fill="rgb(0%, 0%, 0%)" fill-opacity="1">
<use xlink:href="#glyph-0-0" x="130.756159" y="56.891354"/>
</g>
<g fill="rgb(0%, 0%, 0%)" fill-opacity="1">
<use xlink:href="#glyph-0-1" x="128.785402" y="56.891354"/>
</g>
<g fill="rgb(0%, 0%, 0%)" fill-opacity="1">
<use xlink:href="#glyph-0-2" x="127.266128" y="56.891354"/>
</g>
<g fill="rgb(0%, 0%, 0%)" fill-opacity="1">
<use xlink:href="#glyph-0-1" x="126.957973" y="61.262852"/>
</g>
<g fill="rgb(0%, 0%, 0%)" fill-opacity="1">
<use xlink:href="#glyph-1-2" x="123.776096" y="59.686246"/>
</g>
<path fill="none" stroke-width="0.051" stroke-linecap="round" stroke-linejoin="round" stroke="rgb(0%, 0%, 0%)" stroke-opacity="1" stroke-miterlimit="10" d="M 27.573967 4.503038 L 24.91289 4.503038 " transform="matrix(7.166389, 0, 0, -7.166389, 0.24188, 115.942401)"/>
<path fill-rule="evenodd" fill="rgb(0%, 0%, 0%)" fill-opacity="1" stroke-width="0.051" stroke-linecap="round" stroke-linejoin="round" stroke="rgb(0%, 0%, 0%)" stroke-opacity="1" stroke-miterlimit="10" d="M 24.144873 6.483856 L 24.144873 6.523102 L 24.149234 6.550901 L 24.165041 6.578155 L 24.187934 6.602139 L 24.208102 6.625032 L 24.240262 6.637024 L 24.266971 6.6452 L 24.302946 6.652831 L 24.337831 6.6452 L 24.369991 6.637024 L 24.397245 6.625032 L 24.421228 6.602139 L 24.439761 6.578155 L 24.456113 6.550901 L 24.463745 6.523102 L 24.471921 6.483856 L 24.463745 6.456057 L 24.456113 6.416812 L 24.439761 6.389013 L 24.421228 6.366119 L 24.397245 6.345951 L 24.369991 6.330144 L 24.337831 6.321968 L 24.266971 6.321968 L 24.240262 6.330144 L 24.208102 6.345951 L 24.165041 6.389013 L 24.149234 6.416812 L 24.144873 6.456057 L 24.144873 6.483856 " transform="matrix(7.166389, 0, 0, -7.166389, 0.24188, 115.942401)"/>
<path fill-rule="evenodd" fill="rgb(0%, 0%, 0%)" fill-opacity="1" stroke-width="0.051" stroke-linecap="round" stroke-linejoin="round" stroke="rgb(0%, 0%, 0%)" stroke-opacity="1" stroke-miterlimit="10" d="M 24.144873 5.82213 L 24.144873 5.861921 L 24.149234 5.889175 L 24.165041 5.92079 L 24.187934 5.939867 L 24.208102 5.963851 L 24.240262 5.980203 L 24.266971 5.984019 L 24.302946 5.992195 L 24.337831 5.984019 L 24.369991 5.980203 L 24.397245 5.963851 L 24.421228 5.939867 L 24.439761 5.92079 L 24.456113 5.889175 L 24.463745 5.861921 L 24.471921 5.82213 L 24.463745 5.794876 L 24.456113 5.758901 L 24.439761 5.727832 L 24.421228 5.708209 L 24.397245 5.68477 L 24.369991 5.668963 L 24.337831 5.660787 L 24.266971 5.660787 L 24.240262 5.668963 L 24.208102 5.68477 L 24.187934 5.708209 L 24.165041 5.727832 L 24.149234 5.758901 L 24.144873 5.794876 L 24.144873 5.82213 " transform="matrix(7.166389, 0, 0, -7.166389, 0.24188, 115.942401)"/>
<path fill-rule="evenodd" fill="rgb(0%, 0%, 0%)" fill-opacity="1" stroke-width="0.051" stroke-linecap="round" stroke-linejoin="round" stroke="rgb(0%, 0%, 0%)" stroke-opacity="1" stroke-miterlimit="10" d="M 24.144873 7.145038 L 24.144873 7.181013 L 24.149234 7.212082 L 24.165041 7.239881 L 24.187934 7.262775 L 24.208102 7.286758 L 24.240262 7.29875 L 24.266971 7.306926 L 24.302946 7.314012 L 24.337831 7.306926 L 24.369991 7.29875 L 24.397245 7.286758 L 24.421228 7.262775 L 24.439761 7.239881 L 24.456113 7.212082 L 24.463745 7.181013 L 24.471921 7.145038 L 24.463745 7.117784 L 24.456113 7.077993 L 24.439761 7.050739 L 24.421228 7.026755 L 24.397245 7.007133 L 24.369991 6.99187 L 24.337831 6.984239 L 24.266971 6.984239 L 24.240262 6.99187 L 24.208102 7.007133 L 24.187934 7.026755 L 24.165041 7.050739 L 24.149234 7.077993 L 24.144873 7.117784 L 24.144873 7.145038 " transform="matrix(7.166389, 0, 0, -7.166389, 0.24188, 115.942401)"/>
<path fill-rule="evenodd" fill="rgb(0%, 0%, 0%)" fill-opacity="1" stroke-width="0.051" stroke-linecap="round" stroke-linejoin="round" stroke="rgb(0%, 0%, 0%)" stroke-opacity="1" stroke-miterlimit="10" d="M 28.069989 6.483856 L 28.069989 6.523102 L 28.081981 6.550901 L 28.097788 6.578155 L 28.11414 6.602139 L 28.140849 6.625032 L 28.164833 6.637024 L 28.200263 6.6452 L 28.228062 6.652831 L 28.266762 6.6452 L 28.295107 6.637024 L 28.321815 6.625032 L 28.345799 6.602139 L 28.365967 6.578155 L 28.381229 6.550901 L 28.38886 6.523102 L 28.397036 6.483856 L 28.38886 6.456057 L 28.381229 6.416812 L 28.365967 6.389013 L 28.345799 6.366119 L 28.321815 6.345951 L 28.295107 6.330144 L 28.266762 6.321968 L 28.200263 6.321968 L 28.164833 6.330144 L 28.140849 6.345951 L 28.11414 6.366119 L 28.097788 6.389013 L 28.081981 6.416812 L 28.069989 6.456057 L 28.069989 6.483856 " transform="matrix(7.166389, 0, 0, -7.166389, 0.24188, 115.942401)"/>
<path fill-rule="evenodd" fill="rgb(0%, 0%, 0%)" fill-opacity="1" stroke-width="0.051" stroke-linecap="round" stroke-linejoin="round" stroke="rgb(0%, 0%, 0%)" stroke-opacity="1" stroke-miterlimit="10" d="M 28.069989 5.82213 L 28.069989 5.861921 L 28.081981 5.889175 L 28.097788 5.92079 L 28.11414 5.939867 L 28.140849 5.963851 L 28.164833 5.980203 L 28.200263 5.984019 L 28.228062 5.992195 L 28.266762 5.984019 L 28.295107 5.980203 L 28.321815 5.963851 L 28.345799 5.939867 L 28.365967 5.92079 L 28.381229 5.889175 L 28.38886 5.861921 L 28.397036 5.82213 L 28.38886 5.794876 L 28.381229 5.758901 L 28.365967 5.727832 L 28.345799 5.708209 L 28.321815 5.68477 L 28.295107 5.668963 L 28.266762 5.660787 L 28.200263 5.660787 L 28.164833 5.668963 L 28.140849 5.68477 L 28.11414 5.708209 L 28.097788 5.727832 L 28.081981 5.758901 L 28.069989 5.794876 L 28.069989 5.82213 " transform="matrix(7.166389, 0, 0, -7.166389, 0.24188, 115.942401)"/>
<path fill-rule="evenodd" fill="rgb(0%, 0%, 0%)" fill-opacity="1" stroke-width="0.051" stroke-linecap="round" stroke-linejoin="round" stroke="rgb(0%, 0%, 0%)" stroke-opacity="1" stroke-miterlimit="10" d="M 28.069989 7.145038 L 28.069989 7.181013 L 28.081981 7.212082 L 28.097788 7.239881 L 28.11414 7.262775 L 28.140849 7.286758 L 28.164833 7.29875 L 28.200263 7.306926 L 28.228062 7.314012 L 28.266762 7.306926 L 28.295107 7.29875 L 28.321815 7.286758 L 28.345799 7.262775 L 28.365967 7.239881 L 28.381229 7.212082 L 28.38886 7.181013 L 28.397036 7.145038 L 28.38886 7.117784 L 28.381229 7.077993 L 28.365967 7.050739 L 28.345799 7.026755 L 28.321815 7.007133 L 28.295107 6.99187 L 28.266762 6.984239 L 28.200263 6.984239 L 28.164833 6.99187 L 28.140849 7.007133 L 28.11414 7.026755 L 28.097788 7.050739 L 28.081981 7.077993 L 28.069989 7.117784 L 28.069989 7.145038 " transform="matrix(7.166389, 0, 0, -7.166389, 0.24188, 115.942401)"/>
<path fill-rule="evenodd" fill="rgb(100%, 100%, 100%)" fill-opacity="1" stroke-width="0.051" stroke-linecap="round" stroke-linejoin="round" stroke="rgb(0%, 0%, 0%)" stroke-opacity="1" stroke-miterlimit="10" d="M 23.648851 4.503038 L 23.648851 4.566268 L 23.665203 4.632767 L 23.677195 4.699812 L 23.700089 4.759226 L 23.727888 4.818094 L 23.758957 4.869877 L 23.794932 4.921114 L 23.837994 4.971807 L 23.889231 5.014868 L 23.939923 5.055204 L 23.992251 5.081913 L 24.05112 5.110257 L 24.106173 5.13315 L 24.240262 5.164765 L 24.369991 5.164765 L 24.43322 5.148957 L 24.500265 5.13315 L 24.559133 5.110257 L 24.618002 5.081913 L 24.664879 5.055204 L 24.716116 5.014868 L 24.766809 4.971807 L 24.807144 4.921114 L 24.850206 4.869877 L 24.876915 4.818094 L 24.905259 4.759226 L 24.929242 4.699812 L 24.943959 4.632767 L 24.955951 4.566268 L 24.955951 4.437084 L 24.943959 4.370039 L 24.929242 4.302994 L 24.905259 4.244126 L 24.876915 4.187983 L 24.850206 4.13293 L 24.807144 4.082237 L 24.766809 4.031 L 24.716116 3.996115 L 24.664879 3.951963 L 24.618002 3.920894 L 24.559133 3.893095 L 24.500265 3.870201 L 24.43322 3.85821 L 24.369991 3.850034 L 24.302946 3.841857 L 24.240262 3.850034 L 24.173217 3.85821 L 24.106173 3.870201 L 24.05112 3.893095 L 23.992251 3.920894 L 23.939923 3.951963 L 23.889231 3.996115 L 23.837994 4.031 L 23.794932 4.082237 L 23.758957 4.13293 L 23.727888 4.187983 L 23.700089 4.244126 L 23.677195 4.302994 L 23.665203 4.370039 L 23.648851 4.437084 L 23.648851 4.503038 " transform="matrix(7.166389, 0, 0, -7.166389, 0.24188, 115.942401)"/>
<g fill="rgb(0%, 0%, 0%)" fill-opacity="1">
<use xlink:href="#glyph-2-0" x="172.629371" y="86.517207"/>
</g>
<path fill-rule="evenodd" fill="rgb(100%, 100%, 100%)" fill-opacity="1" stroke-width="0.051" stroke-linecap="round" stroke-linejoin="round" stroke="rgb(0%, 0%, 0%)" stroke-opacity="1" stroke-miterlimit="10" d="M 27.573967 4.503038 L 27.582143 4.566268 L 27.589774 4.632767 L 27.606126 4.699812 L 27.625204 4.759226 L 27.653003 4.818094 L 27.692249 4.869877 L 27.728224 4.921114 L 27.77074 4.971807 L 27.813802 5.014868 L 27.866129 5.055204 L 27.916822 5.081913 L 27.976235 5.110257 L 28.030743 5.13315 L 28.164833 5.164765 L 28.295107 5.164765 L 28.362151 5.148957 L 28.424835 5.13315 L 28.484249 5.110257 L 28.543118 5.081913 L 28.598171 5.055204 L 28.648863 5.014868 L 28.691924 4.971807 L 28.739891 4.921114 L 28.774776 4.869877 L 28.80312 4.818094 L 28.83419 4.759226 L 28.853813 4.699812 L 28.870165 4.632767 L 28.884882 4.566268 L 28.884882 4.437084 L 28.870165 4.370039 L 28.853813 4.302994 L 28.83419 4.244126 L 28.80312 4.187983 L 28.774776 4.13293 L 28.739891 4.082237 L 28.691924 4.031 L 28.648863 3.996115 L 28.598171 3.951963 L 28.543118 3.920894 L 28.484249 3.893095 L 28.424835 3.870201 L 28.362151 3.85821 L 28.228062 3.841857 L 28.164833 3.850034 L 28.097788 3.85821 L 28.030743 3.870201 L 27.976235 3.893095 L 27.916822 3.920894 L 27.866129 3.951963 L 27.813802 3.996115 L 27.77074 4.031 L 27.728224 4.082237 L 27.692249 4.13293 L 27.653003 4.187983 L 27.625204 4.244126 L 27.606126 4.302994 L 27.589774 4.370039 L 27.582143 4.437084 L 27.573967 4.503038 " transform="matrix(7.166389, 0, 0, -7.166389, 0.24188, 115.942401)"/>
<g fill="rgb(0%, 0%, 0%)" fill-opacity="1">
<use xlink:href="#glyph-3-0" x="200.420628" y="85.478081"/>
</g>
<path fill="none" stroke-width="0.051" stroke-linecap="round" stroke-linejoin="round" stroke="rgb(0%, 0%, 0%)" stroke-opacity="1" stroke-miterlimit="10" d="M 27.573967 8.467945 L 24.955951 8.467945 " transform="matrix(7.166389, 0, 0, -7.166389, 0.24188, 115.942401)"/>
<path fill-rule="evenodd" fill="rgb(100%, 100%, 100%)" fill-opacity="1" stroke-width="0.051" stroke-linecap="round" stroke-linejoin="round" stroke="rgb(0%, 0%, 0%)" stroke-opacity="1" stroke-miterlimit="10" d="M 23.648851 8.467945 L 23.648851 8.53499 L 23.665203 8.598219 L 23.677195 8.665264 L 23.700089 8.724132 L 23.727888 8.783001 L 23.758957 8.834238 L 23.794932 8.884931 L 23.837994 8.937258 L 23.889231 8.979774 L 23.939923 9.01902 L 23.992251 9.046819 L 24.05112 9.077889 L 24.106173 9.098057 L 24.173217 9.113864 L 24.240262 9.129126 L 24.369991 9.129126 L 24.43322 9.113864 L 24.500265 9.098057 L 24.559133 9.077889 L 24.618002 9.046819 L 24.664879 9.01902 L 24.716116 8.979774 L 24.766809 8.937258 L 24.807144 8.884931 L 24.850206 8.834238 L 24.876915 8.783001 L 24.905259 8.724132 L 24.929242 8.665264 L 24.943959 8.598219 L 24.955951 8.53499 L 24.955951 8.4009 L 24.943959 8.333855 L 24.929242 8.266811 L 24.905259 8.211758 L 24.876915 8.152889 L 24.850206 8.102197 L 24.807144 8.047144 L 24.766809 7.995906 L 24.716116 7.959931 L 24.664879 7.91687 L 24.618002 7.885255 L 24.559133 7.858001 L 24.500265 7.834018 L 24.43322 7.822026 L 24.369991 7.81385 L 24.302946 7.806764 L 24.240262 7.81385 L 24.173217 7.822026 L 24.106173 7.834018 L 24.05112 7.858001 L 23.992251 7.885255 L 23.939923 7.91687 L 23.889231 7.959931 L 23.837994 7.995906 L 23.794932 8.047144 L 23.758957 8.102197 L 23.727888 8.152889 L 23.700089 8.211758 L 23.677195 8.266811 L 23.665203 8.333855 L 23.648851 8.4009 L 23.648851 8.467945 " transform="matrix(7.166389, 0, 0, -7.166389, 0.24188, 115.942401)"/>
<g clip-path="url(#clip-1)">
<g fill="rgb(0%, 0%, 0%)" fill-opacity="1">
<use xlink:href="#glyph-2-0" x="172.90886" y="57.314171"/>
</g>
</g>
<path fill-rule="evenodd" fill="rgb(100%, 100%, 100%)" fill-opacity="1" stroke-width="0.051" stroke-linecap="round" stroke-linejoin="round" stroke="rgb(0%, 0%, 0%)" stroke-opacity="1" stroke-miterlimit="10" d="M 27.539082 8.467945 L 27.539082 8.53499 L 27.547258 8.598219 L 27.565791 8.665264 L 27.589774 8.724132 L 27.609942 8.783001 L 27.649188 8.834238 L 27.685163 8.884931 L 27.728224 8.937258 L 27.77074 8.979774 L 27.821978 9.01902 L 27.880846 9.046819 L 27.93699 9.077889 L 27.995858 9.098057 L 28.055272 9.113864 L 28.121771 9.129126 L 28.259131 9.129126 L 28.321815 9.113864 L 28.381229 9.098057 L 28.447729 9.077889 L 28.502782 9.046819 L 28.555109 9.01902 L 28.605802 8.979774 L 28.648863 8.937258 L 28.691924 8.884931 L 28.73226 8.834238 L 28.767145 8.783001 L 28.794944 8.724132 L 28.817838 8.665264 L 28.83419 8.598219 L 28.838006 8.53499 L 28.846182 8.467945 L 28.838006 8.4009 L 28.83419 8.333855 L 28.817838 8.266811 L 28.794944 8.211758 L 28.767145 8.152889 L 28.73226 8.102197 L 28.691924 8.047144 L 28.648863 7.995906 L 28.605802 7.959931 L 28.555109 7.91687 L 28.502782 7.885255 L 28.447729 7.858001 L 28.381229 7.834018 L 28.321815 7.822026 L 28.259131 7.81385 L 28.192087 7.806764 L 28.121771 7.81385 L 28.055272 7.822026 L 27.995858 7.834018 L 27.93699 7.858001 L 27.880846 7.885255 L 27.821978 7.91687 L 27.77074 7.959931 L 27.728224 7.995906 L 27.685163 8.047144 L 27.649188 8.102197 L 27.609942 8.152889 L 27.589774 8.211758 L 27.565791 8.266811 L 27.547258 8.333855 L 27.539082 8.4009 L 27.539082 8.467945 " transform="matrix(7.166389, 0, 0, -7.166389, 0.24188, 115.942401)"/>
<g fill="rgb(0%, 0%, 0%)" fill-opacity="1">
<use xlink:href="#glyph-3-0" x="200.420628" y="57.063348"/>
</g>
<g fill="rgb(0%, 0%, 0%)" fill-opacity="1">
<use xlink:href="#glyph-0-0" x="221.496979" y="49.782296"/>
</g>
<g fill="rgb(0%, 0%, 0%)" fill-opacity="1">
<use xlink:href="#glyph-0-4" x="219.640884" y="49.782296"/>
</g>
<g fill="rgb(0%, 0%, 0%)" fill-opacity="1">
<use xlink:href="#glyph-0-2" x="218.236272" y="49.782296"/>
</g>
<g fill="rgb(0%, 0%, 0%)" fill-opacity="1">
<use xlink:href="#glyph-0-3" x="217.562631" y="54.153794"/>
</g>
<g fill="rgb(0%, 0%, 0%)" fill-opacity="1">
<use xlink:href="#glyph-1-2" x="214.74624" y="52.577188"/>
</g>
<path fill="none" stroke-width="0.051" stroke-linecap="round" stroke-linejoin="round" stroke="rgb(0%, 0%, 0%)" stroke-opacity="1" stroke-miterlimit="10" d="M 18.41282 3.510994 L 23.648851 8.467945 " transform="matrix(7.166389, 0, 0, -7.166389, 0.24188, 115.942401)"/>
<path fill="none" stroke-width="0.051" stroke-linecap="round" stroke-linejoin="round" stroke="rgb(0%, 0%, 0%)" stroke-opacity="1" stroke-miterlimit="10" d="M 18.41282 10.1179 L 23.648851 8.467945 " transform="matrix(7.166389, 0, 0, -7.166389, 0.24188, 115.942401)"/>
<path fill="none" stroke-width="0.051" stroke-linecap="round" stroke-linejoin="round" stroke="rgb(0%, 0%, 0%)" stroke-opacity="1" stroke-miterlimit="10" d="M 18.41282 10.1179 L 23.648851 4.503038 " transform="matrix(7.166389, 0, 0, -7.166389, 0.24188, 115.942401)"/>
<path fill="none" stroke-width="0.051" stroke-linecap="round" stroke-linejoin="round" stroke="rgb(0%, 0%, 0%)" stroke-opacity="1" stroke-miterlimit="10" d="M 18.41282 7.475901 L 23.648851 4.503038 " transform="matrix(7.166389, 0, 0, -7.166389, 0.24188, 115.942401)"/>
<path fill="none" stroke-width="0.051" stroke-linecap="round" stroke-linejoin="round" stroke="rgb(0%, 0%, 0%)" stroke-opacity="1" stroke-miterlimit="10" d="M 18.41282 10.1179 L 16.779217 10.1179 " transform="matrix(7.166389, 0, 0, -7.166389, 0.24188, 115.942401)"/>
<path fill="none" stroke-width="0.051" stroke-linecap="round" stroke-linejoin="round" stroke="rgb(0%, 0%, 0%)" stroke-opacity="1" stroke-miterlimit="10" d="M 18.41282 3.510994 L 16.779217 3.510994 " transform="matrix(7.166389, 0, 0, -7.166389, 0.24188, 115.942401)"/>
<path fill="none" stroke-width="0.051" stroke-linecap="round" stroke-linejoin="round" stroke="rgb(0%, 0%, 0%)" stroke-opacity="1" stroke-miterlimit="10" d="M 18.41282 7.475901 L 16.779217 7.475901 " transform="matrix(7.166389, 0, 0, -7.166389, 0.24188, 115.942401)"/>
<path fill="none" stroke-width="0.051" stroke-linecap="round" stroke-linejoin="round" stroke="rgb(0%, 0%, 0%)" stroke-opacity="1" stroke-miterlimit="10" d="M 18.41282 3.510994 L 23.648851 4.503038 " transform="matrix(7.166389, 0, 0, -7.166389, 0.24188, 115.942401)"/>
<path fill="none" stroke-width="0.051" stroke-linecap="round" stroke-linejoin="round" stroke="rgb(0%, 0%, 0%)" stroke-opacity="1" stroke-miterlimit="10" d="M 23.648851 8.467945 L 19.070185 14.082261 " transform="matrix(7.166389, 0, 0, -7.166389, 0.24188, 115.942401)"/>
<path fill="none" stroke-width="0.051" stroke-linecap="round" stroke-linejoin="round" stroke="rgb(0%, 0%, 0%)" stroke-opacity="1" stroke-miterlimit="10" d="M 23.648851 4.503038 L 19.070185 14.082261 " transform="matrix(7.166389, 0, 0, -7.166389, 0.24188, 115.942401)"/>
<g fill="rgb(0%, 0%, 0%)" fill-opacity="1">
<use xlink:href="#glyph-0-0" x="145.425758" y="10.732642"/>
</g>
<g fill="rgb(0%, 0%, 0%)" fill-opacity="1">
<use xlink:href="#glyph-0-4" x="143.512332" y="10.732642"/>
</g>
<g fill="rgb(0%, 0%, 0%)" fill-opacity="1">
<use xlink:href="#glyph-0-2" x="142.10772" y="10.732642"/>
</g>
<g fill="rgb(0%, 0%, 0%)" fill-opacity="1">
<use xlink:href="#glyph-0-3" x="141.23342" y="15.104139"/>
</g>
<g clip-path="url(#clip-2)">
<g fill="rgb(0%, 0%, 0%)" fill-opacity="1">
<use xlink:href="#glyph-1-0" x="138.839846" y="13.527534"/>
</g>
</g>
<path fill="none" stroke-width="0.051" stroke-linecap="round" stroke-linejoin="round" stroke="rgb(0%, 0%, 0%)" stroke-opacity="1" stroke-miterlimit="10" d="M 29.547154 8.467945 L 28.846182 8.467945 " transform="matrix(7.166389, 0, 0, -7.166389, 0.24188, 115.942401)"/>
<path fill-rule="evenodd" fill="rgb(0%, 0%, 0%)" fill-opacity="1" d="M 211.5625 53.59375 L 216.667969 55.257812 L 211.5625 56.949219 L 211.5625 53.59375 "/>
<path fill="none" stroke-width="0.051" stroke-linecap="round" stroke-linejoin="round" stroke="rgb(0%, 0%, 0%)" stroke-opacity="1" stroke-miterlimit="10" d="M 29.547154 4.503038 L 28.846182 4.503038 " transform="matrix(7.166389, 0, 0, -7.166389, 0.24188, 115.942401)"/>
<path fill-rule="evenodd" fill="rgb(0%, 0%, 0%)" fill-opacity="1" d="M 211.5625 82.003906 L 216.667969 83.671875 L 211.5625 85.363281 L 211.5625 82.003906 "/>
<g fill="rgb(0%, 0%, 0%)" fill-opacity="1">
<use xlink:href="#glyph-0-0" x="191.190319" y="49.782296"/>
</g>
<g fill="rgb(0%, 0%, 0%)" fill-opacity="1">
<use xlink:href="#glyph-0-4" x="189.305559" y="49.782296"/>
</g>
<g fill="rgb(0%, 0%, 0%)" fill-opacity="1">
<use xlink:href="#glyph-0-2" x="187.900947" y="49.782296"/>
</g>
<g fill="rgb(0%, 0%, 0%)" fill-opacity="1">
<use xlink:href="#glyph-0-3" x="187.227306" y="54.153794"/>
</g>
<g fill="rgb(0%, 0%, 0%)" fill-opacity="1">
<use xlink:href="#glyph-1-1" x="185.05589" y="52.577188"/>
</g>
<path fill-rule="evenodd" fill="rgb(100%, 100%, 100%)" fill-opacity="1" stroke-width="0.051" stroke-linecap="round" stroke-linejoin="round" stroke="rgb(0%, 0%, 0%)" stroke-opacity="1" stroke-miterlimit="10" d="M 2.696005 8.798808 L 2.704181 8.862037 L 2.711812 8.929082 L 2.73198 8.996127 L 2.754873 9.054995 L 2.775041 9.113864 L 2.813742 9.165101 L 2.850262 9.215794 L 2.892778 9.267031 L 2.93693 9.311182 L 2.988167 9.349883 L 3.047036 9.377137 L 3.097728 9.404936 L 3.160957 9.42892 L 3.219826 9.444182 L 3.286871 9.459989 L 3.424776 9.459989 L 3.488005 9.444182 L 3.546874 9.42892 L 3.613918 9.404936 L 3.665156 9.377137 L 3.720209 9.349883 L 3.770901 9.311182 L 3.813962 9.267031 L 3.861929 9.215794 L 3.896814 9.165101 L 3.93279 9.113864 L 3.960044 9.054995 L 3.984027 8.996127 L 3.999834 8.929082 L 4.003105 8.862037 L 4.010736 8.798808 L 4.003105 8.731763 L 3.999834 8.665264 L 3.984027 8.598219 L 3.960044 8.538805 L 3.93279 8.483752 L 3.896814 8.429244 L 3.861929 8.376917 L 3.813962 8.326224 L 3.770901 8.290794 L 3.720209 8.247733 L 3.665156 8.216118 L 3.613918 8.187774 L 3.546874 8.164881 L 3.488005 8.152889 L 3.424776 8.145258 L 3.357731 8.137082 L 3.286871 8.145258 L 3.219826 8.152889 L 3.160957 8.164881 L 3.097728 8.187774 L 3.047036 8.216118 L 2.988167 8.247733 L 2.93693 8.290794 L 2.892778 8.326224 L 2.850262 8.376917 L 2.813742 8.429244 L 2.775041 8.483752 L 2.754873 8.538805 L 2.73198 8.598219 L 2.711812 8.665264 L 2.704181 8.731763 L 2.696005 8.798808 " transform="matrix(7.166389, 0, 0, -7.166389, 0.24188, 115.942401)"/>
<path fill-rule="evenodd" fill="rgb(100%, 100%, 100%)" fill-opacity="1" stroke-width="0.051" stroke-linecap="round" stroke-linejoin="round" stroke="rgb(0%, 0%, 0%)" stroke-opacity="1" stroke-miterlimit="10" d="M 2.696005 11.440262 L 2.704181 11.506762 L 2.711812 11.573806 L 2.73198 11.637036 L 2.754873 11.695904 L 2.775041 11.754773 L 2.813742 11.8071 L 2.850262 11.857793 L 2.892778 11.90903 L 2.93693 11.955907 L 2.988167 11.991882 L 3.047036 12.019136 L 3.097728 12.050751 L 3.160957 12.069829 L 3.219826 12.086181 L 3.286871 12.101988 L 3.424776 12.101988 L 3.488005 12.086181 L 3.546874 12.069829 L 3.613918 12.050751 L 3.665156 12.019136 L 3.720209 11.991882 L 3.770901 11.955907 L 3.813962 11.90903 L 3.861929 11.857793 L 3.896814 11.8071 L 3.93279 11.754773 L 3.960044 11.695904 L 3.984027 11.637036 L 3.999834 11.573806 L 4.003105 11.506762 L 4.010736 11.440262 L 4.003105 11.373762 L 3.999834 11.311078 L 3.984027 11.244033 L 3.960044 11.185165 L 3.93279 11.125206 L 3.896814 11.073969 L 3.861929 11.022731 L 3.813962 10.972039 L 3.770901 10.932793 L 3.720209 10.889187 L 3.665156 10.861933 L 3.613918 10.829773 L 3.546874 10.811241 L 3.488005 10.794888 L 3.424776 10.787257 L 3.357731 10.779081 L 3.286871 10.787257 L 3.219826 10.794888 L 3.160957 10.811241 L 3.097728 10.829773 L 3.047036 10.861933 L 2.988167 10.889187 L 2.93693 10.932793 L 2.892778 10.972039 L 2.850262 11.022731 L 2.813742 11.073969 L 2.775041 11.125206 L 2.754873 11.185165 L 2.73198 11.244033 L 2.711812 11.311078 L 2.704181 11.373762 L 2.696005 11.440262 " transform="matrix(7.166389, 0, 0, -7.166389, 0.24188, 115.942401)"/>
<path fill-rule="evenodd" fill="rgb(100%, 100%, 100%)" fill-opacity="1" stroke-width="0.051" stroke-linecap="round" stroke-linejoin="round" stroke="rgb(0%, 0%, 0%)" stroke-opacity="1" stroke-miterlimit="10" d="M 2.704181 0.870085 L 2.704181 0.932769 L 2.711812 0.999269 L 2.73198 1.065769 L 2.754873 1.125182 L 2.775041 1.185141 L 2.813742 1.235833 L 2.850262 1.287071 L 2.892778 1.337763 L 2.93693 1.380825 L 2.988167 1.4168 L 3.047036 1.447869 L 3.097728 1.476213 L 3.160957 1.499107 L 3.219826 1.514914 L 3.286871 1.526906 L 3.424776 1.526906 L 3.488005 1.514914 L 3.546874 1.499107 L 3.613918 1.476213 L 3.665156 1.447869 L 3.720209 1.4168 L 3.770901 1.380825 L 3.813962 1.337763 L 3.861929 1.287071 L 3.896814 1.235833 L 3.93279 1.185141 L 3.960044 1.125182 L 3.984027 1.065769 L 3.999834 0.999269 L 4.003105 0.932769 L 4.010736 0.870085 L 4.003105 0.803041 L 3.999834 0.735996 L 3.984027 0.668951 L 3.960044 0.610082 L 3.93279 0.551214 L 3.896814 0.498886 L 3.861929 0.448194 L 3.813962 0.396956 L 3.770901 0.362071 L 3.720209 0.31792 L 3.665156 0.28685 L 3.613918 0.259051 L 3.546874 0.236158 L 3.488005 0.219806 L 3.424776 0.21599 L 3.357731 0.207814 L 3.286871 0.21599 L 3.219826 0.219806 L 3.160957 0.236158 L 3.097728 0.259051 L 3.047036 0.28685 L 2.988167 0.31792 L 2.93693 0.362071 L 2.892778 0.396956 L 2.850262 0.448194 L 2.813742 0.498886 L 2.775041 0.551214 L 2.754873 0.610082 L 2.73198 0.668951 L 2.711812 0.735996 L 2.704181 0.803041 L 2.704181 0.870085 " transform="matrix(7.166389, 0, 0, -7.166389, 0.24188, 115.942401)"/>
<path fill="none" stroke-width="0.051" stroke-linecap="round" stroke-linejoin="round" stroke="rgb(0%, 0%, 0%)" stroke-opacity="1" stroke-miterlimit="10" d="M 5.322197 11.440262 L 3.96822 11.440262 " transform="matrix(7.166389, 0, 0, -7.166389, 0.24188, 115.942401)"/>
<g fill="rgb(0%, 0%, 0%)" fill-opacity="1">
<use xlink:href="#glyph-0-0" x="36.238653" y="28.483788"/>
</g>
<g fill="rgb(0%, 0%, 0%)" fill-opacity="1">
<use xlink:href="#glyph-0-3" x="34.51872" y="28.483788"/>
</g>
<g fill="rgb(0%, 0%, 0%)" fill-opacity="1">
<use xlink:href="#glyph-0-2" x="33.422262" y="28.483788"/>
</g>
<g fill="rgb(0%, 0%, 0%)" fill-opacity="1">
<use xlink:href="#glyph-0-3" x="32.69129" y="32.855285"/>
</g>
<g fill="rgb(0%, 0%, 0%)" fill-opacity="1">
<use xlink:href="#glyph-1-2" x="29.960896" y="31.278679"/>
</g>
<g fill="rgb(0%, 0%, 0%)" fill-opacity="1">
<use xlink:href="#glyph-0-0" x="36.238653" y="47.417388"/>
</g>
<g fill="rgb(0%, 0%, 0%)" fill-opacity="1">
<use xlink:href="#glyph-0-3" x="34.51872" y="47.417388"/>
</g>
<g fill="rgb(0%, 0%, 0%)" fill-opacity="1">
<use xlink:href="#glyph-0-2" x="33.422262" y="47.417388"/>
</g>
<g fill="rgb(0%, 0%, 0%)" fill-opacity="1">
<use xlink:href="#glyph-0-1" x="33.114107" y="51.788885"/>
</g>
<g fill="rgb(0%, 0%, 0%)" fill-opacity="1">
<use xlink:href="#glyph-1-2" x="29.960896" y="50.21228"/>
</g>
<path fill="none" stroke-width="0.051" stroke-linecap="round" stroke-linejoin="round" stroke="rgb(0%, 0%, 0%)" stroke-opacity="1" stroke-miterlimit="10" d="M 5.322197 8.798808 L 3.96822 8.798808 " transform="matrix(7.166389, 0, 0, -7.166389, 0.24188, 115.942401)"/>
<path fill="none" stroke-width="0.051" stroke-linecap="round" stroke-linejoin="round" stroke="rgb(0%, 0%, 0%)" stroke-opacity="1" stroke-miterlimit="10" d="M 5.322197 0.870085 L 3.96822 0.870085 " transform="matrix(7.166389, 0, 0, -7.166389, 0.24188, 115.942401)"/>
<path fill="none" stroke-width="0.051" stroke-linecap="round" stroke-linejoin="round" stroke="rgb(0%, 0%, 0%)" stroke-opacity="1" stroke-miterlimit="10" d="M 2.051176 11.440262 L 1.350204 11.440262 " transform="matrix(7.166389, 0, 0, -7.166389, 0.24188, 115.942401)"/>
<path fill-rule="evenodd" fill="rgb(0%, 0%, 0%)" fill-opacity="1" d="M 14.515625 32.261719 L 19.5625 33.957031 L 14.515625 35.648438 L 14.515625 32.261719 "/>
<path fill="none" stroke-width="0.051" stroke-linecap="round" stroke-linejoin="round" stroke="rgb(0%, 0%, 0%)" stroke-opacity="1" stroke-miterlimit="10" d="M 2.051176 8.798808 L 1.350204 8.798808 " transform="matrix(7.166389, 0, 0, -7.166389, 0.24188, 115.942401)"/>
<path fill-rule="evenodd" fill="rgb(0%, 0%, 0%)" fill-opacity="1" d="M 14.515625 51.222656 L 19.5625 52.886719 L 14.515625 54.582031 L 14.515625 51.222656 "/>
<path fill="none" stroke-width="0.051" stroke-linecap="round" stroke-linejoin="round" stroke="rgb(0%, 0%, 0%)" stroke-opacity="1" stroke-miterlimit="10" d="M 2.051176 0.870085 L 1.350204 0.870085 " transform="matrix(7.166389, 0, 0, -7.166389, 0.24188, 115.942401)"/>
<path fill-rule="evenodd" fill="rgb(0%, 0%, 0%)" fill-opacity="1" d="M 14.515625 108.046875 L 19.621094 109.707031 L 14.515625 111.40625 L 14.515625 108.046875 "/>
<path fill="none" stroke-width="0.051" stroke-linecap="round" stroke-linejoin="round" stroke="rgb(0%, 0%, 0%)" stroke-opacity="1" stroke-miterlimit="10" d="M 4.673007 15.405168 L 3.96822 15.405168 " transform="matrix(7.166389, 0, 0, -7.166389, 0.24188, 115.942401)"/>
<path fill-rule="evenodd" fill="rgb(0%, 0%, 0%)" fill-opacity="1" d="M 33.277344 3.851562 L 38.382812 5.542969 L 33.277344 7.234375 L 33.277344 3.851562 "/>
<path fill="none" stroke-width="0.051" stroke-linecap="round" stroke-linejoin="round" stroke="rgb(0%, 0%, 0%)" stroke-opacity="1" stroke-miterlimit="10" d="M 17.106265 14.082261 L 16.409109 14.082261 " transform="matrix(7.166389, 0, 0, -7.166389, 0.24188, 115.942401)"/>
<path fill-rule="evenodd" fill="rgb(0%, 0%, 0%)" fill-opacity="1" d="M 122.40625 13.335938 L 127.511719 15.023438 L 122.40625 16.6875 L 122.40625 13.335938 "/>
<path fill="none" stroke-width="0.051" stroke-linecap="round" stroke-linejoin="round" stroke="rgb(0%, 0%, 0%)" stroke-opacity="1" stroke-miterlimit="10" d="M 3.031229 0.648783 L 3.684779 1.085937 " transform="matrix(7.166389, 0, 0, -7.166389, 0.24188, 115.942401)"/>
<path fill="none" stroke-width="0.051" stroke-linecap="round" stroke-linejoin="round" stroke="rgb(0%, 0%, 0%)" stroke-opacity="1" stroke-miterlimit="10" d="M 3.031229 8.546981 L 3.684779 8.98795 " transform="matrix(7.166389, 0, 0, -7.166389, 0.24188, 115.942401)"/>
<path fill="none" stroke-width="0.051" stroke-linecap="round" stroke-linejoin="round" stroke="rgb(0%, 0%, 0%)" stroke-opacity="1" stroke-miterlimit="10" d="M 3.031229 11.278919 L 3.684779 11.719888 " transform="matrix(7.166389, 0, 0, -7.166389, 0.24188, 115.942401)"/>
<g fill="rgb(0%, 0%, 0%)" fill-opacity="1">
<use xlink:href="#glyph-0-3" x="5.229687" y="37.061956"/>
</g>
<g fill="rgb(0%, 0%, 0%)" fill-opacity="1">
<use xlink:href="#glyph-1-3" x="2.893444" y="35.48535"/>
</g>
<g fill="rgb(0%, 0%, 0%)" fill-opacity="1">
<use xlink:href="#glyph-0-1" x="6.189983" y="55.988389"/>
</g>
<g fill="rgb(0%, 0%, 0%)" fill-opacity="1">
<use xlink:href="#glyph-1-3" x="3.430924" y="54.411784"/>
</g>
<g fill="rgb(0%, 0%, 0%)" fill-opacity="1">
<use xlink:href="#glyph-4-0" x="113.829148" y="16.802573"/>
</g>
<g fill="rgb(0%, 0%, 0%)" fill-opacity="1">
<use xlink:href="#glyph-4-0" x="24.672101" y="7.321441"/>
</g>
<path fill="none" stroke-width="0.051" stroke-linecap="round" stroke-linejoin="round" stroke="rgb(0%, 0%, 0%)" stroke-opacity="1" stroke-miterlimit="10" d="M 18.085772 13.920918 L 18.744228 14.361887 " transform="matrix(7.166389, 0, 0, -7.166389, 0.24188, 115.942401)"/>
<path fill="none" stroke-width="0.051" stroke-linecap="round" stroke-linejoin="round" stroke="rgb(0%, 0%, 0%)" stroke-opacity="1" stroke-miterlimit="10" d="M 5.649244 15.243825 L 6.302794 15.684794 " transform="matrix(7.166389, 0, 0, -7.166389, 0.24188, 115.942401)"/>
<g fill="rgb(0%, 0%, 0%)" fill-opacity="1">
<use xlink:href="#glyph-0-0" x="221.496979" y="77.150736"/>
</g>
<g fill="rgb(0%, 0%, 0%)" fill-opacity="1">
<use xlink:href="#glyph-0-4" x="219.640884" y="77.150736"/>
</g>
<g fill="rgb(0%, 0%, 0%)" fill-opacity="1">
<use xlink:href="#glyph-0-2" x="218.236272" y="77.150736"/>
</g>
<g fill="rgb(0%, 0%, 0%)" fill-opacity="1">
<use xlink:href="#glyph-5-0" x="219.898874" y="82.425199"/>
</g>
<g fill="rgb(0%, 0%, 0%)" fill-opacity="1">
<use xlink:href="#glyph-5-1" x="217.928117" y="81.5294"/>
</g>
<g fill="rgb(0%, 0%, 0%)" fill-opacity="1">
<use xlink:href="#glyph-1-2" x="214.74624" y="79.952795"/>
</g>
<g fill="rgb(0%, 0%, 0%)" fill-opacity="1">
<use xlink:href="#glyph-0-0" x="191.190319" y="77.150736"/>
</g>
<g fill="rgb(0%, 0%, 0%)" fill-opacity="1">
<use xlink:href="#glyph-0-4" x="189.305559" y="77.150736"/>
</g>
<g fill="rgb(0%, 0%, 0%)" fill-opacity="1">
<use xlink:href="#glyph-0-2" x="187.900947" y="77.150736"/>
</g>
<g fill="rgb(0%, 0%, 0%)" fill-opacity="1">
<use xlink:href="#glyph-5-0" x="189.592214" y="82.425199"/>
</g>
<g fill="rgb(0%, 0%, 0%)" fill-opacity="1">
<use xlink:href="#glyph-5-1" x="187.592792" y="81.5294"/>
</g>
<g fill="rgb(0%, 0%, 0%)" fill-opacity="1">
<use xlink:href="#glyph-1-1" x="185.05589" y="79.952795"/>
</g>
<g fill="rgb(0%, 0%, 0%)" fill-opacity="1">
<use xlink:href="#glyph-0-0" x="129.709867" y="82.934012"/>
</g>
<g fill="rgb(0%, 0%, 0%)" fill-opacity="1">
<use xlink:href="#glyph-0-1" x="127.681779" y="82.934012"/>
</g>
<g fill="rgb(0%, 0%, 0%)" fill-opacity="1">
<use xlink:href="#glyph-0-2" x="126.219835" y="82.934012"/>
</g>
<g fill="rgb(0%, 0%, 0%)" fill-opacity="1">
<use xlink:href="#glyph-5-2" x="127.939769" y="89.197437"/>
</g>
<g fill="rgb(0%, 0%, 0%)" fill-opacity="1">
<use xlink:href="#glyph-5-1" x="125.91168" y="87.312676"/>
</g>
<g fill="rgb(0%, 0%, 0%)" fill-opacity="1">
<use xlink:href="#glyph-1-2" x="122.729804" y="85.736071"/>
</g>
<g fill="rgb(0%, 0%, 0%)" fill-opacity="1">
<use xlink:href="#glyph-0-0" x="107.056911" y="83.220668"/>
</g>
<g fill="rgb(0%, 0%, 0%)" fill-opacity="1">
<use xlink:href="#glyph-0-1" x="105.000157" y="83.220668"/>
</g>
<g fill="rgb(0%, 0%, 0%)" fill-opacity="1">
<use xlink:href="#glyph-0-2" x="103.509548" y="83.220668"/>
</g>
<g fill="rgb(0%, 0%, 0%)" fill-opacity="1">
<use xlink:href="#glyph-5-2" x="105.286812" y="89.455427"/>
</g>
<g fill="rgb(0%, 0%, 0%)" fill-opacity="1">
<use xlink:href="#glyph-5-1" x="103.258724" y="87.570666"/>
</g>
<g fill="rgb(0%, 0%, 0%)" fill-opacity="1">
<use xlink:href="#glyph-1-1" x="100.635826" y="85.994061"/>
</g>
<g fill="rgb(0%, 0%, 0%)" fill-opacity="1">
<use xlink:href="#glyph-0-0" x="137.299073" y="25.574234"/>
</g>
<g fill="rgb(0%, 0%, 0%)" fill-opacity="1">
<use xlink:href="#glyph-0-4" x="135.385647" y="25.574234"/>
</g>
<g fill="rgb(0%, 0%, 0%)" fill-opacity="1">
<use xlink:href="#glyph-0-2" x="133.981035" y="25.574234"/>
</g>
<g fill="rgb(0%, 0%, 0%)" fill-opacity="1">
<use xlink:href="#glyph-5-0" x="135.500309" y="30.848696"/>
</g>
<g fill="rgb(0%, 0%, 0%)" fill-opacity="1">
<use xlink:href="#glyph-5-1" x="133.529552" y="29.952898"/>
</g>
<g fill="rgb(0%, 0%, 0%)" fill-opacity="1">
<use xlink:href="#glyph-1-0" x="130.598499" y="28.376292"/>
</g>
<g fill="rgb(0%, 0%, 0%)" fill-opacity="1">
<use xlink:href="#glyph-0-0" x="50.205945" y="19.002655"/>
</g>
<g fill="rgb(0%, 0%, 0%)" fill-opacity="1">
<use xlink:href="#glyph-0-1" x="48.177857" y="19.002655"/>
</g>
<g fill="rgb(0%, 0%, 0%)" fill-opacity="1">
<use xlink:href="#glyph-0-2" x="46.658583" y="19.002655"/>
</g>
<g fill="rgb(0%, 0%, 0%)" fill-opacity="1">
<use xlink:href="#glyph-5-2" x="48.235188" y="25.266079"/>
</g>
<g fill="rgb(0%, 0%, 0%)" fill-opacity="1">
<use xlink:href="#glyph-5-1" x="46.2071" y="23.381319"/>
</g>
<g fill="rgb(0%, 0%, 0%)" fill-opacity="1">
<use xlink:href="#glyph-1-0" x="43.276047" y="21.804713"/>
</g>
<g fill="rgb(0%, 0%, 0%)" fill-opacity="1">
<use xlink:href="#glyph-0-0" x="36.238653" y="101.896278"/>
</g>
<g fill="rgb(0%, 0%, 0%)" fill-opacity="1">
<use xlink:href="#glyph-0-3" x="34.51872" y="101.896278"/>
</g>
<g fill="rgb(0%, 0%, 0%)" fill-opacity="1">
<use xlink:href="#glyph-0-2" x="33.422262" y="101.896278"/>
</g>
<g fill="rgb(0%, 0%, 0%)" fill-opacity="1">
<use xlink:href="#glyph-6-0" x="35.249691" y="107.622223"/>
</g>
<g fill="rgb(0%, 0%, 0%)" fill-opacity="1">
<use xlink:href="#glyph-5-1" x="33.106941" y="106.246276"/>
</g>
<g fill="rgb(0%, 0%, 0%)" fill-opacity="1">
<use xlink:href="#glyph-1-2" x="29.95373" y="104.669671"/>
</g>
<g fill="rgb(0%, 0%, 0%)" fill-opacity="1">
<use xlink:href="#glyph-6-0" x="7.006952" y="113.942978"/>
</g>
<g fill="rgb(0%, 0%, 0%)" fill-opacity="1">
<use xlink:href="#glyph-5-1" x="4.864201" y="112.567032"/>
</g>
<g fill="rgb(0%, 0%, 0%)" fill-opacity="1">
<use xlink:href="#glyph-1-3" x="2.105142" y="110.990426"/>
</g>
<path fill="none" stroke-width="0.051" stroke-linecap="round" stroke-linejoin="round" stroke="rgb(0%, 0%, 0%)" stroke-opacity="1" stroke-miterlimit="10" d="M 18.41282 7.475901 L 23.648851 8.467945 " transform="matrix(7.166389, 0, 0, -7.166389, 0.24188, 115.942401)"/>
<g fill="rgb(0%, 0%, 0%)" fill-opacity="1">
<use xlink:href="#glyph-1-4" x="88.237973" y="111.570903"/>
</g>
<g fill="rgb(0%, 0%, 0%)" fill-opacity="1">
<use xlink:href="#glyph-1-5" x="85.163592" y="107.822882"/>
</g>
<g fill="rgb(0%, 0%, 0%)" fill-opacity="1">
<use xlink:href="#glyph-1-6" x="78.592013" y="111.570903"/>
</g>
<g fill="rgb(0%, 0%, 0%)" fill-opacity="1">
<use xlink:href="#glyph-1-5" x="75.746956" y="107.822882"/>
</g>
<g clip-path="url(#clip-3)">
<g fill="rgb(0%, 0%, 0%)" fill-opacity="1">
<use xlink:href="#glyph-7-0" x="48.299686" y="113.606158"/>
</g>
</g>
<g fill="rgb(0%, 0%, 0%)" fill-opacity="1">
<use xlink:href="#glyph-2-1" x="81.845554" y="107.822882"/>
</g>
<g fill="rgb(0%, 0%, 0%)" fill-opacity="1">
<use xlink:href="#glyph-8-0" x="69.798853" y="113.606158"/>
</g>
<g fill="rgb(0%, 0%, 0%)" fill-opacity="1">
<use xlink:href="#glyph-8-1" x="64.187571" y="113.606158"/>
</g>
<g fill="rgb(0%, 0%, 0%)" fill-opacity="1">
<use xlink:href="#glyph-9-0" x="60.891032" y="110.309619"/>
</g>
<g fill="rgb(0%, 0%, 0%)" fill-opacity="1">
<use xlink:href="#glyph-9-1" x="57.787985" y="110.309619"/>
</g>
<g fill="rgb(0%, 0%, 0%)" fill-opacity="1">
<use xlink:href="#glyph-9-2" x="55.537739" y="110.309619"/>
</g>
<g fill="rgb(0%, 0%, 0%)" fill-opacity="1">
<use xlink:href="#glyph-1-6" x="174.033984" y="111.570903"/>
</g>
<g fill="rgb(0%, 0%, 0%)" fill-opacity="1">
<use xlink:href="#glyph-1-5" x="171.188927" y="107.822882"/>
</g>
<g fill="rgb(0%, 0%, 0%)" fill-opacity="1">
<use xlink:href="#glyph-1-7" x="164.674679" y="111.570903"/>
</g>
<g fill="rgb(0%, 0%, 0%)" fill-opacity="1">
<use xlink:href="#glyph-1-5" x="161.858288" y="107.822882"/>
</g>
<g fill="rgb(0%, 0%, 0%)" fill-opacity="1">
<use xlink:href="#glyph-7-0" x="134.833835" y="113.606158"/>
</g>
<g fill="rgb(0%, 0%, 0%)" fill-opacity="1">
<use xlink:href="#glyph-2-1" x="167.842223" y="107.822882"/>
</g>
<g fill="rgb(0%, 0%, 0%)" fill-opacity="1">
<use xlink:href="#glyph-8-0" x="155.938851" y="113.606158"/>
</g>
<g fill="rgb(0%, 0%, 0%)" fill-opacity="1">
<use xlink:href="#glyph-8-1" x="150.298903" y="113.606158"/>
</g>
<g fill="rgb(0%, 0%, 0%)" fill-opacity="1">
<use xlink:href="#glyph-9-0" x="147.031029" y="110.252288"/>
</g>
<g fill="rgb(0%, 0%, 0%)" fill-opacity="1">
<use xlink:href="#glyph-9-3" x="144.099976" y="110.252288"/>
</g>
<g fill="rgb(0%, 0%, 0%)" fill-opacity="1">
<use xlink:href="#glyph-9-2" x="142.043222" y="110.252288"/>
</g>
</svg>
