<?xml version="1.0" encoding="utf-8" standalone="no"?>
<!DOCTYPE svg PUBLIC "-//W3C//DTD SVG 1.1//EN"
  "http://www.w3.org/Graphics/SVG/1.1/DTD/svg11.dtd">
<svg xmlns:xlink="http://www.w3.org/1999/xlink" width="667.550699pt" height="301.003594pt" viewBox="0 0 667.550699 301.003594" xmlns="http://www.w3.org/2000/svg" version="1.1">
 <metadata>
  <rdf:RDF xmlns:dc="http://purl.org/dc/elements/1.1/" xmlns:cc="http://creativecommons.org/ns#" xmlns:rdf="http://www.w3.org/1999/02/22-rdf-syntax-ns#">
   <cc:Work>
    <dc:type rdf:resource="http://purl.org/dc/dcmitype/StillImage"/>
    <dc:date>2026-09-19T22:41:28.148046</dc:date>
    <dc:format>image/svg+xml</dc:format>
    <dc:creator>
     <cc:Agent>
      <dc:title>Matplotlib v3.10.8, https://matplotlib.org/</dc:title>
     </cc:Agent>
    </dc:creator>
   </cc:Work>
  </rdf:RDF>
 </metadata>
 <defs>
  <style type="text/css">*{stroke-linejoin: round; stroke-linecap: butt}</style>
 </defs>
 <g id="figure_1">
  <g id="patch_1">
   <path d="M 0 301.003594 
L 667.550699 301.003594 
L 667.550699 0 
L 0 0 
L 0 301.003594 
z
" style="fill: none"/>
  </g>
  <g id="axes_1">
   <g id="patch_2">
    <path d="M 62.24 258.12 
L 575.6 258.12 
L 575.6 8.64 
L 62.24 8.64 
L 62.24 258.12 
z
" style="fill: none"/>
   </g>
   <g id="FillBetweenPolyCollection_1">
    <defs>
     <path id="m2daea8cfd0" d="M 62.24 -191.731315 
L 62.24 -138.6183 
L 63.956923 -138.366168 
L 65.673846 -138.114037 
L 67.390769 -137.861905 
L 69.107692 -137.609774 
L 70.824615 -137.357642 
L 72.541538 -137.105511 
L 74.258462 -136.853379 
L 75.975385 -136.601248 
L 77.692308 -136.349116 
L 79.409231 -136.096985 
L 81.126154 -135.844853 
L 82.843077 -135.592722 
L 84.56 -135.34059 
L 86.276923 -135.088459 
L 87.993846 -134.836327 
L 89.710769 -134.584196 
L 91.427692 -134.332064 
L 93.144615 -134.079933 
L 94.861538 -133.827801 
L 96.578462 -133.57567 
L 98.295385 -133.323538 
L 100.012308 -133.071407 
L 101.729231 -132.819275 
L 103.446154 -132.567144 
L 105.163077 -132.315012 
L 106.88 -132.062881 
L 108.596923 -131.810749 
L 110.313846 -131.558618 
L 112.030769 -131.306486 
L 113.747692 -131.054355 
L 115.464615 -130.802223 
L 117.181538 -130.550092 
L 118.898462 -130.29796 
L 120.615385 -130.045829 
L 122.332308 -129.793697 
L 124.049231 -129.541566 
L 125.766154 -129.289434 
L 127.483077 -129.037303 
L 129.2 -128.785171 
L 130.916923 -128.53304 
L 132.633846 -128.280908 
L 134.350769 -128.028777 
L 136.067692 -127.776645 
L 137.784615 -127.524514 
L 139.501538 -127.272382 
L 141.218462 -127.020251 
L 142.935385 -126.768119 
L 144.652308 -126.515988 
L 146.369231 -126.263856 
L 148.086154 -126.011725 
L 149.803077 -125.759593 
L 151.52 -125.507462 
L 153.236923 -125.25533 
L 154.953846 -125.003199 
L 156.670769 -124.751067 
L 158.387692 -124.498936 
L 160.104615 -124.246804 
L 161.821538 -123.994673 
L 163.538462 -123.742541 
L 165.255385 -123.49041 
L 166.972308 -123.238278 
L 168.689231 -122.986147 
L 170.406154 -122.734015 
L 172.123077 -122.481884 
L 173.84 -122.229752 
L 175.556923 -121.977621 
L 177.273846 -121.725489 
L 178.990769 -121.473357 
L 180.707692 -121.221226 
L 182.424615 -120.969094 
L 184.141538 -120.716963 
L 185.858462 -120.464831 
L 187.575385 -120.2127 
L 189.292308 -119.960568 
L 191.009231 -119.708437 
L 192.726154 -119.456305 
L 194.443077 -119.204174 
L 196.16 -118.952042 
L 197.876923 -118.699911 
L 199.593846 -118.447779 
L 201.310769 -118.195648 
L 203.027692 -117.943516 
L 204.744615 -117.691385 
L 206.461538 -117.439253 
L 208.178462 -117.187122 
L 209.895385 -116.93499 
L 211.612308 -116.682859 
L 213.329231 -116.430727 
L 215.046154 -116.178596 
L 216.763077 -115.926464 
L 218.48 -115.674333 
L 220.196923 -115.422201 
L 221.913846 -115.17007 
L 223.630769 -114.917938 
L 225.347692 -114.665807 
L 227.064615 -114.413675 
L 228.781538 -114.161544 
L 230.498462 -113.909412 
L 232.215385 -113.657281 
L 233.932308 -113.405149 
L 235.649231 -113.153018 
L 237.366154 -112.900886 
L 239.083077 -112.648755 
L 240.8 -112.396623 
L 242.516923 -112.144492 
L 244.233846 -111.89236 
L 245.950769 -111.640229 
L 247.667692 -111.388097 
L 249.384615 -111.135966 
L 251.101538 -110.883834 
L 252.818462 -110.631703 
L 254.535385 -110.379571 
L 256.252308 -110.12744 
L 257.969231 -109.875308 
L 259.686154 -109.623177 
L 261.403077 -109.371045 
L 263.12 -109.118914 
L 264.836923 -108.866782 
L 266.553846 -108.614651 
L 268.270769 -108.362519 
L 269.987692 -108.110388 
L 271.704615 -107.858256 
L 273.421538 -107.606125 
L 275.138462 -107.353993 
L 276.855385 -107.101862 
L 278.572308 -106.84973 
L 280.289231 -106.597599 
L 282.006154 -106.345467 
L 283.723077 -106.093336 
L 285.44 -105.841204 
L 287.156923 -105.589073 
L 288.873846 -105.336941 
L 290.590769 -105.08481 
L 292.307692 -104.832678 
L 294.024615 -104.580547 
L 295.741538 -104.328415 
L 297.458462 -104.076284 
L 299.175385 -103.824152 
L 300.892308 -103.572021 
L 302.609231 -103.319889 
L 304.326154 -103.067758 
L 306.043077 -102.815626 
L 307.76 -102.563495 
L 309.476923 -102.311363 
L 311.193846 -102.059232 
L 312.910769 -101.8071 
L 314.627692 -101.554969 
L 316.344615 -101.302837 
L 318.061538 -101.050706 
L 319.778462 -100.798574 
L 321.495385 -100.546443 
L 323.212308 -100.294311 
L 324.929231 -100.04218 
L 326.646154 -99.790048 
L 328.363077 -99.537916 
L 330.08 -99.285785 
L 331.796923 -99.033653 
L 333.513846 -98.781522 
L 335.230769 -98.52939 
L 336.947692 -98.277259 
L 338.664615 -98.025127 
L 340.381538 -97.772996 
L 342.098462 -97.520864 
L 343.815385 -97.268733 
L 345.532308 -97.016601 
L 347.249231 -96.76447 
L 348.966154 -96.512338 
L 350.683077 -96.260207 
L 352.4 -96.008075 
L 354.116923 -95.755944 
L 355.833846 -95.503812 
L 357.550769 -95.251681 
L 359.267692 -94.999549 
L 360.984615 -94.747418 
L 362.701538 -94.495286 
L 364.418462 -94.243155 
L 366.135385 -93.991023 
L 367.852308 -93.738892 
L 369.569231 -93.48676 
L 371.286154 -93.234629 
L 373.003077 -92.982497 
L 374.72 -92.730366 
L 376.436923 -92.478234 
L 378.153846 -92.226103 
L 379.870769 -91.973971 
L 381.587692 -91.72184 
L 383.304615 -91.469708 
L 385.021538 -91.217577 
L 386.738462 -90.965445 
L 388.455385 -90.713314 
L 390.172308 -90.461182 
L 391.889231 -90.209051 
L 393.606154 -89.956919 
L 395.323077 -89.704788 
L 397.04 -89.452656 
L 398.756923 -89.200525 
L 400.473846 -88.948393 
L 402.190769 -88.696262 
L 403.907692 -88.44413 
L 405.624615 -88.191999 
L 407.341538 -87.939867 
L 409.058462 -87.687736 
L 410.775385 -87.435604 
L 412.492308 -87.183473 
L 414.209231 -86.931341 
L 415.926154 -86.67921 
L 417.643077 -86.427078 
L 419.36 -86.174947 
L 421.076923 -85.922815 
L 422.793846 -85.670684 
L 424.510769 -85.418552 
L 426.227692 -85.166421 
L 427.944615 -84.914289 
L 429.661538 -84.662158 
L 431.378462 -84.410026 
L 433.095385 -84.157895 
L 434.812308 -83.905763 
L 436.529231 -83.653632 
L 438.246154 -83.4015 
L 439.963077 -83.149369 
L 441.68 -82.897237 
L 443.396923 -82.645106 
L 445.113846 -82.392974 
L 446.830769 -82.140843 
L 448.547692 -81.888711 
L 450.264615 -81.63658 
L 451.981538 -81.384448 
L 453.698462 -81.132317 
L 455.415385 -80.880185 
L 457.132308 -80.628054 
L 458.849231 -80.375922 
L 460.566154 -80.123791 
L 462.283077 -79.871659 
L 464 -79.619528 
L 465.716923 -79.367396 
L 467.433846 -79.115265 
L 469.150769 -78.863133 
L 470.867692 -78.611002 
L 472.584615 -78.35887 
L 474.301538 -78.106738 
L 476.018462 -77.854607 
L 477.735385 -77.602475 
L 479.452308 -77.350344 
L 481.169231 -77.098212 
L 482.886154 -76.846081 
L 484.603077 -76.593949 
L 486.32 -76.341818 
L 488.036923 -76.089686 
L 489.753846 -75.837555 
L 491.470769 -75.585423 
L 493.187692 -75.333292 
L 494.904615 -75.08116 
L 496.621538 -74.829029 
L 498.338462 -74.576897 
L 500.055385 -74.324766 
L 501.772308 -74.072634 
L 503.489231 -73.820503 
L 505.206154 -73.568371 
L 506.923077 -73.31624 
L 508.64 -73.064108 
L 510.356923 -72.811977 
L 512.073846 -72.559845 
L 513.790769 -72.307714 
L 515.507692 -72.055582 
L 517.224615 -71.803451 
L 518.941538 -71.551319 
L 520.658462 -71.299188 
L 522.375385 -71.047056 
L 524.092308 -70.794925 
L 525.809231 -70.542793 
L 527.526154 -70.290662 
L 529.243077 -70.03853 
L 530.96 -69.786399 
L 532.676923 -69.534267 
L 534.393846 -69.282136 
L 536.110769 -69.030004 
L 537.827692 -68.777873 
L 539.544615 -68.525741 
L 541.261538 -68.27361 
L 542.978462 -68.021478 
L 544.695385 -67.769347 
L 546.412308 -67.517215 
L 548.129231 -67.265084 
L 549.846154 -67.012952 
L 551.563077 -66.760821 
L 553.28 -66.508689 
L 554.996923 -66.256558 
L 556.713846 -66.004426 
L 558.430769 -65.752295 
L 560.147692 -65.500163 
L 561.864615 -65.248032 
L 563.581538 -64.9959 
L 565.298462 -64.743769 
L 567.015385 -64.491637 
L 568.732308 -64.239506 
L 570.449231 -63.987374 
L 572.166154 -63.735243 
L 573.883077 -63.483111 
L 575.6 -63.23098 
L 575.6 -116.343994 
L 575.6 -116.343994 
L 573.883077 -116.596126 
L 572.166154 -116.848257 
L 570.449231 -117.100389 
L 568.732308 -117.35252 
L 567.015385 -117.604652 
L 565.298462 -117.856783 
L 563.581538 -118.108915 
L 561.864615 -118.361046 
L 560.147692 -118.613178 
L 558.430769 -118.865309 
L 556.713846 -119.117441 
L 554.996923 -119.369572 
L 553.28 -119.621704 
L 551.563077 -119.873835 
L 549.846154 -120.125967 
L 548.129231 -120.378098 
L 546.412308 -120.63023 
L 544.695385 -120.882361 
L 542.978462 -121.134493 
L 541.261538 -121.386624 
L 539.544615 -121.638756 
L 537.827692 -121.890887 
L 536.110769 -122.143019 
L 534.393846 -122.39515 
L 532.676923 -122.647282 
L 530.96 -122.899413 
L 529.243077 -123.151545 
L 527.526154 -123.403676 
L 525.809231 -123.655808 
L 524.092308 -123.907939 
L 522.375385 -124.160071 
L 520.658462 -124.412202 
L 518.941538 -124.664334 
L 517.224615 -124.916466 
L 515.507692 -125.168597 
L 513.790769 -125.420729 
L 512.073846 -125.67286 
L 510.356923 -125.924992 
L 508.64 -126.177123 
L 506.923077 -126.429255 
L 505.206154 -126.681386 
L 503.489231 -126.933518 
L 501.772308 -127.185649 
L 500.055385 -127.437781 
L 498.338462 -127.689912 
L 496.621538 -127.942044 
L 494.904615 -128.194175 
L 493.187692 -128.446307 
L 491.470769 -128.698438 
L 489.753846 -128.95057 
L 488.036923 -129.202701 
L 486.32 -129.454833 
L 484.603077 -129.706964 
L 482.886154 -129.959096 
L 481.169231 -130.211227 
L 479.452308 -130.463359 
L 477.735385 -130.71549 
L 476.018462 -130.967622 
L 474.301538 -131.219753 
L 472.584615 -131.471885 
L 470.867692 -131.724016 
L 469.150769 -131.976148 
L 467.433846 -132.228279 
L 465.716923 -132.480411 
L 464 -132.732542 
L 462.283077 -132.984674 
L 460.566154 -133.236805 
L 458.849231 -133.488937 
L 457.132308 -133.741068 
L 455.415385 -133.9932 
L 453.698462 -134.245331 
L 451.981538 -134.497463 
L 450.264615 -134.749594 
L 448.547692 -135.001726 
L 446.830769 -135.253857 
L 445.113846 -135.505989 
L 443.396923 -135.75812 
L 441.68 -136.010252 
L 439.963077 -136.262383 
L 438.246154 -136.514515 
L 436.529231 -136.766646 
L 434.812308 -137.018778 
L 433.095385 -137.270909 
L 431.378462 -137.523041 
L 429.661538 -137.775172 
L 427.944615 -138.027304 
L 426.227692 -138.279435 
L 424.510769 -138.531567 
L 422.793846 -138.783698 
L 421.076923 -139.03583 
L 419.36 -139.287961 
L 417.643077 -139.540093 
L 415.926154 -139.792224 
L 414.209231 -140.044356 
L 412.492308 -140.296487 
L 410.775385 -140.548619 
L 409.058462 -140.80075 
L 407.341538 -141.052882 
L 405.624615 -141.305013 
L 403.907692 -141.557145 
L 402.190769 -141.809276 
L 400.473846 -142.061408 
L 398.756923 -142.313539 
L 397.04 -142.565671 
L 395.323077 -142.817802 
L 393.606154 -143.069934 
L 391.889231 -143.322065 
L 390.172308 -143.574197 
L 388.455385 -143.826328 
L 386.738462 -144.07846 
L 385.021538 -144.330591 
L 383.304615 -144.582723 
L 381.587692 -144.834854 
L 379.870769 -145.086986 
L 378.153846 -145.339117 
L 376.436923 -145.591249 
L 374.72 -145.84338 
L 373.003077 -146.095512 
L 371.286154 -146.347644 
L 369.569231 -146.599775 
L 367.852308 -146.851907 
L 366.135385 -147.104038 
L 364.418462 -147.35617 
L 362.701538 -147.608301 
L 360.984615 -147.860433 
L 359.267692 -148.112564 
L 357.550769 -148.364696 
L 355.833846 -148.616827 
L 354.116923 -148.868959 
L 352.4 -149.12109 
L 350.683077 -149.373222 
L 348.966154 -149.625353 
L 347.249231 -149.877485 
L 345.532308 -150.129616 
L 343.815385 -150.381748 
L 342.098462 -150.633879 
L 340.381538 -150.886011 
L 338.664615 -151.138142 
L 336.947692 -151.390274 
L 335.230769 -151.642405 
L 333.513846 -151.894537 
L 331.796923 -152.146668 
L 330.08 -152.3988 
L 328.363077 -152.650931 
L 326.646154 -152.903063 
L 324.929231 -153.155194 
L 323.212308 -153.407326 
L 321.495385 -153.659457 
L 319.778462 -153.911589 
L 318.061538 -154.16372 
L 316.344615 -154.415852 
L 314.627692 -154.667983 
L 312.910769 -154.920115 
L 311.193846 -155.172246 
L 309.476923 -155.424378 
L 307.76 -155.676509 
L 306.043077 -155.928641 
L 304.326154 -156.180772 
L 302.609231 -156.432904 
L 300.892308 -156.685035 
L 299.175385 -156.937167 
L 297.458462 -157.189298 
L 295.741538 -157.44143 
L 294.024615 -157.693561 
L 292.307692 -157.945693 
L 290.590769 -158.197824 
L 288.873846 -158.449956 
L 287.156923 -158.702087 
L 285.44 -158.954219 
L 283.723077 -159.20635 
L 282.006154 -159.458482 
L 280.289231 -159.710613 
L 278.572308 -159.962745 
L 276.855385 -160.214876 
L 275.138462 -160.467008 
L 273.421538 -160.719139 
L 271.704615 -160.971271 
L 269.987692 -161.223402 
L 268.270769 -161.475534 
L 266.553846 -161.727665 
L 264.836923 -161.979797 
L 263.12 -162.231928 
L 261.403077 -162.48406 
L 259.686154 -162.736191 
L 257.969231 -162.988323 
L 256.252308 -163.240454 
L 254.535385 -163.492586 
L 252.818462 -163.744717 
L 251.101538 -163.996849 
L 249.384615 -164.24898 
L 247.667692 -164.501112 
L 245.950769 -164.753243 
L 244.233846 -165.005375 
L 242.516923 -165.257506 
L 240.8 -165.509638 
L 239.083077 -165.761769 
L 237.366154 -166.013901 
L 235.649231 -166.266032 
L 233.932308 -166.518164 
L 232.215385 -166.770295 
L 230.498462 -167.022427 
L 228.781538 -167.274558 
L 227.064615 -167.52669 
L 225.347692 -167.778821 
L 223.630769 -168.030953 
L 221.913846 -168.283085 
L 220.196923 -168.535216 
L 218.48 -168.787348 
L 216.763077 -169.039479 
L 215.046154 -169.291611 
L 213.329231 -169.543742 
L 211.612308 -169.795874 
L 209.895385 -170.048005 
L 208.178462 -170.300137 
L 206.461538 -170.552268 
L 204.744615 -170.8044 
L 203.027692 -171.056531 
L 201.310769 -171.308663 
L 199.593846 -171.560794 
L 197.876923 -171.812926 
L 196.16 -172.065057 
L 194.443077 -172.317189 
L 192.726154 -172.56932 
L 191.009231 -172.821452 
L 189.292308 -173.073583 
L 187.575385 -173.325715 
L 185.858462 -173.577846 
L 184.141538 -173.829978 
L 182.424615 -174.082109 
L 180.707692 -174.334241 
L 178.990769 -174.586372 
L 177.273846 -174.838504 
L 175.556923 -175.090635 
L 173.84 -175.342767 
L 172.123077 -175.594898 
L 170.406154 -175.84703 
L 168.689231 -176.099161 
L 166.972308 -176.351293 
L 165.255385 -176.603424 
L 163.538462 -176.855556 
L 161.821538 -177.107687 
L 160.104615 -177.359819 
L 158.387692 -177.61195 
L 156.670769 -177.864082 
L 154.953846 -178.116213 
L 153.236923 -178.368345 
L 151.52 -178.620476 
L 149.803077 -178.872608 
L 148.086154 -179.124739 
L 146.369231 -179.376871 
L 144.652308 -179.629002 
L 142.935385 -179.881134 
L 141.218462 -180.133265 
L 139.501538 -180.385397 
L 137.784615 -180.637528 
L 136.067692 -180.88966 
L 134.350769 -181.141791 
L 132.633846 -181.393923 
L 130.916923 -181.646054 
L 129.2 -181.898186 
L 127.483077 -182.150317 
L 125.766154 -182.402449 
L 124.049231 -182.65458 
L 122.332308 -182.906712 
L 120.615385 -183.158843 
L 118.898462 -183.410975 
L 117.181538 -183.663106 
L 115.464615 -183.915238 
L 113.747692 -184.167369 
L 112.030769 -184.419501 
L 110.313846 -184.671632 
L 108.596923 -184.923764 
L 106.88 -185.175895 
L 105.163077 -185.428027 
L 103.446154 -185.680158 
L 101.729231 -185.93229 
L 100.012308 -186.184421 
L 98.295385 -186.436553 
L 96.578462 -186.688684 
L 94.861538 -186.940816 
L 93.144615 -187.192947 
L 91.427692 -187.445079 
L 89.710769 -187.69721 
L 87.993846 -187.949342 
L 86.276923 -188.201473 
L 84.56 -188.453605 
L 82.843077 -188.705736 
L 81.126154 -188.957868 
L 79.409231 -189.209999 
L 77.692308 -189.462131 
L 75.975385 -189.714262 
L 74.258462 -189.966394 
L 72.541538 -190.218526 
L 70.824615 -190.470657 
L 69.107692 -190.722789 
L 67.390769 -190.97492 
L 65.673846 -191.227052 
L 63.956923 -191.479183 
L 62.24 -191.731315 
z
" style="stroke: #fbf6e8"/>
    </defs>
    <g clip-path="url(#pf7278819a1)">
     <use xlink:href="#m2daea8cfd0" x="0" y="301.003594" style="fill: #fbf6e8; stroke: #fbf6e8"/>
    </g>
   </g>
   <g id="matplotlib.axis_1">
    <g id="xtick_1">
     <g id="line2d_1">
      <path d="M 152.832941 258.12 
L 152.832941 8.64 
" clip-path="url(#pf7278819a1)" style="fill: none; stroke: #dce3dd; stroke-opacity: 0.75; stroke-width: 0.7; stroke-linecap: square"/>
     </g>
     <g id="line2d_2">
      <defs>
       <path id="mda4c22af75" d="M 0 0 
L 0 4 
" style="stroke: #6b7a74"/>
      </defs>
      <g>
       <use xlink:href="#mda4c22af75" x="152.832941" y="258.12" style="fill: #6b7a74; stroke: #6b7a74"/>
      </g>
     </g>
     <g id="text_1">
      <!-- $\mathdefault{10^{2}}$ -->
      <g style="fill: #6b7a74" transform="translate(143.152941 273.978281)">
       <text>
        <tspan x="0" y="-0.06875" style="font-size: 11px; font-family: 'DejaVu Sans'; fill: #6b7a74">1</tspan>
        <tspan x="6.998535" y="-0.06875" style="font-size: 11px; font-family: 'DejaVu Sans'; fill: #6b7a74">0</tspan>
        <tspan x="14.102344" y="-4.279688" style="font-size: 7.7px; font-family: 'DejaVu Sans'; fill: #6b7a74">2</tspan>
       </text>
      </g>
     </g>
    </g>
    <g id="xtick_2">
     <g id="line2d_3">
      <path d="M 454.809412 258.12 
L 454.809412 8.64 
" clip-path="url(#pf7278819a1)" style="fill: none; stroke: #dce3dd; stroke-opacity: 0.75; stroke-width: 0.7; stroke-linecap: square"/>
     </g>
     <g id="line2d_4">
      <g>
       <use xlink:href="#mda4c22af75" x="454.809412" y="258.12" style="fill: #6b7a74; stroke: #6b7a74"/>
      </g>
     </g>
     <g id="text_2">
      <!-- $\mathdefault{10^{3}}$ -->
      <g style="fill: #6b7a74" transform="translate(445.129412 273.978281)">
       <text>
        <tspan x="0" y="-0.06875" style="font-size: 11px; font-family: 'DejaVu Sans'; fill: #6b7a74">1</tspan>
        <tspan x="6.998535" y="-0.06875" style="font-size: 11px; font-family: 'DejaVu Sans'; fill: #6b7a74">0</tspan>
        <tspan x="14.102344" y="-4.279688" style="font-size: 7.7px; font-family: 'DejaVu Sans'; fill: #6b7a74">3</tspan>
       </text>
      </g>
     </g>
    </g>
    <g id="xtick_3">
     <g id="line2d_5">
      <defs>
       <path id="mbed1f02fb7" d="M 0 0 
L 0 2 
" style="stroke: #000000; stroke-width: 0.6"/>
      </defs>
      <g>
       <use xlink:href="#mbed1f02fb7" x="85.839839" y="258.12" style="stroke: #000000; stroke-width: 0.6"/>
      </g>
     </g>
    </g>
    <g id="xtick_4">
     <g id="line2d_6">
      <g>
       <use xlink:href="#mbed1f02fb7" x="106.056194" y="258.12" style="stroke: #000000; stroke-width: 0.6"/>
      </g>
     </g>
    </g>
    <g id="xtick_5">
     <g id="line2d_7">
      <g>
       <use xlink:href="#mbed1f02fb7" x="123.568397" y="258.12" style="stroke: #000000; stroke-width: 0.6"/>
      </g>
     </g>
    </g>
    <g id="xtick_6">
     <g id="line2d_8">
      <g>
       <use xlink:href="#mbed1f02fb7" x="139.015256" y="258.12" style="stroke: #000000; stroke-width: 0.6"/>
      </g>
     </g>
    </g>
    <g id="xtick_7">
     <g id="line2d_9">
      <g>
       <use xlink:href="#mbed1f02fb7" x="243.736917" y="258.12" style="stroke: #000000; stroke-width: 0.6"/>
      </g>
     </g>
    </g>
    <g id="xtick_8">
     <g id="line2d_10">
      <g>
       <use xlink:href="#mbed1f02fb7" x="296.912334" y="258.12" style="stroke: #000000; stroke-width: 0.6"/>
      </g>
     </g>
    </g>
    <g id="xtick_9">
     <g id="line2d_11">
      <g>
       <use xlink:href="#mbed1f02fb7" x="334.640892" y="258.12" style="stroke: #000000; stroke-width: 0.6"/>
      </g>
     </g>
    </g>
    <g id="xtick_10">
     <g id="line2d_12">
      <g>
       <use xlink:href="#mbed1f02fb7" x="363.905436" y="258.12" style="stroke: #000000; stroke-width: 0.6"/>
      </g>
     </g>
    </g>
    <g id="xtick_11">
     <g id="line2d_13">
      <g>
       <use xlink:href="#mbed1f02fb7" x="387.816309" y="258.12" style="stroke: #000000; stroke-width: 0.6"/>
      </g>
     </g>
    </g>
    <g id="xtick_12">
     <g id="line2d_14">
      <g>
       <use xlink:href="#mbed1f02fb7" x="408.032665" y="258.12" style="stroke: #000000; stroke-width: 0.6"/>
      </g>
     </g>
    </g>
    <g id="xtick_13">
     <g id="line2d_15">
      <g>
       <use xlink:href="#mbed1f02fb7" x="425.544868" y="258.12" style="stroke: #000000; stroke-width: 0.6"/>
      </g>
     </g>
    </g>
    <g id="xtick_14">
     <g id="line2d_16">
      <g>
       <use xlink:href="#mbed1f02fb7" x="440.991726" y="258.12" style="stroke: #000000; stroke-width: 0.6"/>
      </g>
     </g>
    </g>
    <g id="xtick_15">
     <g id="line2d_17">
      <g>
       <use xlink:href="#mbed1f02fb7" x="545.713387" y="258.12" style="stroke: #000000; stroke-width: 0.6"/>
      </g>
     </g>
    </g>
    <g id="text_3">
     <!-- observation time  $T$  [s] -->
     <g style="fill: #1c2b26" transform="translate(245.92 289.763984)">
      <text>
       <tspan x="0" y="-0.125" style="font-size: 12.5px; font-family: 'DejaVu Sans'; fill: #1c2b26">o</tspan>
       <tspan x="7.647705" y="-0.125" style="font-size: 12.5px; font-family: 'DejaVu Sans'; fill: #1c2b26">b</tspan>
       <tspan x="15.582275" y="-0.125" style="font-size: 12.5px; font-family: 'DejaVu Sans'; fill: #1c2b26">s</tspan>
       <tspan x="22.094727" y="-0.125" style="font-size: 12.5px; font-family: 'DejaVu Sans'; fill: #1c2b26">e</tspan>
       <tspan x="29.785156" y="-0.125" style="font-size: 12.5px; font-family: 'DejaVu Sans'; fill: #1c2b26">r</tspan>
       <tspan x="34.924316" y="-0.125" style="font-size: 12.5px; font-family: 'DejaVu Sans'; fill: #1c2b26">v</tspan>
       <tspan x="42.321777" y="-0.125" style="font-size: 12.5px; font-family: 'DejaVu Sans'; fill: #1c2b26">a</tspan>
       <tspan x="49.981689" y="-0.125" style="font-size: 12.5px; font-family: 'DejaVu Sans'; fill: #1c2b26">t</tspan>
       <tspan x="54.882812" y="-0.125" style="font-size: 12.5px; font-family: 'DejaVu Sans'; fill: #1c2b26">i</tspan>
       <tspan x="58.355713" y="-0.125" style="font-size: 12.5px; font-family: 'DejaVu Sans'; fill: #1c2b26">o</tspan>
       <tspan x="66.003418" y="-0.125" style="font-size: 12.5px; font-family: 'DejaVu Sans'; fill: #1c2b26">n</tspan>
       <tspan x="73.925781" y="-0.125" style="font-size: 12.5px; font-family: 'DejaVu Sans'; fill: #1c2b26"> </tspan>
       <tspan x="77.89917" y="-0.125" style="font-size: 12.5px; font-family: 'DejaVu Sans'; fill: #1c2b26">t</tspan>
       <tspan x="82.800293" y="-0.125" style="font-size: 12.5px; font-family: 'DejaVu Sans'; fill: #1c2b26">i</tspan>
       <tspan x="86.273193" y="-0.125" style="font-size: 12.5px; font-family: 'DejaVu Sans'; fill: #1c2b26">m</tspan>
       <tspan x="98.449707" y="-0.125" style="font-size: 12.5px; font-family: 'DejaVu Sans'; fill: #1c2b26">e</tspan>
       <tspan x="106.140137" y="-0.125" style="font-size: 12.5px; font-family: 'DejaVu Sans'; fill: #1c2b26"> </tspan>
       <tspan x="110.113525" y="-0.125" style="font-size: 12.5px; font-family: 'DejaVu Sans'; fill: #1c2b26"> </tspan>
       <tspan x="121.722412" y="-0.125" style="font-size: 12.5px; font-family: 'DejaVu Sans'; fill: #1c2b26"> </tspan>
       <tspan x="125.695801" y="-0.125" style="font-size: 12.5px; font-family: 'DejaVu Sans'; fill: #1c2b26"> </tspan>
       <tspan x="129.669189" y="-0.125" style="font-size: 12.5px; font-family: 'DejaVu Sans'; fill: #1c2b26">[</tspan>
       <tspan x="134.545898" y="-0.125" style="font-size: 12.5px; font-family: 'DejaVu Sans'; fill: #1c2b26">s</tspan>
       <tspan x="141.05835" y="-0.125" style="font-size: 12.5px; font-family: 'DejaVu Sans'; fill: #1c2b26">]</tspan>
       <tspan x="114.086914" y="-0.125" style="font-style: oblique; font-size: 12.5px; font-family: 'DejaVu Sans'; fill: #1c2b26">T</tspan>
      </text>
     </g>
    </g>
   </g>
   <g id="matplotlib.axis_2">
    <g id="ytick_1">
     <g id="line2d_18">
      <path d="M 62.24 222.826317 
L 575.6 222.826317 
" clip-path="url(#pf7278819a1)" style="fill: none; stroke: #dce3dd; stroke-opacity: 0.75; stroke-width: 0.7; stroke-linecap: square"/>
     </g>
     <g id="line2d_19">
      <defs>
       <path id="m4cf15432e6" d="M 0 0 
L -4 0 
" style="stroke: #6b7a74"/>
      </defs>
      <g>
       <use xlink:href="#m4cf15432e6" x="62.24" y="222.826317" style="fill: #6b7a74; stroke: #6b7a74"/>
      </g>
     </g>
     <g id="text_4">
      <!-- $\mathdefault{10^{-2}}$ -->
      <g style="fill: #6b7a74" transform="translate(28.89 227.005457)">
       <text>
        <tspan x="0" y="-0.06875" style="font-size: 11px; font-family: 'DejaVu Sans'; fill: #6b7a74">1</tspan>
        <tspan x="6.998535" y="-0.06875" style="font-size: 11px; font-family: 'DejaVu Sans'; fill: #6b7a74">0</tspan>
        <tspan x="14.102344" y="-4.279688" style="font-size: 7.7px; font-family: 'DejaVu Sans'; fill: #6b7a74">−</tspan>
        <tspan x="20.554102" y="-4.279688" style="font-size: 7.7px; font-family: 'DejaVu Sans'; fill: #6b7a74">2</tspan>
       </text>
      </g>
     </g>
    </g>
    <g id="ytick_2">
     <g id="line2d_20">
      <path d="M 62.24 134.135352 
L 575.6 134.135352 
" clip-path="url(#pf7278819a1)" style="fill: none; stroke: #dce3dd; stroke-opacity: 0.75; stroke-width: 0.7; stroke-linecap: square"/>
     </g>
     <g id="line2d_21">
      <g>
       <use xlink:href="#m4cf15432e6" x="62.24" y="134.135352" style="fill: #6b7a74; stroke: #6b7a74"/>
      </g>
     </g>
     <g id="text_5">
      <!-- $\mathdefault{10^{-1}}$ -->
      <g style="fill: #6b7a74" transform="translate(28.89 138.314492)">
       <text>
        <tspan x="0" y="-0.178125" style="font-size: 11px; font-family: 'DejaVu Sans'; fill: #6b7a74">1</tspan>
        <tspan x="6.998535" y="-0.178125" style="font-size: 11px; font-family: 'DejaVu Sans'; fill: #6b7a74">0</tspan>
        <tspan x="14.102344" y="-4.389063" style="font-size: 7.7px; font-family: 'DejaVu Sans'; fill: #6b7a74">−</tspan>
        <tspan x="20.554102" y="-4.389063" style="font-size: 7.7px; font-family: 'DejaVu Sans'; fill: #6b7a74">1</tspan>
       </text>
      </g>
     </g>
    </g>
    <g id="ytick_3">
     <g id="line2d_22">
      <path d="M 62.24 45.444387 
L 575.6 45.444387 
" clip-path="url(#pf7278819a1)" style="fill: none; stroke: #dce3dd; stroke-opacity: 0.75; stroke-width: 0.7; stroke-linecap: square"/>
     </g>
     <g id="line2d_23">
      <g>
       <use xlink:href="#m4cf15432e6" x="62.24" y="45.444387" style="fill: #6b7a74; stroke: #6b7a74"/>
      </g>
     </g>
     <g id="text_6">
      <!-- $\mathdefault{10^{0}}$ -->
      <g style="fill: #6b7a74" transform="translate(35.38 49.623527)">
       <text>
        <tspan x="0" y="-0.06875" style="font-size: 11px; font-family: 'DejaVu Sans'; fill: #6b7a74">1</tspan>
        <tspan x="6.998535" y="-0.06875" style="font-size: 11px; font-family: 'DejaVu Sans'; fill: #6b7a74">0</tspan>
        <tspan x="14.102344" y="-4.279688" style="font-size: 7.7px; font-family: 'DejaVu Sans'; fill: #6b7a74">0</tspan>
       </text>
      </g>
     </g>
    </g>
    <g id="ytick_4">
     <g id="line2d_24">
      <defs>
       <path id="m4f011fae47" d="M 0 0 
L -2 0 
" style="stroke: #000000; stroke-width: 0.6"/>
      </defs>
      <g>
       <use xlink:href="#m4f011fae47" x="62.24" y="258.12" style="stroke: #000000; stroke-width: 0.6"/>
      </g>
     </g>
    </g>
    <g id="ytick_5">
     <g id="line2d_25">
      <g>
       <use xlink:href="#m4f011fae47" x="62.24" y="249.524957" style="stroke: #000000; stroke-width: 0.6"/>
      </g>
     </g>
    </g>
    <g id="ytick_6">
     <g id="line2d_26">
      <g>
       <use xlink:href="#m4f011fae47" x="62.24" y="242.502296" style="stroke: #000000; stroke-width: 0.6"/>
      </g>
     </g>
    </g>
    <g id="ytick_7">
     <g id="line2d_27">
      <g>
       <use xlink:href="#m4f011fae47" x="62.24" y="236.564721" style="stroke: #000000; stroke-width: 0.6"/>
      </g>
     </g>
    </g>
    <g id="ytick_8">
     <g id="line2d_28">
      <g>
       <use xlink:href="#m4f011fae47" x="62.24" y="231.421359" style="stroke: #000000; stroke-width: 0.6"/>
      </g>
     </g>
    </g>
    <g id="ytick_9">
     <g id="line2d_29">
      <g>
       <use xlink:href="#m4f011fae47" x="62.24" y="226.884593" style="stroke: #000000; stroke-width: 0.6"/>
      </g>
     </g>
    </g>
    <g id="ytick_10">
     <g id="line2d_30">
      <g>
       <use xlink:href="#m4f011fae47" x="62.24" y="196.127676" style="stroke: #000000; stroke-width: 0.6"/>
      </g>
     </g>
    </g>
    <g id="ytick_11">
     <g id="line2d_31">
      <g>
       <use xlink:href="#m4f011fae47" x="62.24" y="180.509972" style="stroke: #000000; stroke-width: 0.6"/>
      </g>
     </g>
    </g>
    <g id="ytick_12">
     <g id="line2d_32">
      <g>
       <use xlink:href="#m4f011fae47" x="62.24" y="169.429035" style="stroke: #000000; stroke-width: 0.6"/>
      </g>
     </g>
    </g>
    <g id="ytick_13">
     <g id="line2d_33">
      <g>
       <use xlink:href="#m4f011fae47" x="62.24" y="160.833992" style="stroke: #000000; stroke-width: 0.6"/>
      </g>
     </g>
    </g>
    <g id="ytick_14">
     <g id="line2d_34">
      <g>
       <use xlink:href="#m4f011fae47" x="62.24" y="153.811331" style="stroke: #000000; stroke-width: 0.6"/>
      </g>
     </g>
    </g>
    <g id="ytick_15">
     <g id="line2d_35">
      <g>
       <use xlink:href="#m4f011fae47" x="62.24" y="147.873756" style="stroke: #000000; stroke-width: 0.6"/>
      </g>
     </g>
    </g>
    <g id="ytick_16">
     <g id="line2d_36">
      <g>
       <use xlink:href="#m4f011fae47" x="62.24" y="142.730394" style="stroke: #000000; stroke-width: 0.6"/>
      </g>
     </g>
    </g>
    <g id="ytick_17">
     <g id="line2d_37">
      <g>
       <use xlink:href="#m4f011fae47" x="62.24" y="138.193628" style="stroke: #000000; stroke-width: 0.6"/>
      </g>
     </g>
    </g>
    <g id="ytick_18">
     <g id="line2d_38">
      <g>
       <use xlink:href="#m4f011fae47" x="62.24" y="107.436711" style="stroke: #000000; stroke-width: 0.6"/>
      </g>
     </g>
    </g>
    <g id="ytick_19">
     <g id="line2d_39">
      <g>
       <use xlink:href="#m4f011fae47" x="62.24" y="91.819007" style="stroke: #000000; stroke-width: 0.6"/>
      </g>
     </g>
    </g>
    <g id="ytick_20">
     <g id="line2d_40">
      <g>
       <use xlink:href="#m4f011fae47" x="62.24" y="80.73807" style="stroke: #000000; stroke-width: 0.6"/>
      </g>
     </g>
    </g>
    <g id="ytick_21">
     <g id="line2d_41">
      <g>
       <use xlink:href="#m4f011fae47" x="62.24" y="72.143027" style="stroke: #000000; stroke-width: 0.6"/>
      </g>
     </g>
    </g>
    <g id="ytick_22">
     <g id="line2d_42">
      <g>
       <use xlink:href="#m4f011fae47" x="62.24" y="65.120366" style="stroke: #000000; stroke-width: 0.6"/>
      </g>
     </g>
    </g>
    <g id="ytick_23">
     <g id="line2d_43">
      <g>
       <use xlink:href="#m4f011fae47" x="62.24" y="59.182791" style="stroke: #000000; stroke-width: 0.6"/>
      </g>
     </g>
    </g>
    <g id="ytick_24">
     <g id="line2d_44">
      <g>
       <use xlink:href="#m4f011fae47" x="62.24" y="54.039429" style="stroke: #000000; stroke-width: 0.6"/>
      </g>
     </g>
    </g>
    <g id="ytick_25">
     <g id="line2d_45">
      <g>
       <use xlink:href="#m4f011fae47" x="62.24" y="49.502663" style="stroke: #000000; stroke-width: 0.6"/>
      </g>
     </g>
    </g>
    <g id="ytick_26">
     <g id="line2d_46">
      <g>
       <use xlink:href="#m4f011fae47" x="62.24" y="18.745746" style="stroke: #000000; stroke-width: 0.6"/>
      </g>
     </g>
    </g>
    <g id="text_7">
     <!-- scatter in $\hat\lambda^\star$   $\sigma_\lambda$ -->
     <g style="fill: #1c2b26" transform="translate(22.290391 186.005) rotate(-90)">
      <text>
       <tspan x="0" y="-0.453125" style="font-size: 12.5px; font-family: 'DejaVu Sans'; fill: #1c2b26">s</tspan>
       <tspan x="6.512451" y="-0.453125" style="font-size: 12.5px; font-family: 'DejaVu Sans'; fill: #1c2b26">c</tspan>
       <tspan x="13.38501" y="-0.453125" style="font-size: 12.5px; font-family: 'DejaVu Sans'; fill: #1c2b26">a</tspan>
       <tspan x="21.044922" y="-0.453125" style="font-size: 12.5px; font-family: 'DejaVu Sans'; fill: #1c2b26">t</tspan>
       <tspan x="25.946045" y="-0.453125" style="font-size: 12.5px; font-family: 'DejaVu Sans'; fill: #1c2b26">t</tspan>
       <tspan x="30.847168" y="-0.453125" style="font-size: 12.5px; font-family: 'DejaVu Sans'; fill: #1c2b26">e</tspan>
       <tspan x="38.537598" y="-0.453125" style="font-size: 12.5px; font-family: 'DejaVu Sans'; fill: #1c2b26">r</tspan>
       <tspan x="43.676758" y="-0.453125" style="font-size: 12.5px; font-family: 'DejaVu Sans'; fill: #1c2b26"> </tspan>
       <tspan x="47.650146" y="-0.453125" style="font-size: 12.5px; font-family: 'DejaVu Sans'; fill: #1c2b26">i</tspan>
       <tspan x="51.123047" y="-0.453125" style="font-size: 12.5px; font-family: 'DejaVu Sans'; fill: #1c2b26">n</tspan>
       <tspan x="59.04541" y="-0.453125" style="font-size: 12.5px; font-family: 'DejaVu Sans'; fill: #1c2b26"> </tspan>
       <tspan x="70.75708" y="-4.609375" style="font-size: 12.5px; font-family: 'DejaVu Sans'; fill: #1c2b26">̂</tspan>
       <tspan x="79.782861" y="-0.453125" style="font-size: 12.5px; font-family: 'DejaVu Sans'; fill: #1c2b26"> </tspan>
       <tspan x="83.75625" y="-0.453125" style="font-size: 12.5px; font-family: 'DejaVu Sans'; fill: #1c2b26"> </tspan>
       <tspan x="87.729639" y="-0.453125" style="font-size: 12.5px; font-family: 'DejaVu Sans'; fill: #1c2b26"> </tspan>
       <tspan x="63.018799" y="-0.453125" style="font-style: oblique; font-size: 12.5px; font-family: 'DejaVu Sans'; fill: #1c2b26">λ</tspan>
       <tspan x="91.703027" y="-0.453125" style="font-style: oblique; font-size: 12.5px; font-family: 'DejaVu Sans'; fill: #1c2b26">σ</tspan>
       <tspan x="72.245386" y="-5.429688" style="font-size: 8.75px; font-family: 'DejaVu Sans'; fill: #1c2b26">⋆</tspan>
       <tspan x="99.625391" y="1.679688" style="font-style: oblique; font-size: 8.75px; font-family: 'DejaVu Sans'; fill: #1c2b26">λ</tspan>
      </text>
     </g>
    </g>
   </g>
   <g id="line2d_47">
    <path d="M 62.24 76.029468 
L 575.6 151.416788 
L 575.6 151.416788 
" clip-path="url(#pf7278819a1)" style="fill: none; stroke: #c0392b; stroke-width: 2.4; stroke-linecap: square"/>
   </g>
   <g id="line2d_48">
    <path d="M 62.24 109.272279 
L 575.6 184.659599 
L 575.6 184.659599 
" clip-path="url(#pf7278819a1)" style="fill: none; stroke: #2f6690; stroke-width: 2.4; stroke-linecap: square"/>
   </g>
   <g id="line2d_49">
    <path d="M 62.24 162.385294 
L 575.6 237.772614 
L 575.6 237.772614 
" clip-path="url(#pf7278819a1)" style="fill: none; stroke-dasharray: 15.6,10.4; stroke-dashoffset: 0; stroke: #b8860b; stroke-width: 2.6"/>
   </g>
   <g id="patch_3">
    <path d="M 62.24 258.12 
L 62.24 8.64 
" style="fill: none; stroke: #dce3dd; stroke-width: 1.2; stroke-linejoin: miter; stroke-linecap: square"/>
   </g>
   <g id="patch_4">
    <path d="M 62.24 258.12 
L 575.6 258.12 
" style="fill: none; stroke: #dce3dd; stroke-width: 1.2; stroke-linejoin: miter; stroke-linecap: square"/>
   </g>
   <g id="text_8">
    <text style="font-size: 11px; font-family: 'Source Sans Pro', 'DejaVu Sans', 'Helvetica', 'Arial', sans-serif; text-anchor: start; fill: #c0392b" x="580.743668" y="154.452101" transform="rotate(-0 580.743668 154.452101)">LP-ESC</text>
   </g>
   <g id="text_9">
    <text style="font-size: 11px; font-family: 'Source Sans Pro', 'DejaVu Sans', 'Helvetica', 'Arial', sans-serif; text-anchor: start; fill: #2f6690" x="580.743668" y="187.694912" transform="rotate(-0 580.743668 187.694912)">LP-PIESC</text>
   </g>
   <g id="text_10">
    <text style="font-size: 11px; font-family: 'Source Sans Pro', 'DejaVu Sans', 'Helvetica', 'Arial', sans-serif; text-anchor: start; fill: #b8860b" x="580.743668" y="240.807927" transform="rotate(-0 580.743668 240.807927)">best possible?</text>
   </g>
   <g id="patch_5">
    <path d="M 344.12551 154.680016 
Q 344.12551 177.224121 344.12551 199.768226 
" style="fill: none; stroke: #b8860b; stroke-width: 1.8; stroke-linecap: round"/>
    <path d="M 342.12551 158.680016 
L 344.12551 154.680016 
L 346.12551 158.680016 
z
" style="fill: #b8860b; stroke: #b8860b; stroke-width: 1.8; stroke-linecap: round"/>
    <path d="M 346.12551 195.768226 
L 344.12551 199.768226 
L 342.12551 195.768226 
z
" style="fill: #b8860b; stroke: #b8860b; stroke-width: 1.8; stroke-linecap: round"/>
   </g>
   <g id="text_11">
    <text style="font-weight: 700; font-size: 22px; font-family: 'Source Sans Pro', 'DejaVu Sans', 'Helvetica', 'Arial', sans-serif; text-anchor: start; fill: #b8860b" x="355.79068" y="179.557936" transform="rotate(-0 355.79068 179.557936)">?</text>
   </g>
   <g id="text_12">
    <text style="font-size: 11.5px; font-family: 'Source Sans Pro', 'DejaVu Sans', 'Helvetica', 'Arial', sans-serif; fill: #b8860b" transform="translate(80.56932 24.698302)">Is this gap a factor of 1.2, or a factor of 20?</text>
    <text style="font-size: 11.5px; font-family: 'Source Sans Pro', 'DejaVu Sans', 'Helvetica', 'Arial', sans-serif; fill: #b8860b" transform="translate(80.56932 39.760337)">Nobody has written the bound down, so there is no way to tell</text>
    <text style="font-size: 11.5px; font-family: 'Source Sans Pro', 'DejaVu Sans', 'Helvetica', 'Arial', sans-serif; fill: #b8860b" transform="translate(80.56932 54.822372)">whether this is a research programme or an engineering one.</text>
   </g>
   <g id="text_13">
    <text style="font-size: 10px; font-family: 'Source Sans Pro', 'DejaVu Sans', 'Helvetica', 'Arial', sans-serif; text-anchor: start; fill: #97a49e" x="80.56932" y="249.524957" transform="rotate(-0 80.56932 249.524957)">Schematic: the solid curves have the shape of the published claims, not measured values.</text>
   </g>
  </g>
 </g>
 <defs>
  <clipPath id="pf7278819a1">
   <rect x="62.24" y="8.64" width="513.36" height="249.48"/>
  </clipPath>
 </defs>
</svg>
